<svg width="20" height="16" viewBox="0 0 20 16" fill="none" xmlns="http://www.w3.org/2000/svg">
<path fill-rule="evenodd" clip-rule="evenodd" d="M0 1.33317C0 0.964981 0.298477 0.666504 0.666667 0.666504H19.3333C19.7015 0.666504 20 0.964981 20 1.33317C20 1.70136 19.7015 1.99984 19.3333 1.99984H0.666667C0.298477 1.99984 0 1.70136 0 1.33317Z" fill="#333333"/>
<path fill-rule="evenodd" clip-rule="evenodd" d="M0 8.00016C0 7.63197 0.298477 7.3335 0.666667 7.3335H14C14.3682 7.3335 14.6667 7.63197 14.6667 8.00016C14.6667 8.36835 14.3682 8.66683 14 8.66683H0.666667C0.298477 8.66683 0 8.36835 0 8.00016Z" fill="#333333"/>
<path fill-rule="evenodd" clip-rule="evenodd" d="M0 14.6667C0 14.2985 0.298477 14 0.666667 14H8.66667C9.03486 14 9.33333 14.2985 9.33333 14.6667C9.33333 15.0349 9.03486 15.3333 8.66667 15.3333H0.666667C0.298477 15.3333 0 15.0349 0 14.6667Z" fill="#333333"/>
</svg>
