<svg width="227" height="34" viewBox="0 0 227 34" fill="none" xmlns="http://www.w3.org/2000/svg">
<path fill-rule="evenodd" clip-rule="evenodd" d="M57.3612 20.0546H56.0566V22.3793H74.0285V20.0546H72.7245L67.5298 8.34221C67.2791 7.78134 66.9768 7.36809 66.623 7.1024C66.2694 6.83661 65.7462 6.70361 65.0537 6.70361C64.6559 6.70361 64.3244 6.74799 64.0591 6.83659C63.7937 6.9253 63.5656 7.04319 63.3739 7.19078C63.1823 7.33837 63.0278 7.51188 62.9098 7.71109C62.7918 7.9103 62.6812 8.12088 62.5781 8.34221L57.3612 20.0546ZM64.6779 10.0027C64.708 9.92896 64.7559 9.82917 64.8217 9.70381C64.8886 9.57834 64.9653 9.51567 65.0537 9.51567C65.1418 9.51567 65.2161 9.57834 65.2749 9.70381C65.334 9.82917 65.3773 9.92896 65.4072 10.0027L69.7402 20.0546H60.3449L64.6779 10.0027ZM86.1646 22.3793V12.3052C86.1646 11.8624 86.0914 11.5229 85.944 11.287C85.7967 11.0507 85.6309 10.8737 85.4467 10.7555C85.2626 10.6374 85.074 10.5675 84.8824 10.5452C84.6911 10.5231 84.551 10.512 84.4624 10.512C84.1971 10.512 83.9246 10.5599 83.6448 10.6557C83.3646 10.7517 83.107 10.9697 82.8714 11.3091L77.6539 18.9918C77.6093 19.0656 77.5658 19.1355 77.5215 19.202C77.4769 19.2686 77.4179 19.3019 77.3445 19.3019C77.2564 19.3019 77.2046 19.2759 77.1898 19.2243C77.1753 19.1727 77.1675 19.095 77.1675 18.9918L77.278 10.6447H74.6913V20.8515C74.6913 21.0139 74.7101 21.191 74.7469 21.383C74.7837 21.5749 74.861 21.7519 74.9789 21.9143C75.0968 22.0768 75.2667 22.2168 75.4877 22.335C75.7088 22.4531 76.0112 22.5119 76.394 22.5119C76.8364 22.5119 77.175 22.4347 77.4109 22.2795C77.6468 22.1247 77.8677 21.8922 78.0738 21.5821L83.2244 14.0322C83.3125 13.8995 83.3798 13.8146 83.4237 13.7776C83.4683 13.7409 83.5047 13.7224 83.5337 13.7224C83.6219 13.7224 83.6666 13.7519 83.6666 13.8108C83.6666 13.87 83.6666 13.9438 83.6666 14.0322L83.5784 22.3793H86.1646ZM88.486 10.6447V12.6375H94.2553C94.4618 12.6375 94.6792 12.6668 94.9078 12.7262C95.1362 12.7851 95.3384 12.9253 95.5151 13.1467C95.6625 13.3237 95.7548 13.5084 95.7918 13.7003C95.8286 13.8923 95.8474 14.0765 95.8474 14.2536V15.0729H90.7633C90.4538 15.0729 90.1112 15.1062 89.7355 15.1727C89.3596 15.2389 88.9872 15.4345 88.6189 15.7592C88.1765 16.1431 87.9003 16.5857 87.7899 17.0877C87.6795 17.5894 87.6243 18.0987 87.6243 18.6153C87.6243 18.837 87.6355 19.0877 87.6466 19.3681C87.6611 19.6486 87.7013 19.9365 87.7681 20.2317C87.8339 20.5269 87.9374 20.8109 88.0775 21.084C88.2176 21.3573 88.4057 21.597 88.6412 21.8035C88.9802 22.0987 89.3375 22.2684 89.7132 22.3128C90.0888 22.3571 90.4389 22.3793 90.7633 22.3793H96.3561C96.636 22.3793 96.9236 22.3533 97.2184 22.3017C97.5131 22.2501 97.7639 22.1208 97.97 21.9143C98.1765 21.7075 98.3052 21.4567 98.3567 21.1615C98.4092 20.8663 98.4335 20.6155 98.4335 20.4087V14.32C98.4335 13.6559 98.3524 13.0912 98.1906 12.6263C98.0284 12.1613 97.8223 11.8035 97.5719 11.5524C97.3066 11.2722 96.9602 11.0507 96.5326 10.8883C96.1051 10.7261 95.6407 10.6447 95.1398 10.6447H88.486ZM95.8474 17.0656V19.7669C95.8474 19.8551 95.8362 19.94 95.8251 20.0215C95.8106 20.1025 95.758 20.1801 95.6704 20.2538C95.5822 20.3277 95.4823 20.3683 95.3719 20.3755C95.2614 20.3834 95.1688 20.3867 95.0952 20.3867H91.4921C91.3299 20.3867 91.1717 20.3499 91.0171 20.2762C90.8622 20.2023 90.7408 20.121 90.6522 20.0326C90.4903 19.8702 90.3907 19.656 90.3537 19.3903C90.3169 19.1246 90.2987 18.9032 90.2987 18.7262C90.2987 18.298 90.3356 17.9955 90.4093 17.8185C90.4829 17.6411 90.5418 17.5233 90.5857 17.4641C90.7331 17.2722 90.9065 17.1579 91.1054 17.1211C91.3043 17.084 91.4482 17.0657 91.5368 17.0657L95.8474 17.0656ZM99.0964 22.3793H101.749L105.352 13.3237C105.381 13.2648 105.411 13.1945 105.44 13.1134C105.469 13.0324 105.514 12.9919 105.573 12.9919C105.632 12.9919 105.675 13.0324 105.706 13.1134C105.735 13.1945 105.765 13.2648 105.794 13.3237L109.397 22.3793H112.05L107.297 11.4862C107.135 11.1467 106.896 10.8993 106.579 10.7444C106.262 10.5892 105.927 10.512 105.573 10.512C105.219 10.512 104.884 10.5892 104.567 10.7444C104.25 10.8993 104.01 11.1467 103.848 11.4862L99.0964 22.3793ZM118.638 10.512C118.284 10.512 117.901 10.5188 117.488 10.5342C117.076 10.5487 116.655 10.5968 116.228 10.6779C115.801 10.7591 115.388 10.8848 114.99 11.0545C114.592 11.2243 114.231 11.4567 113.907 11.7519C113.568 12.0616 113.299 12.4272 113.1 12.8477C112.901 13.2682 112.75 13.6965 112.647 14.132C112.543 14.5674 112.478 14.9991 112.448 15.4273C112.419 15.8552 112.405 16.2317 112.405 16.5563C112.405 16.8515 112.419 17.2021 112.448 17.6082C112.478 18.0138 112.541 18.4347 112.636 18.8699C112.732 19.3053 112.88 19.7297 113.078 20.143C113.277 20.5563 113.553 20.9253 113.907 21.2502C114.231 21.5454 114.592 21.7779 114.99 21.9477C115.388 22.1174 115.801 22.2428 116.228 22.3238C116.655 22.4053 117.076 22.4569 117.488 22.479C117.901 22.5009 118.284 22.5119 118.638 22.5119C118.977 22.5119 119.352 22.5008 119.765 22.479C120.178 22.4569 120.601 22.4053 121.036 22.3238C121.471 22.2428 121.891 22.1174 122.296 21.9477C122.701 21.7779 123.059 21.5454 123.368 21.2502C123.796 20.837 124.153 20.2501 124.441 19.49C124.728 18.7299 124.871 17.7224 124.871 16.4676C124.871 16.1579 124.857 15.7963 124.827 15.3829C124.798 14.9696 124.731 14.5491 124.628 14.1209C124.525 13.6927 124.374 13.2682 124.175 12.8477C123.976 12.4272 123.707 12.0616 123.368 11.7519C123.044 11.4567 122.682 11.2243 122.285 11.0545C121.887 10.8848 121.475 10.7591 121.047 10.6779C120.62 10.5968 120.199 10.5487 119.787 10.5342C119.374 10.5193 118.991 10.512 118.637 10.512H118.638ZM115.079 16.5341C115.079 16.3423 115.079 16.1136 115.09 15.8479C115.101 15.5821 115.123 15.3054 115.167 15.0174C115.211 14.7296 115.285 14.4455 115.388 14.1652C115.492 13.8846 115.631 13.6411 115.808 13.4346C115.985 13.2278 116.195 13.0618 116.438 12.9364C116.681 12.8109 116.928 12.715 117.179 12.6485C117.429 12.582 117.683 12.5414 117.941 12.5266C118.199 12.5119 118.431 12.5047 118.637 12.5047C118.873 12.5047 119.117 12.5114 119.367 12.5266C119.618 12.5414 119.864 12.582 120.108 12.6485C120.351 12.715 120.587 12.8109 120.815 12.9364C121.043 13.0618 121.253 13.2278 121.445 13.4346C121.651 13.656 121.806 13.9033 121.909 14.1762C122.012 14.4493 122.086 14.7261 122.131 15.0064C122.174 15.2871 122.196 15.56 122.196 15.8257C122.196 16.0765 122.196 16.3128 122.196 16.5341C122.196 17.0507 122.163 17.5749 122.097 18.1064C122.03 18.6374 121.806 19.1172 121.423 19.5454C121.04 19.9733 120.601 20.2428 120.108 20.3533C119.614 20.4641 119.124 20.5196 118.637 20.5196C118.166 20.5196 117.676 20.4641 117.167 20.3533C116.659 20.2428 116.213 19.9733 115.83 19.5454C115.462 19.1172 115.244 18.6301 115.178 18.0841C115.112 17.5378 115.079 17.0212 115.079 16.5341H115.079ZM128.917 22.3793V13.5672C128.917 13.4196 128.917 13.2905 128.928 13.18C128.939 13.0691 128.991 12.962 129.094 12.8587C129.153 12.7999 129.226 12.7483 129.315 12.7039C129.403 12.6596 129.506 12.6375 129.624 12.6375H136.123V10.6447H127.967C127.716 10.6447 127.466 10.678 127.215 10.7444C126.964 10.8109 126.751 10.9842 126.574 11.2649C126.456 11.4567 126.386 11.6632 126.364 11.8846C126.341 12.1059 126.33 12.335 126.33 12.571V22.3793H128.917ZM141.716 22.3793H148.348C148.657 22.3793 148.993 22.3609 149.354 22.3238C149.715 22.2872 150.091 22.2205 150.481 22.1247C150.872 22.0287 151.259 21.8922 151.642 21.7151C152.025 21.5378 152.386 21.3018 152.725 21.0067C153.506 20.3277 154.026 19.4567 154.284 18.3938C154.541 17.3313 154.67 16.0322 154.67 14.4971C154.67 13.966 154.656 13.427 154.626 12.881C154.597 12.335 154.523 11.7997 154.405 11.2759C154.287 10.7517 154.114 10.2501 153.885 9.7703C153.657 9.29044 153.351 8.85881 152.968 8.47492C152.585 8.10599 152.18 7.81462 151.752 7.60055C151.325 7.38637 150.901 7.22773 150.481 7.1245C150.061 7.02093 149.663 6.9548 149.287 6.92531C148.911 6.89559 148.598 6.88091 148.348 6.88091H141.937V9.20567H147.419C148.156 9.20567 148.778 9.30886 149.287 9.51567C149.795 9.72214 150.204 9.97333 150.514 10.2685C150.941 10.6963 151.232 11.18 151.387 11.7187C151.542 12.2573 151.634 12.7999 151.663 13.3459H142.246V15.6708H151.663C151.649 16.5415 151.546 17.2648 151.354 17.8406C151.162 18.4161 150.772 18.9031 150.183 19.3019C149.829 19.5527 149.412 19.7408 148.933 19.8663C148.454 19.9916 147.854 20.0546 147.131 20.0546H141.716L141.716 22.3793ZM167.58 22.3793L162.584 17.154C162.496 17.0656 162.403 16.9364 162.307 16.7667C162.212 16.5969 162.164 16.4531 162.164 16.3349C162.164 16.1431 162.231 15.9622 162.363 15.7925C162.495 15.6226 162.614 15.4861 162.717 15.3829L167.16 10.6447H164.087L160.352 14.8071C160.19 14.9991 160.012 15.2277 159.82 15.4935C159.629 15.7592 159.533 16.0397 159.533 16.3349C159.533 16.6301 159.611 16.8959 159.766 17.1321C159.921 17.3681 160.064 17.56 160.197 17.7076L164.463 22.3793H167.58ZM159.025 22.3793V10.6447H156.438V22.3793H159.025ZM177.682 22.3793V20.3866H173.482C173.217 20.3866 172.941 20.3754 172.653 20.3533C172.366 20.3312 172.089 20.2761 171.824 20.1874C171.559 20.0987 171.316 19.9733 171.095 19.811C170.874 19.6486 170.689 19.4273 170.542 19.1466C170.468 18.9991 170.406 18.8183 170.354 18.6044C170.303 18.3904 170.262 18.1725 170.233 17.9512C170.204 17.7297 170.184 17.5122 170.178 17.2981C170.166 17.084 170.167 16.8885 170.167 16.7112C170.167 16.6228 170.166 16.4863 170.178 16.3017C170.189 16.117 170.192 15.9179 170.2 15.7038C170.211 15.4901 170.226 15.2758 170.256 15.0618C170.285 14.8477 170.323 14.6596 170.366 14.4971C170.513 13.9955 170.812 13.56 171.262 13.191C171.711 12.822 172.37 12.6375 173.24 12.6375H177.418V10.6447H172.4C171.87 10.6447 171.409 10.689 171.019 10.7777C170.628 10.8661 170.289 10.9731 170.002 11.0985C169.714 11.2243 169.475 11.3607 169.283 11.5083C169.092 11.6559 168.937 11.7887 168.819 11.9068C168.495 12.2463 168.244 12.619 168.067 13.0248C167.89 13.4308 167.758 13.8441 167.669 14.2646C167.581 14.6856 167.529 15.1023 167.515 15.5156C167.5 15.9289 167.492 16.3128 167.492 16.6669C167.492 17.5084 167.547 18.2868 167.658 19.0028C167.768 19.7187 168.067 20.3644 168.553 20.9402C168.819 21.2502 169.11 21.5011 169.426 21.693C169.743 21.885 170.056 22.0326 170.366 22.1358C170.676 22.239 170.978 22.3055 171.272 22.335C171.567 22.3644 171.825 22.3793 172.046 22.3793H177.682ZM181.131 10.6447C180.88 10.6447 180.615 10.6669 180.335 10.7113C180.055 10.7555 179.789 10.9253 179.539 11.2205C179.333 11.4713 179.215 11.7113 179.186 11.9401C179.157 12.1688 179.141 12.3866 179.141 12.5931V22.3793H181.727V13.3237C181.727 13.2204 181.742 13.1172 181.772 13.0136C181.801 12.9104 181.846 12.8294 181.905 12.7702C181.993 12.6818 182.14 12.6375 182.346 12.6375H186.723C186.797 12.6375 186.878 12.6486 186.966 12.6706C187.054 12.6928 187.129 12.7261 187.187 12.7702C187.261 12.8442 187.305 12.9364 187.32 13.0469C187.335 13.1577 187.343 13.2499 187.343 13.3237V22.3793H189.929V12.5931C189.929 12.3422 189.911 12.1025 189.873 11.8736C189.837 11.6449 189.73 11.427 189.553 11.2205C189.332 10.9547 189.081 10.7923 188.801 10.7334C188.521 10.6742 188.234 10.6447 187.939 10.6447H181.131ZM202.308 22.3793V20.3866H196.582C196.347 20.3866 196.107 20.372 195.864 20.3422C195.621 20.3127 195.389 20.25 195.168 20.1541C194.947 20.0581 194.755 19.9179 194.593 19.7335C194.431 19.5488 194.306 19.3018 194.217 18.9918C194.173 18.8148 194.136 18.5636 194.107 18.2389C194.078 17.9144 194.063 17.6265 194.063 17.3757H200.872C201.107 17.3757 201.332 17.346 201.546 17.287C201.76 17.2281 201.955 17.11 202.131 16.9326C202.382 16.6817 202.537 16.3977 202.595 16.0803C202.655 15.763 202.684 15.4567 202.684 15.1615C202.684 14.7926 202.661 14.4271 202.618 14.0654C202.574 13.7038 202.489 13.357 202.363 13.0248C202.238 12.6929 202.069 12.3866 201.856 12.106C201.642 11.8258 201.366 11.5746 201.027 11.3531C200.482 11.0137 199.873 10.8033 199.203 10.7223C198.532 10.6412 197.85 10.6003 197.158 10.6003C196.878 10.6003 196.554 10.6082 196.185 10.6226C195.817 10.6374 195.434 10.678 195.036 10.7444C194.638 10.8109 194.244 10.9178 193.853 11.0657C193.462 11.2132 193.105 11.427 192.781 11.7075C192.457 11.9878 192.203 12.2979 192.018 12.6375C191.834 12.977 191.694 13.3497 191.598 13.7553C191.502 14.1614 191.443 14.6042 191.421 15.0839C191.399 15.5638 191.389 16.0765 191.389 16.6228C191.389 17.4051 191.433 18.1725 191.522 18.9253C191.61 19.6781 191.846 20.335 192.229 20.8959C192.465 21.2354 192.73 21.5049 193.025 21.7041C193.32 21.9033 193.622 22.0547 193.931 22.1579C194.241 22.2611 194.558 22.3238 194.882 22.346C195.206 22.3682 195.515 22.3793 195.81 22.3793H202.308ZM194.062 15.3829C194.077 14.9991 194.102 14.6413 194.139 14.309C194.176 13.9771 194.327 13.6632 194.592 13.368C194.769 13.1762 194.965 13.0248 195.179 12.9142C195.392 12.8034 195.61 12.7261 195.831 12.6818C196.052 12.6374 196.265 12.6114 196.472 12.6041C196.678 12.5974 196.869 12.593 197.046 12.593C197.415 12.593 197.795 12.6189 198.185 12.6705C198.576 12.7223 198.933 12.8736 199.257 13.1244C199.449 13.2719 199.622 13.4789 199.777 13.7442C199.931 14.0099 200.009 14.3273 200.009 14.6965C200.009 14.8586 199.975 15.0139 199.909 15.1615C199.843 15.3091 199.685 15.3828 199.434 15.3828L194.062 15.3829ZM206.729 22.3793H210C210.295 22.3793 210.623 22.3682 210.984 22.346C211.345 22.3238 211.714 22.2577 212.09 22.1468C212.466 22.036 212.826 21.8662 213.173 21.6376C213.519 21.4089 213.833 21.095 214.112 20.6966C214.319 20.4014 214.484 20.0765 214.61 19.7225C214.735 19.3681 214.831 18.9991 214.897 18.6153C214.964 18.2317 215.004 17.8406 215.019 17.4418C215.033 17.0434 215.041 16.6523 215.041 16.2684C215.041 15.9439 215.03 15.5933 215.019 15.2166C215.004 14.8405 214.956 14.4604 214.875 14.0765C214.793 13.6927 214.669 13.3164 214.5 12.9475C214.33 12.5785 214.098 12.239 213.803 11.929C213.523 11.6338 213.221 11.4013 212.897 11.2316C212.572 11.0618 212.252 10.9326 211.935 10.8439C211.618 10.7555 211.323 10.7001 211.051 10.6779C210.778 10.6557 210.546 10.6447 210.355 10.6447H206.265C206.044 10.6447 205.801 10.6669 205.536 10.7113C205.27 10.7555 205.027 10.8587 204.806 11.0213C204.658 11.1394 204.511 11.3127 204.364 11.5416C204.216 11.7703 204.142 12.0766 204.142 12.4604V26.1433H206.729V22.3793ZM206.729 20.3866V13.191C206.729 13.0435 206.788 12.9104 206.906 12.7923C206.951 12.7628 207.005 12.7296 207.072 12.6928C207.139 12.6557 207.2 12.6375 207.26 12.6375H209.802C210.376 12.6375 210.855 12.7628 211.239 13.0136C211.622 13.2648 211.894 13.5822 212.057 13.966C212.13 14.1282 212.2 14.3904 212.267 14.7518C212.333 15.1134 212.366 15.6927 212.366 16.4898C212.366 17.3608 212.315 18.0028 212.211 18.416C212.109 18.8293 211.997 19.1245 211.88 19.3019C211.732 19.5378 211.489 19.7779 211.15 20.0215C210.811 20.2649 210.318 20.3866 209.669 20.3866H206.729ZM222.601 22.3793V12.6375H227V10.6447H215.616V12.6375H220.014V22.3793H222.601Z" fill="#5C1E21"/>
<path fill-rule="evenodd" clip-rule="evenodd" d="M14.36 23.1327H34.2807L23.4033 4.68944L22.0623 6.964L20.2295 3.85585L22.0449 0.777093C22.6559 -0.258502 24.1517 -0.258502 24.7623 0.777093L38.4061 23.912L38.4066 23.9131C38.5623 24.1769 38.6318 24.4578 38.6289 24.7309C38.6177 25.5505 37.9641 26.2995 37.0471 26.2995H12.4917L14.36 23.1327Z" fill="#5C1E21"/>
<path fill-rule="evenodd" clip-rule="evenodd" d="M4.34113 23.1386H7.02478L5.16414 26.2929H1.57849C0.663438 26.2929 0.00847789 25.5453 0 24.7276C0 24.4552 0.0656391 24.1748 0.221141 23.9117L13.8649 0.776918V0.776577C14.1703 0.258724 14.6972 0 15.2239 0C15.7504 0 16.2769 0.259065 16.5823 0.776918L28.8323 21.5491H25.1665L15.2234 4.68913L4.34113 23.1386Z" fill="#5C1E21"/>
<path fill-rule="evenodd" clip-rule="evenodd" d="M28.8308 21.5491H25.1645H28.8308ZM8.43568 30.0693H30.1892L28.9 27.8832H32.5662L34.3152 30.8488H34.3158C34.9378 31.9031 34.179 33.2347 32.9562 33.2347H5.66923C4.44674 33.2347 3.68748 31.9031 4.30916 30.8488H4.31025L16.5634 10.0718L18.3963 13.1799L8.43568 30.0693Z" fill="#5C1E21"/>
</svg>
