<svg width="216" height="29" viewBox="0 0 216 29" fill="none" xmlns="http://www.w3.org/2000/svg">
<path fill-rule="evenodd" clip-rule="evenodd" d="M50.7618 13.4373H49.4937V15.6936H66.9643V13.4373H65.6967L60.6469 2.06941C60.4032 1.52504 60.1093 1.12394 59.7653 0.866065C59.4217 0.608085 58.9131 0.479004 58.2399 0.479004C57.8532 0.479004 57.5309 0.522075 57.273 0.608068C57.015 0.69417 56.7932 0.808593 56.6069 0.951843C56.4206 1.09498 56.2704 1.2635 56.1558 1.45685C56.041 1.6502 55.9335 1.85459 55.8333 2.06941L50.7618 13.4373ZM57.8745 3.68106C57.9038 3.60949 57.9503 3.51268 58.0143 3.3909C58.0794 3.26923 58.1539 3.20835 58.2399 3.20835C58.3255 3.20835 58.3977 3.26923 58.4548 3.3909C58.5123 3.51268 58.5544 3.60949 58.5835 3.68106L62.7956 13.4373H53.6624L57.8745 3.68106ZM78.762 15.6936V5.9158C78.762 5.48605 78.6909 5.15659 78.5476 4.92756C78.4044 4.69821 78.2433 4.52649 78.0642 4.41176C77.8852 4.29714 77.7019 4.22922 77.5156 4.20764C77.3296 4.18617 77.1935 4.17534 77.1074 4.17534C76.8495 4.17534 76.5846 4.22172 76.3126 4.31487C76.0402 4.40802 75.7897 4.61963 75.5607 4.94907L70.4887 12.4058C70.4453 12.4774 70.4031 12.5454 70.36 12.6099C70.3166 12.6745 70.2593 12.7067 70.1879 12.7067C70.1022 12.7067 70.052 12.6816 70.0375 12.6315C70.0234 12.5814 70.0158 12.506 70.0158 12.4058L70.1233 4.30414H67.6087V14.2107C67.6087 14.3684 67.627 14.5403 67.6628 14.7266C67.6985 14.9128 67.7737 15.0847 67.8883 15.2423C68.0029 15.4 68.168 15.5359 68.3829 15.6506C68.5978 15.7653 68.8918 15.8224 69.2639 15.8224C69.694 15.8224 70.0232 15.7474 70.2525 15.5968C70.4818 15.4464 70.6965 15.2209 70.8969 14.9199L75.9038 7.59211C75.9895 7.46328 76.0549 7.38084 76.0976 7.34484C76.141 7.30927 76.1764 7.29136 76.2046 7.29136C76.2902 7.29136 76.3338 7.31999 76.3338 7.37714C76.3338 7.43461 76.3338 7.50633 76.3338 7.59211L76.248 15.6936H78.762ZM81.0187 4.30414V6.23832H86.6272C86.8279 6.23832 87.0393 6.26683 87.2615 6.3243C87.4835 6.38156 87.6801 6.51768 87.8519 6.73261C87.9951 6.90438 88.0849 7.08361 88.1209 7.26991C88.1566 7.45621 88.1749 7.63501 88.1749 7.80689V8.60212H83.2326C82.9316 8.60212 82.5986 8.63443 82.2334 8.69896C81.868 8.76326 81.506 8.9531 81.1479 9.26823C80.7179 9.64072 80.4494 10.0705 80.342 10.5577C80.2347 11.0446 80.1811 11.5389 80.1811 12.0403C80.1811 12.2555 80.1919 12.4989 80.2028 12.771C80.2169 13.0433 80.2559 13.3227 80.3209 13.6092C80.3848 13.8957 80.4854 14.1714 80.6216 14.4364C80.7578 14.7017 80.9407 14.9344 81.1696 15.1348C81.4992 15.4213 81.8465 15.586 82.2117 15.6291C82.5768 15.6721 82.9172 15.6936 83.2326 15.6936H88.6694C88.9415 15.6936 89.2211 15.6684 89.5076 15.6183C89.7941 15.5682 90.0379 15.4427 90.2383 15.2423C90.439 15.0416 90.5642 14.7982 90.6143 14.5117C90.6652 14.2252 90.6889 13.9817 90.6889 13.781V7.87142C90.6889 7.22685 90.61 6.67882 90.4528 6.2276C90.2951 5.77627 90.0947 5.42893 89.8513 5.18516C89.5934 4.91319 89.2566 4.69824 88.841 4.54056C88.4254 4.38322 87.974 4.30414 87.4871 4.30414H81.0187ZM88.1749 10.5362V13.1579C88.1749 13.2437 88.164 13.3261 88.1532 13.4052C88.1391 13.4838 88.088 13.5591 88.0028 13.6307C87.9171 13.7024 87.82 13.7417 87.7126 13.7488C87.6053 13.7564 87.5152 13.7597 87.4436 13.7597H83.941C83.7834 13.7597 83.6296 13.724 83.4793 13.6524C83.3287 13.5807 83.2106 13.5017 83.1245 13.416C82.9672 13.2583 82.8704 13.0504 82.8344 12.7925C82.7986 12.5347 82.7809 12.3198 82.7809 12.148C82.7809 11.7324 82.8168 11.4388 82.8884 11.267C82.96 11.0948 83.0172 10.9805 83.0599 10.923C83.2032 10.7367 83.3717 10.6258 83.5651 10.5901C83.7584 10.5541 83.8983 10.5364 83.9844 10.5364L88.1749 10.5362ZM91.3333 15.6936H93.912L97.4146 6.90436C97.4428 6.84721 97.4721 6.77897 97.5003 6.70024C97.5285 6.62162 97.5718 6.5823 97.629 6.5823C97.6865 6.5823 97.7289 6.62162 97.7582 6.70024C97.7864 6.77897 97.8158 6.84721 97.844 6.90436L101.347 15.6936H103.926L99.3054 5.12096C99.1477 4.79141 98.915 4.55127 98.607 4.40098C98.2989 4.25035 97.973 4.17534 97.629 4.17534C97.2853 4.17534 96.9595 4.25035 96.6516 4.40098C96.3435 4.55127 96.1103 4.79141 95.9526 5.12096L91.3333 15.6936ZM110.33 4.17534C109.986 4.17534 109.613 4.18293 109.212 4.19692C108.811 4.21102 108.403 4.25772 107.988 4.33644C107.572 4.41506 107.171 4.53721 106.784 4.70193C106.397 4.86676 106.046 5.09232 105.731 5.37882C105.402 5.67942 105.14 6.03421 104.947 6.44238C104.753 6.85055 104.606 7.26622 104.506 7.68881C104.405 8.11151 104.342 8.53055 104.313 8.9461C104.285 9.36142 104.27 9.72683 104.27 10.042C104.27 10.3285 104.285 10.6687 104.313 11.0628C104.342 11.4566 104.403 11.8651 104.496 12.2875C104.589 12.7101 104.732 13.122 104.925 13.5231C105.119 13.9242 105.387 14.2825 105.731 14.5978C106.046 14.8843 106.397 15.1099 106.784 15.2747C107.171 15.4394 107.572 15.5612 107.988 15.6398C108.403 15.7188 108.811 15.7689 109.212 15.7904C109.613 15.8117 109.986 15.8224 110.33 15.8224C110.66 15.8224 111.024 15.8116 111.426 15.7904C111.827 15.7689 112.239 15.7188 112.661 15.6398C113.084 15.5612 113.492 15.4394 113.886 15.2747C114.28 15.1099 114.628 14.8843 114.928 14.5978C115.344 14.1967 115.691 13.627 115.971 12.8893C116.25 12.1516 116.39 11.1737 116.39 9.95584C116.39 9.65525 116.375 9.30424 116.346 8.90301C116.318 8.50189 116.253 8.09374 116.153 7.67809C116.053 7.26254 115.906 6.85055 115.712 6.44238C115.519 6.03421 115.258 5.67942 114.928 5.37882C114.613 5.09232 114.262 4.86676 113.875 4.70193C113.488 4.53721 113.088 4.41506 112.672 4.33644C112.256 4.25772 111.848 4.21102 111.447 4.19692C111.046 4.1825 110.673 4.17534 110.329 4.17534H110.33ZM106.87 10.0204C106.87 9.83408 106.87 9.61221 106.881 9.35434C106.892 9.09636 106.913 8.82777 106.956 8.54831C106.999 8.26886 107.07 7.99319 107.171 7.72111C107.271 7.44882 107.407 7.21245 107.579 7.01205C107.751 6.81133 107.955 6.65016 108.191 6.52849C108.428 6.40671 108.668 6.31357 108.911 6.24905C109.155 6.18452 109.402 6.14513 109.653 6.1307C109.903 6.1165 110.129 6.10946 110.329 6.10946C110.559 6.10946 110.796 6.11596 111.039 6.1307C111.282 6.14513 111.522 6.18452 111.759 6.24905C111.995 6.31357 112.225 6.40671 112.446 6.52849C112.668 6.65016 112.873 6.81133 113.059 7.01205C113.259 7.22687 113.41 7.46691 113.51 7.73183C113.61 7.99686 113.682 8.26551 113.725 8.53759C113.767 8.80989 113.789 9.07489 113.789 9.33276C113.789 9.57621 113.789 9.80556 113.789 10.0204C113.789 10.5218 113.756 11.0305 113.692 11.5462C113.627 12.0618 113.41 12.5275 113.037 12.9431C112.665 13.3584 112.238 13.62 111.759 13.7272C111.279 13.8348 110.802 13.8886 110.329 13.8886C109.871 13.8886 109.395 13.8348 108.9 13.7272C108.406 13.62 107.973 13.3584 107.6 12.9431C107.242 12.5275 107.031 12.0548 106.966 11.5248C106.902 10.9945 106.87 10.4932 106.87 10.0204H106.87ZM120.322 15.6936V7.14072C120.322 6.99747 120.322 6.87216 120.333 6.76491C120.344 6.65723 120.394 6.5533 120.494 6.4531C120.552 6.39595 120.623 6.34591 120.709 6.30286C120.795 6.25981 120.895 6.23832 121.01 6.23832H127.328V4.30414H119.399C119.155 4.30414 118.911 4.33645 118.668 4.40098C118.424 4.4655 118.216 4.63369 118.044 4.90598C117.93 5.09228 117.862 5.29269 117.84 5.50762C117.819 5.72244 117.808 5.94474 117.808 6.17366V15.6936H120.322ZM132.765 15.6936H139.211C139.512 15.6936 139.838 15.6758 140.189 15.6398C140.54 15.6042 140.906 15.5396 141.285 15.4464C141.665 15.3534 142.041 15.2209 142.414 15.049C142.786 14.8769 143.137 14.6479 143.466 14.3614C144.226 13.7024 144.731 12.857 144.982 11.8254C145.232 10.7941 145.358 9.53317 145.358 8.04331C145.358 7.52778 145.344 7.00463 145.314 6.47468C145.286 5.94473 145.214 5.42521 145.099 4.91684C144.985 4.40803 144.816 3.92114 144.594 3.4555C144.372 2.98974 144.075 2.57081 143.703 2.19821C143.33 1.84014 142.936 1.55733 142.521 1.34956C142.105 1.14168 141.693 0.987709 141.285 0.88751C140.877 0.786985 140.49 0.722806 140.124 0.694178C139.759 0.665332 139.455 0.65109 139.211 0.65109H132.979V2.90747H138.309C139.025 2.90747 139.63 3.00763 140.124 3.20835C140.618 3.40875 141.016 3.65256 141.317 3.93906C141.733 4.35428 142.015 4.82373 142.166 5.34652C142.316 5.86942 142.406 6.39599 142.434 6.92594H133.28V9.18245H142.434C142.42 10.0274 142.32 10.7296 142.134 11.2884C141.947 11.847 141.568 12.3197 140.995 12.7067C140.651 12.9502 140.246 13.1328 139.781 13.2545C139.315 13.3762 138.731 13.4373 138.029 13.4373H132.764L132.765 15.6936ZM157.907 15.6936L153.051 10.622C152.965 10.5362 152.875 10.4108 152.782 10.2461C152.689 10.0812 152.643 9.94178 152.643 9.82704C152.643 9.64074 152.707 9.46529 152.836 9.30046C152.964 9.13574 153.079 9.00321 153.18 8.90301L157.499 4.30414H154.512L150.88 8.34419C150.723 8.53049 150.55 8.75238 150.364 9.01036C150.178 9.26824 150.085 9.54054 150.085 9.82704C150.085 10.1135 150.16 10.3714 150.311 10.6008C150.461 10.8298 150.601 11.0161 150.73 11.1593L154.877 15.6936H157.907ZM149.591 15.6936V4.30414H147.076V15.6936H149.591ZM167.728 15.6936V13.7595H163.645C163.387 13.7595 163.118 13.7487 162.839 13.7272C162.56 13.7058 162.291 13.6523 162.033 13.5662C161.775 13.4801 161.539 13.3584 161.324 13.2009C161.109 13.0433 160.93 12.8285 160.787 12.5561C160.715 12.4128 160.654 12.2374 160.604 12.0298C160.554 11.822 160.514 11.6105 160.486 11.3956C160.458 11.1808 160.439 10.9697 160.432 10.7618C160.422 10.554 160.422 10.3644 160.422 10.1923C160.422 10.1065 160.422 9.97396 160.432 9.79481C160.443 9.61556 160.447 9.42226 160.454 9.21449C160.465 9.00693 160.479 8.79911 160.509 8.59134C160.537 8.38356 160.573 8.20098 160.616 8.04331C160.759 7.55641 161.049 7.1337 161.486 6.77563C161.923 6.41745 162.564 6.23832 163.409 6.23832H167.471V4.30414H162.593C162.077 4.30414 161.63 4.34724 161.25 4.43334C160.87 4.51912 160.541 4.62295 160.261 4.74462C159.982 4.86672 159.749 4.99915 159.563 5.1424C159.377 5.28565 159.226 5.41451 159.111 5.52913C158.796 5.85868 158.553 6.22041 158.381 6.61427C158.209 7.00834 158.08 7.40944 157.994 7.81761C157.908 8.22611 157.858 8.63075 157.844 9.03188C157.83 9.433 157.822 9.80559 157.822 10.1492C157.822 10.966 157.875 11.7215 157.983 12.4165C158.09 13.1113 158.381 13.7379 158.853 14.2968C159.111 14.5978 159.394 14.8412 159.702 15.0275C160.01 15.2139 160.315 15.3571 160.616 15.4573C160.917 15.5575 161.21 15.622 161.497 15.6506C161.783 15.6792 162.034 15.6936 162.249 15.6936H167.728ZM171.08 4.30414C170.837 4.30414 170.579 4.32573 170.306 4.36868C170.034 4.41173 169.776 4.57659 169.533 4.86309C169.332 5.10654 169.218 5.33945 169.189 5.56143C169.161 5.7833 169.146 5.99484 169.146 6.19524V15.6936H171.66V6.90436C171.66 6.80416 171.674 6.70394 171.703 6.60341C171.731 6.50321 171.775 6.42457 171.832 6.36699C171.918 6.28132 172.062 6.23832 172.262 6.23832H176.517C176.588 6.23832 176.667 6.24913 176.753 6.27049C176.839 6.29207 176.911 6.32427 176.968 6.36699C177.04 6.439 177.083 6.52846 177.097 6.63571C177.111 6.74328 177.119 6.83279 177.119 6.90436V15.6936H179.633V6.19524C179.633 5.95179 179.616 5.71909 179.579 5.4969C179.543 5.27492 179.439 5.06349 179.267 4.86309C179.052 4.60511 178.809 4.4474 178.537 4.39025C178.265 4.33278 177.985 4.30414 177.699 4.30414H171.08ZM191.667 15.6936V13.7595H186.101C185.872 13.7595 185.639 13.7453 185.402 13.7165C185.166 13.6878 184.941 13.627 184.726 13.5338C184.511 13.4407 184.325 13.3046 184.167 13.1257C184.01 12.9464 183.888 12.7067 183.802 12.4058C183.758 12.234 183.722 11.9902 183.694 11.6751C183.666 11.3601 183.652 11.0806 183.652 10.8372H190.271C190.499 10.8372 190.718 10.8082 190.926 10.7511C191.134 10.6939 191.323 10.5793 191.495 10.4071C191.739 10.1637 191.889 9.88798 191.946 9.5799C192.004 9.27193 192.032 8.97467 192.032 8.68817C192.032 8.3301 192.01 7.9753 191.968 7.62428C191.926 7.27326 191.843 6.93666 191.721 6.61427C191.599 6.29209 191.435 5.99487 191.227 5.72246C191.02 5.45049 190.751 5.20669 190.421 4.99176C189.892 4.66232 189.3 4.45815 188.648 4.37953C187.996 4.3008 187.334 4.26112 186.66 4.26112C186.388 4.26112 186.073 4.26871 185.715 4.2827C185.357 4.29712 184.984 4.33645 184.598 4.40098C184.211 4.4655 183.827 4.56918 183.447 4.71265C183.068 4.8559 182.721 5.06344 182.406 5.33573C182.091 5.60781 181.843 5.90877 181.664 6.23832C181.485 6.56777 181.349 6.92964 181.256 7.32339C181.163 7.71747 181.105 8.1472 181.084 8.61285C181.062 9.0786 181.053 9.57621 181.053 10.1065C181.053 10.8658 181.095 11.6105 181.181 12.3412C181.267 13.0719 181.496 13.7095 181.869 14.2538C182.098 14.5834 182.356 14.8449 182.643 15.0383C182.929 15.2316 183.223 15.3785 183.524 15.4787C183.825 15.5789 184.133 15.6398 184.448 15.6614C184.763 15.6828 185.063 15.6936 185.35 15.6936H191.667ZM183.651 8.90301C183.665 8.53052 183.69 8.1832 183.726 7.8607C183.762 7.53852 183.909 7.23388 184.167 6.94738C184.339 6.76108 184.529 6.61427 184.736 6.50691C184.944 6.39934 185.155 6.32429 185.37 6.28135C185.585 6.23829 185.793 6.21301 185.993 6.20596C186.194 6.19945 186.38 6.19517 186.552 6.19517C186.91 6.19517 187.279 6.22033 187.659 6.27042C188.039 6.32052 188.386 6.46745 188.701 6.7109C188.887 6.85415 189.056 7.05488 189.206 7.31254C189.357 7.57041 189.432 7.87833 189.432 8.23684C189.432 8.39419 189.399 8.54485 189.335 8.6881C189.271 8.83135 189.117 8.90288 188.873 8.90288L183.651 8.90301ZM195.965 15.6936H199.145C199.431 15.6936 199.75 15.6827 200.101 15.6614C200.452 15.6398 200.811 15.5756 201.176 15.468C201.541 15.3604 201.892 15.1956 202.229 14.9737C202.565 14.7518 202.87 14.4471 203.142 14.0604C203.343 13.7739 203.504 13.4586 203.625 13.1149C203.747 12.771 203.841 12.4128 203.905 12.0403C203.97 11.6681 204.009 11.2884 204.023 10.9014C204.037 10.5147 204.045 10.1351 204.045 9.76251C204.045 9.44738 204.034 9.1072 204.023 8.74165C204.009 8.37653 203.962 8.0076 203.883 7.635C203.804 7.26251 203.683 6.89728 203.519 6.53921C203.354 6.18114 203.128 5.85163 202.841 5.55071C202.569 5.26421 202.276 5.03854 201.96 4.87381C201.645 4.70899 201.334 4.58358 201.026 4.49748C200.718 4.4117 200.431 4.35791 200.166 4.33644C199.901 4.31486 199.675 4.30414 199.489 4.30414H195.514C195.299 4.30414 195.063 4.32573 194.805 4.36868C194.547 4.41173 194.31 4.51191 194.095 4.66969C193.952 4.78432 193.809 4.9524 193.665 5.1747C193.522 5.39657 193.45 5.69394 193.45 6.06644V19.3469H195.965V15.6936ZM195.965 13.7595V6.77563C195.965 6.63238 196.022 6.50326 196.137 6.38863C196.18 6.36001 196.233 6.32775 196.298 6.29207C196.363 6.25607 196.423 6.23832 196.48 6.23832H198.952C199.51 6.23832 199.976 6.35996 200.348 6.60341C200.721 6.84719 200.986 7.15528 201.144 7.52778C201.215 7.68513 201.284 7.93975 201.348 8.29045C201.412 8.64147 201.445 9.20374 201.445 9.97736C201.445 10.8228 201.395 11.4457 201.294 11.8469C201.194 12.2481 201.086 12.5346 200.972 12.7067C200.828 12.9357 200.592 13.1688 200.263 13.4052C199.933 13.6415 199.453 13.7595 198.823 13.7595H195.965ZM211.394 15.6936V6.23832H215.67V4.30414H204.603V6.23832H208.88V15.6936H211.394Z" fill="#5C1E21"/>
<path fill-rule="evenodd" clip-rule="evenodd" d="M50.0358 27.7019H50.4308V25.804H51.0757C51.0757 25.9257 51.0759 26.0521 51.0911 26.1837C51.1062 26.3152 51.1331 26.448 51.1699 26.5823C51.2079 26.7164 51.2589 26.8442 51.3219 26.9656C51.3848 27.0871 51.4651 27.1959 51.5612 27.2921C51.6725 27.3981 51.7915 27.4818 51.9181 27.5424C52.0445 27.6032 52.1723 27.6487 52.3015 27.6791C52.4305 27.7096 52.5554 27.7283 52.6769 27.736C52.7982 27.7436 52.9074 27.7473 53.0036 27.7473C53.0947 27.7473 53.2009 27.7441 53.3223 27.736C53.4437 27.7285 53.5705 27.7096 53.702 27.6791C53.8336 27.6487 53.9637 27.6032 54.0928 27.5424C54.2216 27.4818 54.3396 27.3981 54.4459 27.2921C54.5522 27.1858 54.6369 27.063 54.7001 26.9238C54.763 26.7846 54.8113 26.6417 54.8441 26.495C54.8766 26.3481 54.8994 26.2027 54.9124 26.0585C54.9254 25.9143 54.931 25.7841 54.931 25.6675C54.931 25.5562 54.9308 25.4309 54.9156 25.2919C54.9048 25.1527 54.8841 25.0109 54.8505 24.8668C54.8179 24.7227 54.7682 24.581 54.7027 24.4417C54.6366 24.3025 54.5507 24.1798 54.4443 24.0735C54.3478 23.9772 54.2433 23.9001 54.1293 23.8419C54.0155 23.7838 53.8954 23.7395 53.7687 23.7092C53.6424 23.6787 53.5144 23.6585 53.3854 23.6483C53.2562 23.6385 53.1287 23.6333 53.002 23.6333C52.7438 23.6333 52.4888 23.6584 52.2358 23.7092C51.9829 23.7598 51.7575 23.8801 51.5602 24.0709C51.4539 24.1773 51.35 24.3378 51.2488 24.5517C51.148 24.7656 51.0892 25.0617 51.0741 25.4398H50.4292V23.6787H50.0342L50.0358 27.7019ZM51.4855 25.7054C51.4855 25.6196 51.4855 25.5194 51.4855 25.4032C51.4855 25.2867 51.4999 25.1665 51.5194 25.0402C51.54 24.9147 51.5714 24.7921 51.6137 24.6743C51.657 24.5553 51.7165 24.4531 51.7921 24.3682C51.868 24.2821 51.9555 24.2152 52.0542 24.1671C52.1529 24.1204 52.2563 24.0835 52.365 24.0584C52.4739 24.0331 52.583 24.0165 52.6917 24.0088C52.8006 24.0012 52.9026 23.9975 52.9988 23.9975C53.0953 23.9975 53.1976 24.0019 53.3065 24.0088C53.4152 24.0164 53.5239 24.0331 53.6326 24.0584C53.7415 24.0835 53.8453 24.1204 53.944 24.1671C54.0427 24.2152 54.1302 24.2821 54.2061 24.3682C54.282 24.4531 54.3415 24.5553 54.3845 24.6743C54.4279 24.7921 54.4592 24.9147 54.4788 25.0402C54.4994 25.1665 54.5105 25.2867 54.5137 25.4032C54.5137 25.5194 54.5137 25.6196 54.5137 25.7054C54.5137 25.7865 54.5137 25.8815 54.5137 25.9927C54.5137 26.104 54.4994 26.2178 54.4788 26.3367C54.4592 26.4545 54.4268 26.5722 54.3845 26.6872C54.3411 26.8036 54.2794 26.9072 54.1987 26.9973C54.1228 27.0831 54.0365 27.1528 53.9403 27.2061C53.8438 27.2577 53.7441 27.2971 53.6406 27.3222C53.5365 27.3477 53.4304 27.3641 53.3218 27.3717C53.2131 27.3793 53.1052 27.3831 52.9988 27.3831C52.8926 27.3831 52.7851 27.3798 52.6764 27.3717C52.5675 27.3641 52.4615 27.3477 52.3576 27.3222C52.2535 27.2971 52.1542 27.2577 52.0579 27.2061C51.9614 27.1528 51.8754 27.0831 51.7995 26.9973C51.7193 26.9072 51.6567 26.8036 51.6137 26.6872C51.5703 26.5722 51.5389 26.4545 51.5194 26.3367C51.4988 26.2178 51.4877 26.104 51.4855 25.9927C51.4855 25.8815 51.4855 25.7865 51.4855 25.7054V25.7054ZM55.9338 27.7019H57.0722C57.1986 27.7019 57.3292 27.6953 57.4635 27.6828C57.5976 27.6702 57.7268 27.6438 57.8506 27.6032C57.9744 27.5627 58.092 27.5033 58.2032 27.4249C58.3145 27.3462 58.4131 27.239 58.4992 27.1021C58.641 26.8898 58.7285 26.6542 58.7613 26.3964C58.7939 26.1382 58.8111 25.8827 58.8111 25.6298C58.8111 25.5132 58.8108 25.3906 58.7989 25.2615C58.7881 25.1324 58.7752 25.002 58.7491 24.8705C58.7242 24.7389 58.6821 24.6111 58.6242 24.4871C58.5656 24.3633 58.4887 24.248 58.3928 24.142C58.3418 24.0912 58.2813 24.0381 58.2106 23.9825C58.1402 23.9268 58.0552 23.8761 57.9565 23.8306C57.8578 23.7851 57.7445 23.7485 57.6181 23.7206C57.4916 23.6926 57.3503 23.6787 57.1935 23.6787H56.1763C56.121 23.6787 56.0513 23.6852 55.9677 23.6978C55.8842 23.7104 55.8043 23.7445 55.7284 23.8002C55.698 23.8257 55.6591 23.8687 55.6108 23.9292C55.5631 23.9902 55.5388 24.0734 55.5388 24.1798V28.9923H55.9338V27.7019ZM55.9338 27.3376V24.2391C55.9338 24.2139 55.9341 24.1899 55.946 24.1684C55.9568 24.1457 55.9698 24.1217 55.9947 24.0961C56.0099 24.0863 56.0291 24.0747 56.0519 24.0621C56.0747 24.0495 56.0964 24.0429 56.116 24.0429H57.2777C57.4648 24.0429 57.6484 24.0875 57.8278 24.1761C58.0074 24.2634 58.1476 24.4137 58.2488 24.6252C58.3193 24.7807 58.3629 24.9529 58.378 25.1389C58.3931 25.3248 58.4007 25.5068 58.4007 25.6826C58.4007 25.899 58.3881 26.113 58.3631 26.3253C58.3382 26.5366 58.2719 26.7225 58.1656 26.8846C58.1049 26.9742 58.0354 27.049 57.957 27.1074C57.8789 27.1654 57.7974 27.211 57.714 27.2463C57.6305 27.282 57.5468 27.306 57.4635 27.3185C57.38 27.3311 57.3026 27.3376 57.2316 27.3376H55.9338ZM62.7807 27.7019V24.0961C62.7807 24.0661 62.7804 24.0255 62.7696 23.9748C62.7696 23.9244 62.7516 23.8736 62.7288 23.8228C62.7061 23.7725 62.6711 23.7282 62.6256 23.6901C62.58 23.6523 62.5141 23.6333 62.4281 23.6333C62.251 23.6333 62.112 23.7141 62.0108 23.8761L59.9384 27.1781C59.9026 27.2438 59.8759 27.2768 59.8553 27.2768C59.8303 27.2768 59.8162 27.2654 59.8129 27.2426C59.8129 27.2198 59.8129 27.1984 59.8129 27.1781V23.6787H59.4184V27.3299C59.4184 27.4615 59.4498 27.5638 59.5127 27.6374C59.5756 27.7108 59.6656 27.7473 59.7822 27.7473C59.883 27.7473 59.9647 27.7247 60.0252 27.6791C60.086 27.6337 60.149 27.5601 60.2148 27.4591L62.2645 24.2025C62.2894 24.1619 62.3087 24.1368 62.3206 24.1266C62.3336 24.1168 62.3422 24.1115 62.3476 24.1115C62.3725 24.1115 62.3857 24.1213 62.3857 24.142C62.3857 24.157 62.3857 24.1773 62.3857 24.2025V27.7019H62.7807ZM63.4108 27.3376H63.0841V27.7019H67.1983V27.3376H66.8721L65.5743 23.9811C65.5483 23.9114 65.5024 23.8359 65.4372 23.7546C65.371 23.6738 65.2727 23.6333 65.1412 23.6333C65.0097 23.6333 64.911 23.6738 64.8452 23.7546C64.7791 23.8359 64.7343 23.9114 64.7091 23.9811L63.4108 27.3376ZM65.0507 24.142C65.0615 24.1217 65.0731 24.0974 65.0883 24.0698C65.1034 24.0418 65.1211 24.0279 65.1417 24.0279C65.1623 24.0279 65.1795 24.0418 65.1947 24.0698C65.2099 24.0974 65.2231 24.1217 65.2328 24.142L66.4623 27.3376H63.8206L65.0507 24.142ZM70.8645 27.7019V24.0961C70.8645 24.0661 70.8648 24.0255 70.8539 23.9748C70.8539 23.9244 70.8354 23.8736 70.8126 23.8228C70.7899 23.7725 70.7549 23.7282 70.7094 23.6901C70.6638 23.6523 70.5985 23.6333 70.5124 23.6333C70.3353 23.6333 70.1957 23.7141 70.0946 23.8761L68.0227 27.1781C67.9869 27.2438 67.9597 27.2768 67.9391 27.2768C67.9141 27.2768 67.8999 27.2654 67.8978 27.2426C67.8978 27.2198 67.8978 27.1984 67.8978 27.1781V23.6787H67.5033V27.3299C67.5033 27.4615 67.5346 27.5638 67.5975 27.6374C67.6604 27.7108 67.7506 27.7473 67.8671 27.7473C67.9679 27.7473 68.0496 27.7247 68.1101 27.6791C68.1708 27.6337 68.2345 27.5601 68.3002 27.4591L70.3493 24.2025C70.3743 24.1619 70.3941 24.1368 70.406 24.1266C70.419 24.1168 70.4276 24.1115 70.433 24.1115C70.4579 24.1115 70.4706 24.1213 70.4706 24.142C70.4706 24.157 70.4706 24.1773 70.4706 24.2025V27.7019H70.8645ZM74.7362 27.7019V23.6787H74.3412V25.4475H72.5118C72.3903 25.4475 72.2908 25.4296 72.2121 25.3942C72.134 25.3589 72.0769 25.3183 72.0416 25.2741C71.9906 25.2133 71.9624 25.1401 71.9537 25.054C71.9429 24.9692 71.9426 24.8908 71.9426 24.82V23.6787H71.5481V24.7339C71.5481 24.8807 71.5589 25.026 71.5709 25.1705C71.5861 25.3146 71.6371 25.4373 71.7228 25.5385C71.8341 25.67 71.9707 25.7484 72.1327 25.7739C72.2947 25.799 72.4411 25.8117 72.5727 25.8117H74.3412V27.7019H74.7362ZM78.7058 27.7019V27.3376H76.7324C76.6007 27.3376 76.4845 27.316 76.3835 27.2731C76.2826 27.23 76.1949 27.1768 76.1214 27.1111C76.0476 27.0453 75.9875 26.9705 75.9392 26.8885C75.8915 26.8048 75.8565 26.7226 75.837 26.643C75.8067 26.5366 75.7864 26.4037 75.7767 26.242C75.7658 26.0813 75.7634 25.9433 75.7655 25.827H78.2176C78.2729 25.827 78.3426 25.8206 78.4262 25.8081C78.5097 25.7954 78.5819 25.7613 78.6428 25.7054C78.7133 25.6395 78.7586 25.5588 78.7789 25.4625C78.7995 25.3663 78.8096 25.2778 78.8096 25.1969C78.8096 24.873 78.7463 24.6061 78.6195 24.3962C78.4929 24.1862 78.3412 24.0279 78.1641 23.9215C78.0021 23.8256 77.8264 23.7635 77.6368 23.7355C77.4468 23.7079 77.2808 23.6941 77.139 23.6941C76.9368 23.6941 76.722 23.7156 76.4941 23.7583C76.2664 23.8014 76.0617 23.8989 75.8794 24.0507C75.753 24.1571 75.6529 24.2772 75.5797 24.4112C75.5059 24.5452 75.4519 24.6857 75.4166 24.8326C75.3808 24.9792 75.3601 25.1287 75.3525 25.2805C75.3417 25.4321 75.3403 25.5791 75.3403 25.7208C75.3403 26.0192 75.3555 26.2912 75.3859 26.5365C75.4162 26.7822 75.51 27.0059 75.667 27.2085C75.8287 27.416 76.0048 27.5501 76.1944 27.6109C76.3841 27.6714 76.5629 27.7019 76.7297 27.7019H78.7058ZM75.7687 25.4625C75.7687 25.2729 75.7857 25.1032 75.8063 24.9553C75.8269 24.8083 75.8769 24.6694 75.9583 24.5391C76.0298 24.4238 76.1078 24.3341 76.1939 24.2683C76.2796 24.2038 76.3721 24.1558 76.4708 24.1254C76.5695 24.0961 76.6694 24.0775 76.7705 24.0698C76.8724 24.0622 76.9727 24.0584 77.0739 24.0584C77.165 24.0584 77.2562 24.0606 77.3471 24.066C77.4382 24.0714 77.5299 24.0847 77.6209 24.1074C77.712 24.129 77.7988 24.163 77.8825 24.2089C77.966 24.2531 78.0431 24.3189 78.1138 24.4034C78.1746 24.4781 78.2239 24.5581 78.2621 24.6402C78.3001 24.7226 78.3284 24.8022 78.3458 24.8768C78.3642 24.9515 78.3748 25.0198 78.3802 25.0791C78.3802 25.1399 78.3913 25.1842 78.3913 25.2147C78.3913 25.2297 78.3913 25.2524 78.3913 25.2817C78.3913 25.3069 78.3911 25.3333 78.3759 25.3613C78.3651 25.3892 78.3489 25.4121 78.3262 25.432C78.3034 25.4523 78.2695 25.4623 78.224 25.4623L75.7687 25.4625ZM82.4181 27.7019V27.3376H81.0059C80.9149 27.3376 80.8126 27.3311 80.6988 27.3185C80.5849 27.306 80.4723 27.2791 80.361 27.2389C80.2498 27.1984 80.1469 27.1391 80.0534 27.0578C79.9601 26.977 79.8828 26.8719 79.822 26.7403C79.7971 26.6798 79.7743 26.61 79.7537 26.5292C79.7331 26.448 79.7179 26.366 79.7082 26.2799C79.6973 26.1938 79.6908 26.109 79.6854 26.0269C79.6854 25.9433 79.6743 25.8661 79.6743 25.7967C79.6743 25.7358 79.6743 25.6638 79.6743 25.5802C79.6743 25.4981 79.6853 25.4133 79.6896 25.3272C79.7005 25.2424 79.7058 25.1577 79.7156 25.0743C79.7264 24.992 79.7385 24.9199 79.7537 24.8591C79.8296 24.5769 79.9747 24.3707 80.19 24.2391C80.4048 24.1091 80.6468 24.0429 80.9149 24.0429H82.3191V23.6787H80.9604C80.6469 23.6787 80.3889 23.7243 80.1863 23.8155C79.984 23.9066 79.8243 24.0101 79.7082 24.1266C79.6073 24.233 79.5256 24.3519 79.4651 24.4835C79.4044 24.615 79.3591 24.7515 79.3285 24.8933C79.2981 25.035 79.2794 25.1779 79.2719 25.322C79.261 25.4665 79.2602 25.6067 79.2602 25.7434C79.2602 25.86 79.2599 25.9802 79.2708 26.104C79.2708 26.228 79.2893 26.3533 79.3121 26.4796C79.3349 26.6063 79.3708 26.7302 79.4185 26.8516C79.4662 26.973 79.5334 27.0871 79.6192 27.1934C79.6647 27.249 79.7223 27.306 79.7902 27.3641C79.8585 27.4221 79.9408 27.4765 80.037 27.5273C80.1324 27.578 80.2448 27.6194 80.3711 27.6524C80.4977 27.6852 80.6417 27.7019 80.8037 27.7019H82.4181ZM86.1225 27.7019L84.1564 25.8498C84.1315 25.8243 84.1041 25.7902 84.077 25.7471C84.0488 25.7042 84.0357 25.6651 84.0357 25.6298C84.0357 25.579 84.0575 25.5295 84.0998 25.4815C84.1432 25.4336 84.177 25.3967 84.202 25.3715L85.9933 23.6787H85.4542L83.9213 25.1059C83.8552 25.1665 83.7866 25.245 83.7159 25.3411C83.6443 25.4373 83.61 25.5335 83.61 25.6298C83.61 25.6903 83.6272 25.7613 83.663 25.8421C83.6987 25.923 83.7659 26.0115 83.8679 26.1076L85.5607 27.7019H86.1225ZM83.4199 27.7019V23.6787H83.0254V27.7019H83.4199ZM89.7887 27.7019V24.0961C89.7887 24.0661 89.7884 24.0255 89.7776 23.9748C89.7776 23.9244 89.759 23.8736 89.7363 23.8228C89.7135 23.7725 89.6791 23.7282 89.6335 23.6901C89.588 23.6523 89.5221 23.6333 89.436 23.6333C89.2591 23.6333 89.1199 23.7141 89.0188 23.8761L86.9469 27.1781C86.9111 27.2438 86.8838 27.2768 86.8632 27.2768C86.8383 27.2768 86.8241 27.2654 86.8219 27.2426C86.8219 27.2198 86.8219 27.1984 86.8219 27.1781V23.6787H86.4275V27.3299C86.4275 27.4615 86.4588 27.5638 86.5217 27.6374C86.5846 27.7108 86.6747 27.7473 86.7912 27.7473C86.8921 27.7473 86.9736 27.7247 87.0343 27.6791C87.095 27.6337 87.158 27.5601 87.2238 27.4591L89.2735 24.2025C89.2984 24.1619 89.3177 24.1368 89.3296 24.1266C89.3426 24.1168 89.3512 24.1115 89.3566 24.1115C89.3816 24.1115 89.3947 24.1213 89.3947 24.142C89.3947 24.157 89.3947 24.1773 89.3947 24.2025V27.7019H89.7887ZM93.7583 27.7019V27.3376H91.7849C91.6533 27.3376 91.5371 27.316 91.4359 27.2731C91.3351 27.23 91.2474 27.1768 91.1738 27.1111C91.1001 27.0453 91.04 26.9705 90.9917 26.8885C90.944 26.8048 90.9096 26.7226 90.89 26.643C90.8597 26.5366 90.8389 26.4037 90.8291 26.242C90.8183 26.0813 90.8159 25.9433 90.818 25.827H93.2701C93.3254 25.827 93.3951 25.8206 93.4787 25.8081C93.5622 25.7954 93.6339 25.7613 93.6948 25.7054C93.7653 25.6395 93.8111 25.5588 93.8314 25.4625C93.852 25.3663 93.8621 25.2778 93.8621 25.1969C93.8621 24.873 93.7988 24.6061 93.672 24.3962C93.5453 24.1862 93.3937 24.0279 93.2166 23.9215C93.0546 23.8256 92.8789 23.7635 92.6893 23.7355C92.4993 23.7079 92.3338 23.6941 92.1921 23.6941C91.9898 23.6941 91.7744 23.7156 91.5466 23.7583C91.3189 23.8014 91.1142 23.8989 90.9319 24.0507C90.8055 24.1571 90.7054 24.2772 90.6322 24.4112C90.5584 24.5452 90.5044 24.6857 90.4691 24.8326C90.4333 24.9792 90.4126 25.1287 90.404 25.2805C90.3931 25.4321 90.3928 25.5791 90.3928 25.7208C90.3928 26.0192 90.408 26.2912 90.4384 26.5365C90.4687 26.7822 90.5625 27.0059 90.7195 27.2085C90.8812 27.416 91.0573 27.5501 91.2469 27.6109C91.4366 27.6714 91.6153 27.7019 91.7822 27.7019H93.7583ZM90.8212 25.4625C90.8212 25.2729 90.8387 25.1032 90.8593 24.9553C90.8799 24.8083 90.9305 24.6694 91.0108 24.5391C91.0812 24.4238 91.1604 24.3341 91.2464 24.2683C91.3321 24.2038 91.4246 24.1558 91.5233 24.1254C91.622 24.0961 91.7219 24.0775 91.823 24.0698C91.9249 24.0622 92.0258 24.0584 92.1269 24.0584C92.218 24.0584 92.3092 24.0606 92.4002 24.066C92.4912 24.0714 92.5824 24.0847 92.6734 24.1074C92.7645 24.129 92.8513 24.163 92.9349 24.2089C93.0184 24.2531 93.0956 24.3189 93.1663 24.4034C93.2271 24.4781 93.2764 24.5581 93.3146 24.6402C93.3526 24.7226 93.3809 24.8022 93.3983 24.8768C93.4156 24.9515 93.4278 25.0198 93.4332 25.0791C93.4332 25.1399 93.4438 25.1842 93.4438 25.2147C93.4438 25.2297 93.4438 25.2524 93.4438 25.2817C93.4438 25.3069 93.4436 25.3333 93.4284 25.3613C93.4176 25.3892 93.4014 25.4121 93.3787 25.432C93.3559 25.4523 93.3225 25.4623 93.277 25.4623L90.8212 25.4625ZM99.6034 27.7019V24.0961C99.6034 24.0661 99.6037 24.0255 99.5928 23.9748C99.5928 23.9244 99.5743 23.8736 99.5515 23.8228C99.5287 23.7725 99.4943 23.7282 99.4488 23.6901C99.4033 23.6523 99.3373 23.6333 99.2513 23.6333C99.0742 23.6333 98.9352 23.7141 98.8341 23.8761L96.7616 27.1781C96.7258 27.2438 96.6991 27.2768 96.6785 27.2768C96.6535 27.2768 96.6394 27.2654 96.6361 27.2426C96.6361 27.2198 96.6361 27.1984 96.6361 27.1781V23.6787H96.2411V27.3299C96.2411 27.4615 96.273 27.5638 96.3359 27.6374C96.3988 27.7108 96.4888 27.7473 96.6054 27.7473C96.7063 27.7473 96.7874 27.7247 96.8479 27.6791C96.9086 27.6337 96.9722 27.5601 97.038 27.4591L99.0872 24.2025C99.1121 24.1619 99.1319 24.1368 99.1438 24.1266C99.1568 24.1168 99.1654 24.1115 99.1708 24.1115C99.1958 24.1115 99.2089 24.1213 99.2089 24.142C99.2089 24.157 99.2089 24.1773 99.2089 24.2025V27.7019H99.6034ZM105.297 22.7528V22.3883H103.528C103.301 22.3883 103.077 22.4379 102.857 22.5365C102.636 22.6351 102.463 22.7907 102.336 23.003C102.24 23.165 102.182 23.3307 102.162 23.5004C102.141 23.6698 102.131 23.8205 102.131 23.952V26.0622C102.131 26.2243 102.142 26.39 102.162 26.5596C102.183 26.729 102.243 26.8998 102.344 27.0717C102.435 27.2337 102.544 27.3591 102.67 27.4477C102.797 27.5362 102.927 27.6032 103.062 27.6486C103.196 27.6942 103.329 27.7221 103.463 27.7323C103.598 27.7421 103.718 27.7473 103.824 27.7473C103.936 27.7473 104.057 27.7408 104.189 27.7283C104.32 27.7156 104.452 27.688 104.583 27.6449C104.715 27.602 104.84 27.5387 104.959 27.4551C105.078 27.3717 105.183 27.2564 105.274 27.1098C105.39 26.9174 105.467 26.6912 105.502 26.4305C105.538 26.1698 105.555 25.9104 105.555 25.6524C105.555 25.4348 105.541 25.2059 105.514 24.9655C105.485 24.725 105.412 24.5087 105.29 24.3162C105.208 24.1899 105.114 24.0848 105.005 24.0014C104.896 23.9178 104.781 23.8521 104.66 23.8042C104.538 23.756 104.416 23.723 104.292 23.7055C104.168 23.6876 104.05 23.6787 103.938 23.6787H102.527C102.527 23.5586 102.557 23.4396 102.603 23.3207C102.649 23.2032 102.714 23.1017 102.8 23.0161C102.886 22.9311 102.996 22.8654 103.13 22.8211C103.264 22.7756 103.405 22.7528 103.551 22.7528H105.297ZM102.526 24.0429H103.961C104.183 24.0429 104.363 24.0721 104.5 24.1302C104.636 24.1874 104.743 24.2569 104.818 24.3378C104.894 24.4189 104.954 24.5087 104.997 24.6098C105.04 24.7113 105.072 24.8149 105.092 24.9236C105.112 25.0312 105.123 25.1437 105.126 25.2602C105.126 25.3751 105.126 25.4893 105.126 25.5993C105.126 25.7155 105.126 25.8409 105.115 25.9738C105.115 26.1077 105.098 26.2393 105.077 26.3709C105.057 26.5012 105.026 26.6254 104.986 26.7403C104.946 26.8568 104.893 26.9555 104.827 27.0352C104.756 27.116 104.676 27.1805 104.588 27.2287C104.499 27.2755 104.408 27.3109 104.314 27.3336C104.221 27.3564 104.128 27.3704 104.037 27.3753C103.946 27.3807 103.868 27.3829 103.802 27.3829C103.711 27.3829 103.615 27.3775 103.514 27.3676C103.412 27.3579 103.314 27.3362 103.218 27.3033C103.121 27.2705 103.031 27.2262 102.945 27.1678C102.859 27.1096 102.785 27.035 102.724 26.9452C102.653 26.8441 102.601 26.7211 102.569 26.5782C102.536 26.4341 102.52 26.2899 102.52 26.1429L102.526 24.0429ZM109.624 23.6941H109.198L107.62 27.2085L106.132 23.6787H105.707L107.407 27.6791L106.8 29H107.225L109.624 23.6941ZM112.895 27.7019L111.407 25.6371L112.827 23.6787H112.364L111.183 25.3411L110.003 23.6787H109.54L110.967 25.6371L109.472 27.7019H109.95L111.183 25.9331L112.417 27.7019H112.895ZM113.586 27.7019V24.3317C113.586 24.3064 113.586 24.2695 113.586 24.2216C113.586 24.1733 113.602 24.1342 113.628 24.1038C113.659 24.0632 113.714 24.0429 113.795 24.0429H116.209V23.6787H113.643C113.572 23.6787 113.5 23.6901 113.427 23.7129C113.353 23.7355 113.294 23.7876 113.249 23.8687C113.213 23.9243 113.194 23.9873 113.192 24.0584C113.192 24.1291 113.192 24.1948 113.192 24.2557V27.7019H113.586ZM116.668 23.6787V24.0429H118.619C118.715 24.0429 118.799 24.0609 118.873 24.0949C118.947 24.1303 119.003 24.1733 119.043 24.2228C119.093 24.2834 119.132 24.3608 119.157 24.4555C119.182 24.5505 119.195 24.6301 119.195 24.6959V25.2879H117.45C117.333 25.2879 117.207 25.3006 117.07 25.326C116.933 25.3512 116.809 25.4093 116.698 25.5018C116.551 25.6233 116.459 25.7711 116.421 25.9473C116.383 26.1219 116.365 26.29 116.365 26.4533C116.365 26.5138 116.364 26.5909 116.375 26.6847C116.375 26.7797 116.395 26.8756 116.421 26.9742C116.446 27.0732 116.482 27.1731 116.527 27.2718C116.573 27.3705 116.64 27.4525 116.726 27.5195C116.837 27.6056 116.957 27.6576 117.086 27.6754C117.216 27.693 117.34 27.7019 117.456 27.7019H119.008C119.078 27.7019 119.157 27.6965 119.243 27.6868C119.329 27.677 119.404 27.6437 119.465 27.5881C119.531 27.5273 119.57 27.4565 119.582 27.3753C119.595 27.2945 119.601 27.2264 119.601 27.1704V24.7641C119.601 24.6427 119.587 24.5075 119.559 24.3581C119.53 24.209 119.462 24.0758 119.354 23.9597C119.271 23.8736 119.166 23.8054 119.04 23.7546C118.913 23.7039 118.782 23.6787 118.645 23.6787H116.668ZM119.188 25.6524V27.1565C119.188 27.1818 119.188 27.2033 119.177 27.2236C119.177 27.2438 119.156 27.2666 119.131 27.2921C119.106 27.3173 119.077 27.3311 119.043 27.3336C119.011 27.3369 118.982 27.3379 118.956 27.3379H117.339C117.253 27.3379 117.176 27.3213 117.107 27.2884C117.039 27.2555 116.985 27.2138 116.944 27.1645C116.874 27.0784 116.829 26.9708 116.811 26.843C116.794 26.7142 116.786 26.59 116.786 26.4686C116.786 26.3281 116.796 26.2055 116.811 26.102C116.829 25.9993 116.863 25.9146 116.913 25.8489C116.944 25.8084 116.996 25.7666 117.069 25.7211C117.143 25.6756 117.237 25.6527 117.354 25.6527L119.188 25.6524ZM119.894 27.7019H120.334L121.723 24.1798C121.733 24.1546 121.743 24.1278 121.753 24.1001C121.764 24.0722 121.778 24.0584 121.799 24.0584C121.819 24.0584 121.835 24.0722 121.844 24.1001C121.855 24.1278 121.865 24.1546 121.875 24.1798L123.264 27.7019H123.704L122.193 23.952C122.133 23.8054 122.062 23.7156 121.981 23.6828C121.901 23.6499 121.839 23.6333 121.799 23.6333C121.759 23.6333 121.698 23.6499 121.617 23.6828C121.535 23.7156 121.465 23.8054 121.404 23.952L119.894 27.7019ZM125.466 27.7019V24.0429H126.984V23.6787H123.552V24.0429H125.071V27.7019H125.466ZM130.498 27.7019V27.3376H128.524C128.393 27.3376 128.277 27.316 128.176 27.2731C128.075 27.23 127.987 27.1768 127.913 27.1111C127.84 27.0453 127.78 26.9705 127.731 26.8885C127.684 26.8048 127.649 26.7226 127.629 26.643C127.599 26.5366 127.578 26.4037 127.568 26.242C127.557 26.0813 127.555 25.9433 127.558 25.827H130.009C130.064 25.827 130.135 25.8206 130.218 25.8081C130.302 25.7954 130.373 25.7613 130.434 25.7054C130.505 25.6395 130.551 25.5588 130.571 25.4625C130.592 25.3663 130.601 25.2778 130.601 25.1969C130.601 24.873 130.538 24.6061 130.412 24.3962C130.285 24.1862 130.133 24.0279 129.956 23.9215C129.794 23.8256 129.618 23.7635 129.428 23.7355C129.238 23.7079 129.073 23.6941 128.931 23.6941C128.729 23.6941 128.514 23.7156 128.286 23.7583C128.058 23.8014 127.854 23.8989 127.671 24.0507C127.545 24.1571 127.445 24.2772 127.372 24.4112C127.298 24.5452 127.243 24.6857 127.208 24.8326C127.172 24.9792 127.151 25.1287 127.143 25.2805C127.132 25.4321 127.132 25.5791 127.132 25.7208C127.132 26.0192 127.148 26.2912 127.178 26.5365C127.208 26.7822 127.302 27.0059 127.459 27.2085C127.621 27.416 127.797 27.5501 127.986 27.6109C128.176 27.6714 128.354 27.7019 128.521 27.7019H130.498ZM127.56 25.4625C127.56 25.2729 127.578 25.1032 127.598 24.9553C127.619 24.8083 127.669 24.6694 127.75 24.5391C127.821 24.4238 127.9 24.3341 127.986 24.2683C128.072 24.2038 128.164 24.1558 128.263 24.1254C128.362 24.0961 128.461 24.0775 128.563 24.0698C128.663 24.0622 128.765 24.0584 128.866 24.0584C128.957 24.0584 129.048 24.0606 129.139 24.066C129.23 24.0714 129.321 24.0847 129.412 24.1074C129.503 24.129 129.591 24.163 129.675 24.2089C129.758 24.2531 129.835 24.3189 129.906 24.4034C129.967 24.4781 130.016 24.5581 130.054 24.6402C130.092 24.7226 130.12 24.8022 130.138 24.8768C130.155 24.9515 130.167 25.0198 130.171 25.0791C130.171 25.1399 130.182 25.1842 130.182 25.2147C130.182 25.2297 130.182 25.2524 130.182 25.2817C130.182 25.3069 130.182 25.3333 130.167 25.3613C130.156 25.3892 130.14 25.4121 130.117 25.432C130.094 25.4523 130.061 25.4623 130.015 25.4623L127.56 25.4625ZM131.606 27.7019H132.745C132.871 27.7019 133.001 27.6953 133.136 27.6828C133.27 27.6702 133.399 27.6438 133.523 27.6032C133.647 27.5627 133.765 27.5033 133.876 27.4249C133.987 27.3462 134.086 27.239 134.172 27.1021C134.314 26.8898 134.401 26.6542 134.434 26.3964C134.466 26.1382 134.484 25.8827 134.484 25.6298C134.484 25.5132 134.484 25.3906 134.472 25.2615C134.461 25.1324 134.448 25.002 134.422 24.8705C134.397 24.7389 134.354 24.6111 134.296 24.4871C134.238 24.3633 134.161 24.248 134.065 24.142C134.014 24.0912 133.954 24.0381 133.883 23.9825C133.812 23.9268 133.727 23.8761 133.629 23.8306C133.53 23.7851 133.417 23.7485 133.291 23.7206C133.164 23.6926 133.022 23.6787 132.866 23.6787H131.849C131.793 23.6787 131.724 23.6852 131.64 23.6978C131.556 23.7104 131.477 23.7445 131.401 23.8002C131.37 23.8257 131.331 23.8687 131.283 23.9292C131.235 23.9902 131.212 24.0734 131.212 24.1798V28.9923H131.606V27.7019ZM131.606 27.3376V24.2391C131.606 24.2139 131.606 24.1899 131.618 24.1684C131.629 24.1457 131.642 24.1217 131.667 24.0961C131.682 24.0863 131.702 24.0747 131.725 24.0621C131.747 24.0495 131.769 24.0429 131.788 24.0429H132.95C133.137 24.0429 133.321 24.0875 133.5 24.1761C133.68 24.2634 133.821 24.4137 133.922 24.6252C133.993 24.7807 134.036 24.9529 134.051 25.1389C134.066 25.3248 134.074 25.5068 134.074 25.6826C134.074 25.899 134.06 26.113 134.035 26.3253C134.01 26.5366 133.944 26.7225 133.838 26.8846C133.777 26.9742 133.708 27.049 133.629 27.1074C133.551 27.1654 133.47 27.211 133.386 27.2463C133.303 27.282 133.219 27.306 133.136 27.3185C133.052 27.3311 132.975 27.3376 132.904 27.3376H131.606ZM138.089 27.7019V27.3376H136.677C136.586 27.3376 136.483 27.3311 136.369 27.3185C136.255 27.306 136.143 27.2791 136.032 27.2389C135.92 27.1984 135.818 27.1391 135.725 27.0578C135.631 26.977 135.553 26.8719 135.493 26.7403C135.468 26.6798 135.445 26.61 135.424 26.5292C135.404 26.448 135.389 26.366 135.379 26.2799C135.368 26.1938 135.361 26.109 135.356 26.0269C135.356 25.9433 135.345 25.8661 135.345 25.7967C135.345 25.7358 135.345 25.6638 135.345 25.5802C135.345 25.4981 135.356 25.4133 135.36 25.3272C135.371 25.2424 135.376 25.1577 135.386 25.0743C135.397 24.992 135.409 24.9199 135.424 24.8591C135.5 24.5769 135.646 24.3707 135.861 24.2391C136.076 24.1091 136.318 24.0429 136.586 24.0429H137.99V23.6787H136.631C136.318 23.6787 136.059 23.7243 135.857 23.8155C135.655 23.9066 135.495 24.0101 135.379 24.1266C135.278 24.233 135.197 24.3519 135.136 24.4835C135.076 24.615 135.03 24.7515 134.999 24.8933C134.969 25.035 134.951 25.1779 134.943 25.322C134.932 25.4665 134.931 25.6067 134.931 25.7434C134.931 25.86 134.931 25.9802 134.942 26.104C134.942 26.228 134.96 26.3533 134.983 26.4796C135.006 26.6063 135.041 26.7302 135.089 26.8516C135.137 26.973 135.205 27.0871 135.29 27.1934C135.336 27.249 135.393 27.306 135.461 27.3641C135.53 27.4221 135.612 27.4765 135.708 27.5273C135.805 27.578 135.916 27.6194 136.042 27.6524C136.169 27.6852 136.313 27.7019 136.475 27.7019H138.089Z" fill="#5C1E21"/>
<path fill-rule="evenodd" clip-rule="evenodd" d="M141.793 27.7019L139.827 25.8498C139.802 25.8243 139.775 25.7902 139.748 25.7471C139.72 25.7042 139.707 25.6651 139.707 25.6298C139.707 25.579 139.729 25.5295 139.771 25.4815C139.814 25.4336 139.848 25.3967 139.873 25.3715L141.665 23.6787H141.126L139.592 25.1059C139.526 25.1665 139.458 25.245 139.387 25.3411C139.316 25.4373 139.281 25.5335 139.281 25.6298C139.281 25.6903 139.299 25.7613 139.334 25.8421C139.37 25.923 139.437 26.0115 139.539 26.1076L141.231 27.7019H141.793ZM139.091 27.7019V23.6787H138.697V27.7019H139.091ZM145.459 27.7019V24.0961C145.459 24.0661 145.46 24.0255 145.449 23.9748C145.449 23.9244 145.43 23.8736 145.408 23.8228C145.385 23.7725 145.35 23.7282 145.305 23.6901C145.259 23.6523 145.193 23.6333 145.107 23.6333C144.93 23.6333 144.791 23.7141 144.69 23.8761L142.618 27.1781C142.582 27.2438 142.555 27.2768 142.534 27.2768C142.509 27.2768 142.495 27.2654 142.493 27.2426C142.493 27.2198 142.493 27.1984 142.493 27.1781V23.6787H142.098V27.3299C142.098 27.4615 142.13 27.5638 142.193 27.6374C142.255 27.7108 142.346 27.7473 142.462 27.7473C142.563 27.7473 142.644 27.7247 142.705 27.6791C142.766 27.6337 142.829 27.5601 142.895 27.4591L144.944 24.2025C144.969 24.1619 144.989 24.1368 145.001 24.1266C145.014 24.1168 145.023 24.1115 145.028 24.1115C145.053 24.1115 145.066 24.1213 145.066 24.142C145.066 24.157 145.066 24.1773 145.066 24.2025V27.7019H145.459ZM149.43 27.7019V27.3376H147.456C147.325 27.3376 147.208 27.316 147.107 27.2731C147.006 27.23 146.919 27.1768 146.845 27.1111C146.771 27.0453 146.711 26.9705 146.663 26.8885C146.615 26.8048 146.58 26.7226 146.561 26.643C146.53 26.5366 146.51 26.4037 146.5 26.242C146.489 26.0813 146.487 25.9433 146.489 25.827H148.941C148.996 25.827 149.066 25.8206 149.15 25.8081C149.234 25.7954 149.305 25.7613 149.366 25.7054C149.437 25.6395 149.482 25.5588 149.503 25.4625C149.523 25.3663 149.533 25.2778 149.533 25.1969C149.533 24.873 149.47 24.6061 149.343 24.3962C149.217 24.1862 149.065 24.0279 148.888 23.9215C148.726 23.8256 148.55 23.7635 148.361 23.7355C148.171 23.7079 148.005 23.6941 147.863 23.6941C147.661 23.6941 147.446 23.7156 147.218 23.7583C146.99 23.8014 146.785 23.8989 146.603 24.0507C146.477 24.1571 146.377 24.2772 146.304 24.4112C146.23 24.5452 146.175 24.6857 146.14 24.8326C146.104 24.9792 146.083 25.1287 146.075 25.2805C146.064 25.4321 146.064 25.5791 146.064 25.7208C146.064 26.0192 146.079 26.2912 146.11 26.5365C146.14 26.7822 146.234 27.0059 146.391 27.2085C146.553 27.416 146.729 27.5501 146.918 27.6109C147.108 27.6714 147.286 27.7019 147.453 27.7019H149.43ZM146.492 25.4625C146.492 25.2729 146.51 25.1032 146.53 24.9553C146.551 24.8083 146.602 24.6694 146.682 24.5391C146.753 24.4238 146.831 24.3341 146.917 24.2683C147.003 24.2038 147.096 24.1558 147.195 24.1254C147.293 24.0961 147.393 24.0775 147.494 24.0698C147.596 24.0622 147.697 24.0584 147.798 24.0584C147.889 24.0584 147.98 24.0606 148.071 24.066C148.162 24.0714 148.253 24.0847 148.344 24.1074C148.435 24.129 148.523 24.163 148.606 24.2089C148.69 24.2531 148.767 24.3189 148.838 24.4034C148.898 24.4781 148.948 24.5581 148.986 24.6402C149.024 24.7226 149.052 24.8022 149.07 24.8768C149.087 24.9515 149.099 25.0198 149.104 25.0791C149.104 25.1399 149.115 25.1842 149.115 25.2147C149.115 25.2297 149.115 25.2524 149.115 25.2817C149.115 25.3069 149.115 25.3333 149.1 25.3613C149.089 25.3892 149.073 25.4121 149.05 25.432C149.027 25.4523 148.993 25.4623 148.948 25.4623L146.492 25.4625ZM155.373 23.6941H154.948L153.37 27.2085L151.882 23.6787H151.457L153.157 27.6791L152.55 29H152.975L155.373 23.6941ZM158.675 27.7019V27.3376H157.264C157.172 27.3376 157.07 27.3311 156.956 27.3185C156.842 27.306 156.729 27.2791 156.618 27.2389C156.507 27.1984 156.404 27.1391 156.311 27.0578C156.218 26.977 156.14 26.8719 156.079 26.7403C156.054 26.6798 156.031 26.61 156.011 26.5292C155.99 26.448 155.975 26.366 155.965 26.2799C155.954 26.1938 155.948 26.109 155.942 26.0269C155.942 25.9433 155.932 25.8661 155.932 25.7967C155.932 25.7358 155.932 25.6638 155.932 25.5802C155.932 25.4981 155.942 25.4133 155.947 25.3272C155.958 25.2424 155.963 25.1577 155.973 25.0743C155.984 24.992 155.996 24.9199 156.011 24.8591C156.087 24.5769 156.232 24.3707 156.448 24.2391C156.662 24.1091 156.904 24.0429 157.172 24.0429H158.577V23.6787H157.217C156.904 23.6787 156.646 23.7243 156.443 23.8155C156.241 23.9066 156.081 24.0101 155.965 24.1266C155.864 24.233 155.783 24.3519 155.723 24.4835C155.662 24.615 155.616 24.7515 155.586 24.8933C155.555 25.035 155.537 25.1779 155.529 25.322C155.519 25.4665 155.517 25.6067 155.517 25.7434C155.517 25.86 155.518 25.9802 155.528 26.104C155.528 26.228 155.546 26.3533 155.569 26.4796C155.592 26.6063 155.628 26.7302 155.676 26.8516C155.723 26.973 155.791 27.0871 155.877 27.1934C155.922 27.249 155.98 27.306 156.048 27.3641C156.116 27.4221 156.198 27.4765 156.295 27.5273C156.39 27.578 156.502 27.6194 156.628 27.6524C156.755 27.6852 156.899 27.7019 157.061 27.7019H158.675ZM158.827 27.7019H159.268L160.657 24.1798C160.667 24.1546 160.677 24.1278 160.687 24.1001C160.698 24.0722 160.712 24.0584 160.732 24.0584C160.753 24.0584 160.768 24.0722 160.778 24.1001C160.789 24.1278 160.799 24.1546 160.809 24.1798L162.197 27.7019H162.638L161.127 23.952C161.067 23.8054 160.996 23.7156 160.915 23.6828C160.834 23.6499 160.773 23.6333 160.732 23.6333C160.692 23.6333 160.632 23.6499 160.551 23.6828C160.469 23.7156 160.399 23.8054 160.338 23.952L158.827 27.7019ZM166.403 23.6941H165.978L164.399 27.2085L162.911 23.6787H162.486L164.187 27.6791L163.579 29H164.005L166.403 23.6941ZM167.102 27.7019V24.3317C167.102 24.3064 167.102 24.2695 167.102 24.2216C167.102 24.1733 167.117 24.1342 167.143 24.1038C167.174 24.0632 167.229 24.0429 167.311 24.0429H169.725V23.6787H167.159C167.088 23.6787 167.016 23.6901 166.943 23.7129C166.869 23.7355 166.81 23.7876 166.764 23.8687C166.728 23.9243 166.71 23.9873 166.708 24.0584C166.708 24.1291 166.708 24.1948 166.708 24.2557V27.7019H167.102ZM173.394 27.7019V24.0961C173.394 24.0661 173.394 24.0255 173.383 23.9748C173.383 23.9244 173.364 23.8736 173.342 23.8228C173.319 23.7725 173.284 23.7282 173.239 23.6901C173.193 23.6523 173.127 23.6333 173.041 23.6333C172.864 23.6333 172.725 23.7141 172.624 23.8761L170.552 27.1781C170.516 27.2438 170.489 27.2768 170.469 27.2768C170.444 27.2768 170.43 27.2654 170.426 27.2426C170.426 27.2198 170.426 27.1984 170.426 27.1781V23.6787H170.031V27.3299C170.031 27.4615 170.063 27.5638 170.126 27.6374C170.189 27.7108 170.279 27.7473 170.396 27.7473C170.496 27.7473 170.578 27.7247 170.638 27.6791C170.699 27.6337 170.762 27.5601 170.828 27.4591L172.878 24.2025C172.903 24.1619 172.922 24.1368 172.934 24.1266C172.947 24.1168 172.956 24.1115 172.961 24.1115C172.986 24.1115 172.999 24.1213 172.999 24.142C172.999 24.157 172.999 24.1773 172.999 24.2025V27.7019H173.394ZM175.793 27.3376H175.467V27.7019H179.58V27.3376H179.254L177.956 23.9811C177.93 23.9114 177.885 23.8359 177.82 23.7546C177.753 23.6738 177.655 23.6333 177.524 23.6333C177.392 23.6333 177.293 23.6738 177.228 23.7546C177.161 23.8359 177.116 23.9114 177.091 23.9811L175.793 27.3376ZM177.433 24.142C177.443 24.1217 177.455 24.0974 177.47 24.0698C177.485 24.0418 177.503 24.0279 177.524 24.0279C177.544 24.0279 177.561 24.0418 177.577 24.0698C177.592 24.0974 177.605 24.1217 177.615 24.142L178.844 27.3376H176.203L177.433 24.142ZM179.429 27.7019H179.869L181.258 24.1798C181.269 24.1546 181.279 24.1278 181.288 24.1001C181.299 24.0722 181.313 24.0584 181.334 24.0584C181.354 24.0584 181.37 24.0722 181.379 24.1001C181.39 24.1278 181.4 24.1546 181.41 24.1798L182.799 27.7019H183.239L181.728 23.952C181.668 23.8054 181.597 23.7156 181.516 23.6828C181.435 23.6499 181.374 23.6333 181.334 23.6333C181.294 23.6333 181.233 23.6499 181.152 23.6828C181.07 23.7156 181 23.8054 180.939 23.952L179.429 27.7019ZM183.391 27.7019H183.922L185.448 26.2457C185.488 26.2052 185.517 26.1621 185.532 26.1167C185.547 26.0711 185.554 26.0281 185.554 25.9875C185.554 25.8852 185.52 25.8219 185.452 25.7967C185.383 25.7711 185.316 25.7585 185.251 25.7585H184.507C184.416 25.7585 184.328 25.7447 184.244 25.7171C184.161 25.6891 184.089 25.6208 184.028 25.5108C183.993 25.445 183.967 25.3626 183.952 25.2615C183.937 25.1615 183.929 25.026 183.929 24.8554C183.929 24.7555 183.93 24.6504 183.945 24.5404C183.956 24.429 183.988 24.3316 184.043 24.2467C184.099 24.1607 184.16 24.1063 184.225 24.0811C184.292 24.0559 184.359 24.0429 184.43 24.0429H186.047C186.093 24.0429 186.139 24.0441 186.184 24.0473C186.23 24.0495 186.267 24.0688 186.298 24.1041C186.323 24.1346 186.337 24.1724 186.339 24.2179C186.339 24.2638 186.339 24.3015 186.339 24.332V27.7022H186.734V24.2938C186.734 24.213 186.733 24.1269 186.718 24.0359C186.707 23.9446 186.669 23.8662 186.597 23.8005C186.536 23.7449 186.464 23.7107 186.381 23.6981C186.298 23.6855 186.215 23.6791 186.134 23.6791H184.434C184.292 23.6791 184.163 23.7042 184.046 23.755C183.93 23.8057 183.837 23.869 183.766 23.9446C183.649 24.0713 183.576 24.2194 183.546 24.3888C183.515 24.5585 183.5 24.719 183.5 24.8708C183.5 25.0076 183.511 25.1579 183.53 25.3223C183.551 25.4868 183.608 25.6375 183.705 25.7742C183.816 25.931 183.94 26.0284 184.077 26.0663C184.213 26.1043 184.348 26.1234 184.479 26.1234H184.912C184.923 26.1234 184.935 26.1245 184.95 26.1266C184.965 26.1288 184.973 26.1429 184.973 26.1685C184.973 26.1836 184.962 26.1973 184.953 26.2102C184.94 26.2228 184.924 26.2392 184.904 26.2595L183.391 27.7019ZM192.432 22.7528V22.3883H190.663C190.436 22.3883 190.212 22.4379 189.992 22.5365C189.772 22.6351 189.598 22.7907 189.471 23.003C189.376 23.165 189.317 23.3307 189.297 23.5004C189.277 23.6698 189.266 23.8205 189.266 23.952V26.0622C189.266 26.2243 189.277 26.39 189.297 26.5596C189.318 26.729 189.378 26.8998 189.479 27.0717C189.57 27.2337 189.679 27.3591 189.805 27.4477C189.932 27.5362 190.062 27.6032 190.197 27.6486C190.331 27.6942 190.464 27.7221 190.598 27.7323C190.733 27.7421 190.853 27.7473 190.959 27.7473C191.071 27.7473 191.192 27.7408 191.324 27.7283C191.455 27.7156 191.587 27.688 191.718 27.6449C191.85 27.602 191.975 27.5387 192.094 27.4551C192.213 27.3717 192.318 27.2564 192.409 27.1098C192.526 26.9174 192.602 26.6912 192.637 26.4305C192.673 26.1698 192.69 25.9104 192.69 25.6524C192.69 25.4348 192.676 25.2059 192.648 24.9655C192.619 24.725 192.546 24.5087 192.424 24.3162C192.342 24.1899 192.248 24.0848 192.139 24.0014C192.031 23.9178 191.915 23.8521 191.794 23.8042C191.673 23.756 191.549 23.723 191.426 23.7055C191.302 23.6876 191.184 23.6787 191.073 23.6787H189.661C189.661 23.5586 189.691 23.4396 189.737 23.3207C189.782 23.2032 189.848 23.1017 189.934 23.0161C190.02 22.9311 190.13 22.8654 190.264 22.8211C190.398 22.7756 190.539 22.7528 190.685 22.7528H192.432ZM189.661 24.0429H191.096C191.318 24.0429 191.498 24.0721 191.635 24.1302C191.771 24.1874 191.878 24.2569 191.953 24.3378C192.029 24.4189 192.089 24.5087 192.132 24.6098C192.175 24.7113 192.207 24.8149 192.227 24.9236C192.247 25.0312 192.258 25.1437 192.261 25.2602C192.261 25.3751 192.261 25.4893 192.261 25.5993C192.261 25.7155 192.261 25.8409 192.25 25.9738C192.25 26.1077 192.233 26.2393 192.212 26.3709C192.192 26.5012 192.161 26.6254 192.121 26.7403C192.081 26.8568 192.028 26.9555 191.962 27.0352C191.891 27.116 191.812 27.1805 191.723 27.2287C191.634 27.2755 191.543 27.3109 191.45 27.3336C191.356 27.3564 191.263 27.3704 191.172 27.3753C191.081 27.3807 191.003 27.3829 190.937 27.3829C190.846 27.3829 190.75 27.3775 190.649 27.3676C190.547 27.3579 190.449 27.3362 190.353 27.3033C190.256 27.2705 190.166 27.2262 190.08 27.1678C189.994 27.1096 189.92 27.035 189.859 26.9452C189.789 26.8441 189.736 26.7211 189.704 26.5782C189.671 26.4341 189.655 26.2899 189.655 26.1429L189.661 24.0429ZM196.66 27.7019V24.0961C196.66 24.0661 196.66 24.0255 196.649 23.9748C196.649 23.9244 196.63 23.8736 196.608 23.8228C196.585 23.7725 196.551 23.7282 196.505 23.6901C196.459 23.6523 196.394 23.6333 196.307 23.6333C196.13 23.6333 195.991 23.7141 195.89 23.8761L193.818 27.1781C193.782 27.2438 193.755 27.2768 193.735 27.2768C193.71 27.2768 193.696 27.2654 193.693 27.2426C193.693 27.2198 193.693 27.1984 193.693 27.1781V23.6787H193.298V27.3299C193.298 27.4615 193.33 27.5638 193.393 27.6374C193.455 27.7108 193.546 27.7473 193.663 27.7473C193.763 27.7473 193.845 27.7247 193.905 27.6791C193.966 27.6337 194.03 27.5601 194.095 27.4591L196.144 24.2025C196.169 24.1619 196.189 24.1368 196.201 24.1266C196.214 24.1168 196.223 24.1115 196.228 24.1115C196.253 24.1115 196.266 24.1213 196.266 24.142C196.266 24.157 196.266 24.1773 196.266 24.2025V27.7019H196.66ZM197.343 27.7019H199.416C199.451 27.7019 199.496 27.6997 199.548 27.6943C199.602 27.6889 199.66 27.6792 199.723 27.6641C199.786 27.6487 199.849 27.6261 199.913 27.5956C199.976 27.5655 200.038 27.5224 200.099 27.4665C200.169 27.4007 200.225 27.3264 200.265 27.2428C200.306 27.1591 200.335 27.0758 200.353 26.9922C200.371 26.9086 200.383 26.8277 200.387 26.7493C200.387 26.6709 200.398 26.604 200.398 26.5483C200.398 26.442 200.386 26.3267 200.364 26.2028C200.342 26.0789 200.292 25.9662 200.216 25.865C200.161 25.7943 200.104 25.7412 200.045 25.7055C199.988 25.6701 199.933 25.6473 199.883 25.6373V25.6145C199.968 25.5892 200.039 25.5539 200.095 25.5081C200.15 25.4626 200.193 25.4196 200.224 25.3793C200.294 25.2779 200.337 25.1629 200.353 25.0338C200.368 24.9047 200.376 24.7947 200.376 24.7037C200.376 24.5822 200.361 24.4507 200.333 24.309C200.305 24.1672 200.236 24.0406 200.125 23.9293C200.089 23.894 200.015 23.8434 199.901 23.7775C199.787 23.7117 199.624 23.6789 199.411 23.6789H197.423V24.0431H199.373C199.49 24.0431 199.581 24.0597 199.646 24.0925C199.713 24.1242 199.763 24.1608 199.798 24.2014C199.869 24.2761 199.912 24.3634 199.928 24.4633C199.943 24.5632 199.95 24.6542 199.95 24.7341C199.95 24.7593 199.95 24.7947 199.95 24.8389C199.95 24.8845 199.939 24.9315 199.932 24.9819C199.921 25.0313 199.906 25.0833 199.886 25.1362C199.866 25.1881 199.838 25.2323 199.803 25.2665C199.763 25.3122 199.705 25.3513 199.632 25.383C199.558 25.4159 199.471 25.4322 199.37 25.4322H197.465V25.7968H199.317C199.388 25.7968 199.463 25.8044 199.544 25.8195C199.626 25.8345 199.704 25.8776 199.78 25.9474C199.876 26.0332 199.933 26.1305 199.95 26.2381C199.968 26.347 199.977 26.4509 199.977 26.552C199.977 26.5772 199.977 26.6166 199.977 26.6697C199.977 26.7213 199.967 26.777 199.963 26.8354C199.952 26.8936 199.942 26.9517 199.924 27.0125C199.907 27.0733 199.882 27.1238 199.852 27.1643C199.797 27.239 199.73 27.2869 199.654 27.3072C199.578 27.3275 199.513 27.3377 199.457 27.3377H197.355L197.343 27.7019ZM204.282 27.7019V23.6787H203.887V25.4398H201.473V23.6787H201.078V27.7019H201.473V25.804H203.887V27.7019H204.282ZM208.251 27.7019V27.3376H206.278C206.146 27.3376 206.029 27.316 205.928 27.2731C205.828 27.23 205.74 27.1768 205.667 27.1111C205.593 27.0453 205.532 26.9705 205.484 26.8885C205.436 26.8048 205.402 26.7226 205.382 26.643C205.352 26.5366 205.331 26.4037 205.322 26.242C205.311 26.0813 205.309 25.9433 205.311 25.827H207.763C207.818 25.827 207.888 25.8206 207.971 25.8081C208.055 25.7954 208.127 25.7613 208.188 25.7054C208.258 25.6395 208.304 25.5588 208.324 25.4625C208.345 25.3663 208.355 25.2778 208.355 25.1969C208.355 24.873 208.292 24.6061 208.165 24.3962C208.038 24.1862 207.886 24.0279 207.709 23.9215C207.547 23.8256 207.371 23.7635 207.182 23.7355C206.992 23.7079 206.826 23.6941 206.685 23.6941C206.482 23.6941 206.267 23.7156 206.039 23.7583C205.811 23.8014 205.607 23.8989 205.424 24.0507C205.298 24.1571 205.198 24.2772 205.125 24.4112C205.051 24.5452 204.997 24.6857 204.962 24.8326C204.926 24.9792 204.905 25.1287 204.896 25.2805C204.886 25.4321 204.886 25.5791 204.886 25.7208C204.886 26.0192 204.901 26.2912 204.931 26.5365C204.962 26.7822 205.055 27.0059 205.212 27.2085C205.374 27.416 205.55 27.5501 205.739 27.6109C205.929 27.6714 206.108 27.7019 206.275 27.7019H208.251ZM205.314 25.4625C205.314 25.2729 205.331 25.1032 205.352 24.9553C205.372 24.8083 205.422 24.6694 205.503 24.5391C205.574 24.4238 205.653 24.3341 205.739 24.2683C205.824 24.2038 205.917 24.1558 206.016 24.1254C206.114 24.0961 206.214 24.0775 206.315 24.0698C206.417 24.0622 206.518 24.0584 206.619 24.0584C206.71 24.0584 206.802 24.0606 206.893 24.066C206.984 24.0714 207.075 24.0847 207.166 24.1074C207.257 24.129 207.344 24.163 207.428 24.2089C207.511 24.2531 207.589 24.3189 207.659 24.4034C207.72 24.4781 207.769 24.5581 207.808 24.6402C207.846 24.7226 207.873 24.8022 207.891 24.8768C207.908 24.9515 207.92 25.0198 207.926 25.0791C207.926 25.1399 207.936 25.1842 207.936 25.2147C207.936 25.2297 207.936 25.2524 207.936 25.2817C207.936 25.3069 207.937 25.3333 207.921 25.3613C207.911 25.3892 207.894 25.4121 207.871 25.432C207.848 25.4523 207.815 25.4623 207.769 25.4623L205.314 25.4625ZM211.963 27.7019V27.3376H210.551C210.46 27.3376 210.358 27.3311 210.244 27.3185C210.13 27.306 210.017 27.2791 209.906 27.2389C209.795 27.1984 209.692 27.1391 209.599 27.0578C209.506 26.977 209.428 26.8719 209.367 26.7403C209.342 26.6798 209.319 26.61 209.299 26.5292C209.278 26.448 209.263 26.366 209.253 26.2799C209.242 26.1938 209.236 26.109 209.23 26.0269C209.23 25.9433 209.219 25.8661 209.219 25.7967C209.219 25.7358 209.219 25.6638 209.219 25.5802C209.219 25.4981 209.23 25.4133 209.235 25.3272C209.245 25.2424 209.251 25.1577 209.26 25.0743C209.271 24.992 209.283 24.9199 209.299 24.8591C209.375 24.5769 209.52 24.3707 209.735 24.2391C209.95 24.1091 210.192 24.0429 210.46 24.0429H211.864V23.6787H210.505C210.192 23.6787 209.934 23.7243 209.731 23.8155C209.529 23.9066 209.369 24.0101 209.253 24.1266C209.152 24.233 209.071 24.3519 209.01 24.4835C208.949 24.615 208.904 24.7515 208.873 24.8933C208.843 25.035 208.824 25.1779 208.817 25.322C208.806 25.4665 208.805 25.6067 208.805 25.7434C208.805 25.86 208.805 25.9802 208.816 26.104C208.816 26.228 208.834 26.3533 208.857 26.4796C208.88 26.6063 208.916 26.7302 208.963 26.8516C209.011 26.973 209.079 27.0871 209.165 27.1934C209.21 27.249 209.267 27.306 209.335 27.3641C209.403 27.4221 209.486 27.4765 209.582 27.5273C209.677 27.578 209.79 27.6194 209.916 27.6524C210.043 27.6852 210.187 27.7019 210.349 27.7019H211.963ZM212.722 23.6787V24.0429H214.673C214.77 24.0429 214.854 24.0609 214.927 24.0949C215.001 24.1303 215.058 24.1733 215.098 24.2228C215.148 24.2834 215.187 24.3608 215.212 24.4555C215.238 24.5505 215.25 24.6301 215.25 24.6959V25.2879H213.504C213.387 25.2879 213.261 25.3006 213.124 25.326C212.988 25.3512 212.864 25.4093 212.753 25.5018C212.606 25.6233 212.513 25.7711 212.476 25.9473C212.438 26.1219 212.419 26.29 212.419 26.4533C212.419 26.5138 212.419 26.5909 212.43 26.6847C212.43 26.7797 212.45 26.8756 212.476 26.9742C212.501 27.0732 212.536 27.1731 212.581 27.2718C212.627 27.3705 212.694 27.4525 212.781 27.5195C212.892 27.6056 213.012 27.6576 213.141 27.6754C213.271 27.693 213.394 27.7019 213.51 27.7019H215.063C215.134 27.7019 215.212 27.6965 215.298 27.6868C215.383 27.677 215.458 27.6437 215.519 27.5881C215.585 27.5273 215.625 27.4565 215.637 27.3753C215.65 27.2945 215.656 27.2264 215.656 27.1704V24.7641C215.656 24.6427 215.642 24.5075 215.613 24.3581C215.585 24.209 215.517 24.0758 215.408 23.9597C215.326 23.8736 215.221 23.8054 215.094 23.7546C214.968 23.7039 214.836 23.6787 214.699 23.6787H212.722ZM215.242 25.6524V27.1565C215.242 27.1818 215.242 27.2033 215.232 27.2236C215.232 27.2438 215.211 27.2666 215.186 27.2921C215.161 27.3173 215.132 27.3311 215.098 27.3336C215.066 27.3369 215.036 27.3379 215.01 27.3379H213.393C213.308 27.3379 213.23 27.3213 213.162 27.2884C213.094 27.2555 213.039 27.2138 212.999 27.1645C212.928 27.0784 212.884 26.9708 212.866 26.843C212.848 26.7142 212.84 26.59 212.84 26.4686C212.84 26.3281 212.851 26.2055 212.866 26.102C212.883 25.9993 212.918 25.9146 212.968 25.8489C212.998 25.8084 213.05 25.7666 213.124 25.7211C213.196 25.6756 213.292 25.6527 213.408 25.6527L215.242 25.6524Z" fill="#5C1E21"/>
<path fill-rule="evenodd" clip-rule="evenodd" d="M12.6266 19.8002H29.3297L20.2093 4.36026L19.0849 6.2645L17.548 3.66247L19.0702 1.0851C19.5825 0.218135 20.8367 0.218135 21.3488 1.0851L32.7888 20.4527L32.7893 20.4536C32.9197 20.6745 32.978 20.9096 32.9756 21.1382C32.9662 21.8243 32.4182 22.4514 31.6493 22.4514H11.0601L12.6266 19.8002Z" fill="#5C1E21"/>
<path fill-rule="evenodd" clip-rule="evenodd" d="M4.22589 19.8052H6.47609L4.91598 22.446H1.90947C1.14222 22.446 0.593046 21.8201 0.585938 21.1355C0.585938 20.9075 0.640975 20.6728 0.771361 20.4525L12.2114 1.08489V1.0846C12.4675 0.651073 12.9092 0.434479 13.3509 0.434479C13.7924 0.434479 14.2338 0.651358 14.4899 1.08489L24.7613 18.4746H21.6876L13.3504 4.36005L4.22589 19.8052Z" fill="#5C1E21"/>
<path fill-rule="evenodd" clip-rule="evenodd" d="M24.7596 18.4746H21.6855H24.7596ZM7.65864 25.6074H25.8986L24.8176 23.7773H27.8917L29.3582 26.26L29.3586 26.2609C29.8802 27.1435 29.244 28.2584 28.2187 28.2584H5.33903C4.314 28.2584 3.67737 27.1435 4.19863 26.2609L4.19955 26.26L14.4736 8.86627L16.0104 11.4682L7.65864 25.6074Z" fill="#5C1E21"/>
</svg>
