<svg width="48" height="54" viewBox="0 0 48 54" fill="none" xmlns="http://www.w3.org/2000/svg">
<path fill-rule="evenodd" clip-rule="evenodd" d="M24.1593 53.4702C27.2112 51.9976 47.1208 41.6989 47.1208 23.6298C47.1208 10.7329 36.6657 0.277832 23.7687 0.277832C10.8718 0.277832 0.416748 10.7329 0.416748 23.6298C0.416748 41.6989 20.3263 51.9976 23.3782 53.4702C23.6348 53.594 23.9027 53.594 24.1593 53.4702ZM23.7686 33.638C29.2959 33.638 33.7766 29.1573 33.7766 23.63C33.7766 18.1027 29.2959 13.622 23.7686 13.622C18.2414 13.622 13.7606 18.1027 13.7606 23.63C13.7606 29.1573 18.2414 33.638 23.7686 33.638Z" fill="#5C1E21"/>
</svg>
