<svg width="38" height="38" viewBox="0 0 38 38" fill="none" xmlns="http://www.w3.org/2000/svg">
<path fill-rule="evenodd" clip-rule="evenodd" d="M29.0604 8.94022C29.3696 9.24938 29.3696 9.75064 29.0604 10.0598L10.0604 29.0598C9.75128 29.369 9.25002 29.369 8.94086 29.0598C8.63169 28.7506 8.63169 28.2494 8.94086 27.9402L27.9409 8.94022C28.25 8.63105 28.7513 8.63105 29.0604 8.94022Z" fill="#D9D9D9"/>
<path fill-rule="evenodd" clip-rule="evenodd" d="M8.93955 8.94022C8.63039 9.24938 8.63039 9.75064 8.93955 10.0598L27.9396 29.0598C28.2487 29.369 28.75 29.369 29.0591 29.0598C29.3683 28.7506 29.3683 28.2494 29.0591 27.9402L10.0591 8.94022C9.74998 8.63105 9.24872 8.63105 8.93955 8.94022Z" fill="#D9D9D9"/>
</svg>
