<svg width="75" height="61" viewBox="0 0 75 61" fill="none" xmlns="http://www.w3.org/2000/svg">
<path d="M67.402 51.3538H57.777C56.8979 51.3538 56.1729 50.632 56.1729 49.7497C56.1729 48.8674 56.8979 48.1455 57.777 48.1455H67.402C68.2907 48.1455 69.0062 48.8674 69.0062 49.7497C69.0062 50.632 68.2939 51.3538 67.402 51.3538Z" fill="#5C1E21"/>
<path d="M70.6104 41.7288H57.777C56.8979 41.7288 56.1729 41.007 56.1729 40.1247C56.1729 39.2424 56.8979 38.5205 57.777 38.5205H70.6104C71.4991 38.5205 72.2145 39.2424 72.2145 40.1247C72.2145 41.007 71.5023 41.7288 70.6104 41.7288Z" fill="#5C1E21"/>
<path d="M70.6104 32.1038H57.777C56.8979 32.1038 56.1729 31.382 56.1729 30.4997C56.1729 29.6174 56.8979 28.8955 57.777 28.8955H70.6104C71.4991 28.8955 72.2145 29.6174 72.2145 30.4997C72.2145 31.382 71.5023 32.1038 70.6104 32.1038Z" fill="#5C1E21"/>
<path d="M58.8483 60.9791H32.5784C30.7914 60.9791 29.2257 60.3759 28.0386 59.2273C27.0633 58.2873 25.7832 57.7707 24.4293 57.7707H22.485C21.6059 57.7707 20.8809 57.0488 20.8809 56.1666C20.8809 55.2843 21.6059 54.5624 22.485 54.5624H24.4229C26.6142 54.5624 28.6899 55.3998 30.2588 56.9173C30.8556 57.4916 31.6063 57.7707 32.5752 57.7707H58.8451C62.0598 57.7707 63.8084 56.3623 64.7035 55.1688C65.99 53.4716 66.2146 51.4407 65.8553 50.1702C65.6243 49.3489 66.0767 48.4954 66.8884 48.2259C68.3417 47.7415 69.054 46.5833 69.3877 45.701C70.0582 43.9332 69.8079 41.9601 69.2112 40.9206C68.7941 40.1859 69.0091 39.2586 69.7117 38.7902C71.2485 37.7636 71.6495 35.8835 71.5212 34.5841C71.3961 33.3136 70.8057 32.3222 69.9844 31.9757C69.2786 31.6806 68.8775 30.9298 69.0283 30.1726C69.1823 29.4283 69.84 28.8925 70.6004 28.8925C71.3255 28.8925 71.7522 28.8925 71.7522 26.4798C71.7522 23.3742 70.5812 22.4759 66.529 22.4759H49.1687C48.6682 22.4759 48.1966 22.2416 47.895 21.8438C47.5902 21.446 47.494 20.9326 47.6255 20.4418C50.5483 9.88956 48.2993 4.72414 45.4888 3.50818C44.106 2.90502 42.6205 3.29964 41.7254 4.4386V11.5836C41.7254 12.6936 41.3693 13.7203 41.0741 14.5513C39.2999 19.6236 35.8542 24.1185 30.5412 28.3118C30.339 28.4658 30.1786 28.6294 30.0214 28.8155C28.337 30.8464 25.5426 32.1008 22.7385 32.1008C21.8594 32.1008 21.1343 31.3758 21.1343 30.4967C21.1343 29.6176 21.8594 28.8925 22.7385 28.8925C24.5833 28.8925 26.473 28.0551 27.5478 26.759C27.8494 26.3996 28.1862 26.0692 28.552 25.7804C33.3709 21.9786 36.4766 17.9585 38.0422 13.4829C38.2732 12.8188 38.5107 12.1354 38.5107 11.5675V3.9381C38.5107 3.63973 38.5909 3.35098 38.7449 3.10073C40.4228 0.351185 43.7852 -0.720398 46.7561 0.556518C50.6991 2.26656 53.8144 8.07364 51.2317 19.2611H66.5322C69.0572 19.2611 74.9637 19.2611 74.9637 26.4734C74.9637 27.4167 74.9637 29.6625 73.6066 31.0132C74.2098 31.9148 74.6012 33.0281 74.7199 34.2761C74.9509 36.6984 74.136 39.0116 72.5511 40.5901C73.1799 42.5023 73.1414 44.8572 72.381 46.8399C71.7362 48.5275 70.6229 49.8558 69.1823 50.6899C69.362 52.8556 68.6594 55.2458 67.2477 57.1002C65.3772 59.5995 62.3871 60.9791 58.8483 60.9791Z" fill="#5C1E21"/>
<path d="M20.881 60.9792H1.63102C0.751939 60.9792 0.0268555 60.2573 0.0268555 59.375V27.2917C0.0268555 26.4094 0.751939 25.6875 1.63102 25.6875H20.881C21.7665 25.6875 22.4852 26.4094 22.4852 27.2917V59.375C22.4852 60.2573 21.7729 60.9792 20.881 60.9792ZM3.23519 57.7708H19.2769V28.8958H3.23519V57.7708V57.7708Z" fill="#5C1E21"/>
</svg>
