<svg width="110" height="68" viewBox="0 0 110 68" fill="none" xmlns="http://www.w3.org/2000/svg">
<path d="M56.4842 54.2152C54.4549 54.0805 52.115 53.7262 50.2695 53.1939C49.9238 53.0941 48.4924 52.5701 48.1283 52.4038C41.7032 49.4397 37.2272 42.9693 37.2272 35.4626C37.2272 25.1664 45.6381 16.7798 55.9831 16.7798C66.2363 16.7798 74.5904 25.0234 74.7341 35.2031H81.5099C81.3663 21.3041 69.9741 10.0399 55.9831 10.0399C41.9086 10.0399 30.453 21.4422 30.453 35.4626C30.453 45.1283 35.9111 53.5349 43.9028 57.8297C45.3458 58.5898 47.4168 59.3732 48.12 59.5878C50.3981 60.2631 53.1939 60.7122 55.6825 60.9002C56.5276 60.9634 59.4788 60.9967 60.3389 61H107V54.2784H60.4174C59.7978 54.2784 57.0904 54.2551 56.4842 54.2152ZM60.4174 43.6612C59.9247 43.6612 57.3476 43.6446 56.8716 43.6047C56.065 43.5365 54.8958 43.4167 54.1443 43.2454C53.2958 43.0192 52.4991 42.7198 52.1401 42.5235C49.6231 41.1679 47.9079 38.5165 47.9079 35.4626C47.9079 31.0198 51.5204 27.4169 55.9831 27.4169C60.3523 27.4169 63.9047 30.8784 64.0467 35.2031H70.557C70.42 27.3022 63.9532 20.9349 55.9831 20.9349C47.9246 20.9349 41.3925 27.4386 41.3925 35.4626C41.3925 41.1213 44.6494 46.0082 49.3926 48.4018C50.1225 48.8276 51.4954 49.2734 51.8862 49.3748C53.2257 49.7258 55.0244 49.9653 56.4842 50.0718C57.0236 50.1167 59.6658 50.1367 60.2237 50.14V50.15H106.998V43.6612H60.4174ZM26.2775 60.975H19.4566V16.7948H9.48903V9.99999H26.2775V60.975ZM2 20.1897V26.7233H9.48903V60.975H16.0428V20.1897H2Z" fill="#5C1E21"/>
<path d="M94.9475 10.4743C92.4907 10.4743 90.4531 12.4254 90.4531 14.8738C90.4531 17.3223 92.4907 19.3516 94.9475 19.3516C97.4795 19.3516 99.4386 17.3223 99.4386 14.8738C99.4386 12.4254 97.4795 10.4743 94.9475 10.4743ZM94.9475 18.6297C92.9183 18.6297 91.1696 17.0412 91.1696 14.8738C91.1696 12.8163 92.9183 11.1878 94.9475 11.1878C96.9751 11.1878 98.7154 12.8163 98.7154 14.8738C98.7154 17.0412 96.9751 18.6297 94.9475 18.6297Z" fill="#5C1E21"/>
<path d="M96.6586 16.0797C96.6586 15.5857 96.5851 15.1266 96.0173 14.9453C96.7288 14.6992 96.7989 14.2351 96.7989 13.954C96.7989 12.8179 95.7634 12.6732 95.3375 12.6732H93.3784V17.0728H94.1951V15.268H94.8381C95.7634 15.268 95.8402 15.6922 95.8402 16.0797C95.8402 16.8299 95.8402 16.9713 96.0173 17.0728H96.8357C96.6586 16.8948 96.7288 16.7567 96.6586 16.0797ZM95.1588 14.626H94.1951V13.2404H95.0202C95.5914 13.2404 95.9789 13.42 95.9789 13.954C95.9789 14.2351 95.8402 14.626 95.1588 14.626" fill="#5C1E21"/>
</svg>
