<svg width="65" height="65" viewBox="0 0 65 65" fill="none" xmlns="http://www.w3.org/2000/svg">
<path fill-rule="evenodd" clip-rule="evenodd" d="M15.25 10.25H49.6667C52.7817 10.25 55.2926 10.2499 57.2673 10.5154C59.3176 10.7911 61.0438 11.3808 62.4149 12.7518C63.7859 14.1228 64.3756 15.8491 64.6513 17.8993C64.9168 19.8741 64.9167 22.3849 64.9167 25.5V49.6667C64.9167 52.7818 64.9168 55.2926 64.6513 57.2673C64.3756 59.3176 63.7859 61.0438 62.4149 62.4149C61.0438 63.7859 59.3176 64.3756 57.2673 64.6513C55.2926 64.9168 52.7817 64.9167 49.6666 64.9167H15.2501C12.135 64.9167 9.62412 64.9168 7.64935 64.6513C5.5991 64.3756 3.87283 63.7859 2.5018 62.4149C1.13077 61.0438 0.541064 59.3176 0.265416 57.2673C-8.36744e-05 55.2926 -4.57955e-05 52.7817 1.24747e-06 49.6667V25.5C-4.57955e-05 22.3849 -8.36744e-05 19.8741 0.265416 17.8993C0.541064 15.8491 1.13077 14.1228 2.5018 12.7518C3.87283 11.3808 5.5991 10.7911 7.64935 10.5154C9.62411 10.2499 12.1349 10.25 15.25 10.25ZM8.10461 13.9016C6.43323 14.1263 5.54815 14.5373 4.91775 15.1677C4.28734 15.7982 3.87633 16.6832 3.65162 18.3546C3.4203 20.0751 3.41667 22.3554 3.41667 25.625V49.5417C3.41667 52.8112 3.4203 55.0915 3.65162 56.8121C3.87633 58.4834 4.28734 59.3685 4.91775 59.9989C5.54815 60.6293 6.43323 61.0403 8.10461 61.2651C9.82513 61.4964 12.1054 61.5 15.375 61.5H49.5417C52.8112 61.5 55.0915 61.4964 56.8121 61.2651C58.4834 61.0403 59.3685 60.6293 59.9989 59.9989C60.6293 59.3685 61.0404 58.4834 61.2651 56.8121C61.4964 55.0915 61.5 52.8112 61.5 49.5417V25.625C61.5 22.3554 61.4964 20.0751 61.2651 18.3546C61.0404 16.6832 60.6293 15.7982 59.9989 15.1677C59.3685 14.5373 58.4834 14.1263 56.8121 13.9016C55.0915 13.6703 52.8112 13.6667 49.5417 13.6667H15.375C12.1054 13.6667 9.82513 13.6703 8.10461 13.9016Z" fill="#5C1E21"/>
<path d="M1.7085 25.6252C1.7085 19.1826 1.7085 15.9614 3.70993 13.9599C5.71137 11.9585 8.93263 11.9585 15.3752 11.9585H49.5418C55.9844 11.9585 59.2056 11.9585 61.2071 13.9599C63.2085 15.9614 63.2085 19.1826 63.2085 25.6252V25.6252H1.7085V25.6252Z" fill="#5C1E21"/>
<path fill-rule="evenodd" clip-rule="evenodd" d="M15.3752 -3.84677e-07C16.3186 -1.72226e-07 17.0835 0.764847 17.0835 1.70833L17.0835 11.9583C17.0835 12.9018 16.3186 13.6667 15.3752 13.6667C14.4317 13.6667 13.6668 12.9018 13.6668 11.9583L13.6668 1.70833C13.6668 0.764846 14.4317 -5.97129e-07 15.3752 -3.84677e-07Z" fill="#5C1E21"/>
<path fill-rule="evenodd" clip-rule="evenodd" d="M49.5417 -3.84677e-07C50.4852 -1.72226e-07 51.25 0.764847 51.25 1.70833L51.25 11.9583C51.25 12.9018 50.4852 13.6667 49.5417 13.6667C48.5982 13.6667 47.8333 12.9018 47.8333 11.9583L47.8333 1.70833C47.8333 0.764846 48.5982 -5.97129e-07 49.5417 -3.84677e-07Z" fill="#5C1E21"/>
<path d="M15.375 35.8752C15.375 34.2645 15.375 33.4592 15.8754 32.9589C16.3757 32.4585 17.181 32.4585 18.7917 32.4585H25.625C27.2356 32.4585 28.0409 32.4585 28.5413 32.9589C29.0417 33.4592 29.0417 34.2645 29.0417 35.8752V35.8752C29.0417 37.4858 29.0417 38.2911 28.5413 38.7915C28.0409 39.2918 27.2356 39.2918 25.625 39.2918H18.7917C17.181 39.2918 16.3757 39.2918 15.8754 38.7915C15.375 38.2911 15.375 37.4858 15.375 35.8752V35.8752Z" fill="#5C1E21"/>
<path d="M15.375 49.5417C15.375 47.931 15.375 47.1257 15.8754 46.6254C16.3757 46.125 17.181 46.125 18.7917 46.125H25.625C27.2356 46.125 28.0409 46.125 28.5413 46.6254C29.0417 47.1257 29.0417 47.931 29.0417 49.5417V49.5417C29.0417 51.1523 29.0417 51.9576 28.5413 52.458C28.0409 52.9583 27.2356 52.9583 25.625 52.9583H18.7917C17.181 52.9583 16.3757 52.9583 15.8754 52.458C15.375 51.9576 15.375 51.1523 15.375 49.5417V49.5417Z" fill="#5C1E21"/>
<path d="M35.875 35.8752C35.875 34.2645 35.875 33.4592 36.3754 32.9589C36.8757 32.4585 37.681 32.4585 39.2917 32.4585H46.125C47.7356 32.4585 48.5409 32.4585 49.0413 32.9589C49.5417 33.4592 49.5417 34.2645 49.5417 35.8752V35.8752C49.5417 37.4858 49.5417 38.2911 49.0413 38.7915C48.5409 39.2918 47.7356 39.2918 46.125 39.2918H39.2917C37.681 39.2918 36.8757 39.2918 36.3754 38.7915C35.875 38.2911 35.875 37.4858 35.875 35.8752V35.8752Z" fill="#5C1E21"/>
<path d="M35.875 49.5417C35.875 47.931 35.875 47.1257 36.3754 46.6254C36.8757 46.125 37.681 46.125 39.2917 46.125H46.125C47.7356 46.125 48.5409 46.125 49.0413 46.6254C49.5417 47.1257 49.5417 47.931 49.5417 49.5417V49.5417C49.5417 51.1523 49.5417 51.9576 49.0413 52.458C48.5409 52.9583 47.7356 52.9583 46.125 52.9583H39.2917C37.681 52.9583 36.8757 52.9583 36.3754 52.458C35.875 51.9576 35.875 51.1523 35.875 49.5417V49.5417Z" fill="#5C1E21"/>
</svg>
