<svg width="105" height="51" viewBox="0 0 105 51" fill="none" xmlns="http://www.w3.org/2000/svg">
<path d="M54.4842 44.2152C52.4549 44.0805 50.115 43.7262 48.2695 43.1939C47.9238 43.0941 46.4924 42.5701 46.1283 42.4038C39.7032 39.4397 35.2271 32.9693 35.2271 25.4626C35.2271 15.1664 43.6381 6.77981 53.9831 6.77981C64.2363 6.77981 72.5904 15.0234 72.7341 25.2031H79.5099C79.3663 11.3041 67.9741 0.039917 53.9831 0.039917C39.9086 0.039917 28.453 11.4422 28.453 25.4626C28.453 35.1283 33.9111 43.5349 41.9028 47.8297C43.3458 48.5898 45.4168 49.3732 46.12 49.5878C48.3981 50.2631 51.1939 50.7122 53.6825 50.9002C54.5276 50.9634 57.4788 50.9967 58.3389 51H105V44.2784H58.4174C57.7978 44.2784 55.0904 44.2551 54.4842 44.2152ZM58.4174 33.6612C57.9247 33.6612 55.3476 33.6446 54.8716 33.6047C54.065 33.5365 52.8958 33.4167 52.1443 33.2454C51.2958 33.0192 50.4991 32.7198 50.1401 32.5235C47.6231 31.1679 45.9079 28.5165 45.9079 25.4626C45.9079 21.0198 49.5204 17.4169 53.9831 17.4169C58.3523 17.4169 61.9047 20.8784 62.0467 25.2031H68.557C68.42 17.3022 61.9532 10.9349 53.9831 10.9349C45.9246 10.9349 39.3925 17.4386 39.3925 25.4626C39.3925 31.1213 42.6494 36.0082 47.3926 38.4018C48.1225 38.8276 49.4954 39.2734 49.8862 39.3748C51.2257 39.7258 53.0244 39.9653 54.4842 40.0718C55.0236 40.1167 57.6658 40.1367 58.2237 40.14V40.15H104.998V33.6612H58.4174ZM24.2775 50.975H17.4566V6.79478H7.48903V-3.8147e-06H24.2775V50.975ZM0 10.1897V16.7233H7.48903V50.975H14.0428V10.1897H0Z" fill="#5C1E21"/>
</svg>
