<svg width="224" height="226" viewBox="0 0 224 226" fill="none" xmlns="http://www.w3.org/2000/svg">
<path fill-rule="evenodd" clip-rule="evenodd" d="M111.986 98.5833C135.32 98.5833 154.236 79.6674 154.236 56.3333C154.236 32.9993 135.32 14.0833 111.986 14.0833C88.6516 14.0833 69.7357 32.9993 69.7357 56.3333C69.7357 79.6674 88.6516 98.5833 111.986 98.5833ZM111.986 112.667C143.098 112.667 168.319 87.4454 168.319 56.3333C168.319 25.2213 143.098 0 111.986 0C80.8736 0 55.6523 25.2213 55.6523 56.3333C55.6523 87.4454 80.8736 112.667 111.986 112.667Z" fill="#F9F9F9"/>
<path fill-rule="evenodd" clip-rule="evenodd" d="M4.48423 180.497C14.6997 143.056 52.9483 126.75 88.6777 126.75H135.294C171.023 126.75 209.272 143.056 219.487 180.497C221.423 187.592 222.974 195.288 223.854 203.478C225.186 215.874 214.972 225.333 203.527 225.333H20.444C8.99905 225.333 -1.2147 215.874 0.117315 203.478C0.997321 195.288 2.54821 187.592 4.48423 180.497ZM88.6777 140.833C55.9545 140.833 25.8736 155.606 18.0709 184.204C16.3122 190.649 14.9125 197.607 14.12 204.982C13.7901 208.053 16.3329 211.25 20.444 211.25H203.527C207.638 211.25 210.181 208.053 209.851 204.982C209.059 197.607 207.659 190.649 205.9 184.204C198.098 155.606 168.017 140.833 135.294 140.833H88.6777Z" fill="#F9F9F9"/>
</svg>
