<svg width="234" height="234" viewBox="0 0 234 234" fill="none" xmlns="http://www.w3.org/2000/svg">
<path fill-rule="evenodd" clip-rule="evenodd" d="M117 221.897C174.933 221.897 221.897 174.933 221.897 117C221.897 59.0672 174.933 12.1034 117 12.1034C59.0672 12.1034 12.1034 59.0672 12.1034 117C12.1034 174.933 59.0672 221.897 117 221.897ZM117 234C181.617 234 234 181.617 234 117C234 52.3827 181.617 0 117 0C52.3827 0 0 52.3827 0 117C0 181.617 52.3827 234 117 234Z" fill="#F9F9F9"/>
<path d="M97.4406 171.869C96.553 171.869 95.8429 171.603 95.3104 171.07C94.7778 170.538 94.5115 169.828 94.5115 168.94V149.768H84.1268C83.2392 149.768 82.5291 149.502 81.9966 148.969C81.464 148.437 81.1978 147.727 81.1978 146.839V144.709C81.1978 143.821 81.464 143.111 81.9966 142.579C82.5291 142.046 83.2392 141.78 84.1268 141.78H94.5115V133.792H84.1268C83.2392 133.792 82.5291 133.525 81.9966 132.993C81.464 132.46 81.1978 131.75 81.1978 130.862V128.732C81.1978 127.845 81.464 127.135 81.9966 126.602C82.5291 126.07 83.2392 125.803 84.1268 125.803H94.5115V81.7346C94.5115 80.7583 94.7778 80.0038 95.3104 79.4713C95.8429 78.9387 96.553 78.6724 97.4406 78.6724H129.793C136.006 78.6724 141.376 79.7375 145.903 81.8677C150.518 83.9092 154.069 86.9714 156.554 91.0542C159.128 95.1371 160.415 100.196 160.415 106.232C160.415 112.268 159.128 117.327 156.554 121.41C154.069 125.493 150.518 128.599 145.903 130.729C141.376 132.771 136.006 133.792 129.793 133.792H102.899V141.78H132.056C132.944 141.78 133.654 142.046 134.187 142.579C134.719 143.111 134.985 143.821 134.985 144.709V146.839C134.985 147.727 134.719 148.437 134.187 148.969C133.654 149.502 132.944 149.768 132.056 149.768H102.899V168.94C102.899 169.828 102.633 170.538 102.1 171.07C101.568 171.603 100.813 171.869 99.8371 171.869H97.4406ZM102.899 125.803H129.127C136.849 125.803 142.574 124.117 146.302 120.744C150.119 117.371 152.027 112.534 152.027 106.232C152.027 99.9301 150.119 95.0928 146.302 91.7199C142.574 88.3471 136.849 86.6607 129.127 86.6607H102.899V125.803Z" fill="#F9F9F9"/>
</svg>
