<svg width="77" height="57" viewBox="0 0 77 57" fill="none" xmlns="http://www.w3.org/2000/svg">
<path fill-rule="evenodd" clip-rule="evenodd" d="M4.96533 37.0277C5.78513 37.0277 6.44971 37.6923 6.44971 38.5121V44.7183C6.44971 45.5381 5.78513 46.2026 4.96533 46.2026C4.14553 46.2026 3.48096 45.5381 3.48096 44.7183V38.5121C3.48096 37.6923 4.14553 37.0277 4.96533 37.0277Z" fill="#5C1E21"/>
<path fill-rule="evenodd" clip-rule="evenodd" d="M0.376953 41.6144C0.376953 40.7946 1.04153 40.1301 1.86133 40.1301H8.06898C8.88878 40.1301 9.55336 40.7946 9.55336 41.6144C9.55336 42.4342 8.88878 43.0988 8.06898 43.0988H1.86133C1.04153 43.0988 0.376953 42.4342 0.376953 41.6144Z" fill="#5C1E21"/>
<path fill-rule="evenodd" clip-rule="evenodd" d="M8.96729 51.6562C9.37718 51.6562 9.70947 51.9885 9.70947 52.3984V55.863C9.70947 56.2729 9.37718 56.6052 8.96729 56.6052C8.55739 56.6052 8.2251 56.2729 8.2251 55.863V52.3984C8.2251 51.9885 8.55739 51.6562 8.96729 51.6562Z" fill="#5C1E21"/>
<path fill-rule="evenodd" clip-rule="evenodd" d="M6.49268 54.1307C6.49268 53.7208 6.82496 53.3885 7.23486 53.3885H10.6994C11.1093 53.3885 11.4416 53.7208 11.4416 54.1307C11.4416 54.5406 11.1093 54.8729 10.6994 54.8729H7.23486C6.82496 54.8729 6.49268 54.5406 6.49268 54.1307Z" fill="#5C1E21"/>
<path fill-rule="evenodd" clip-rule="evenodd" d="M74.3284 8.93408C75.0878 9.24307 75.4529 10.1091 75.1439 10.8685L72.8045 16.6174C72.4955 17.3768 71.6295 17.7419 70.8701 17.4329C70.1108 17.1239 69.7457 16.2578 70.0547 15.4985L72.3941 9.74951C72.7031 8.99017 73.5691 8.62509 74.3284 8.93408Z" fill="#5C1E21"/>
<path fill-rule="evenodd" clip-rule="evenodd" d="M68.3491 11.4536C68.6581 10.6942 69.5242 10.3292 70.2835 10.6382L76.0325 12.9775C76.7918 13.2865 77.1569 14.1526 76.8479 14.9119C76.5389 15.6712 75.6729 16.0363 74.9135 15.7273L69.1645 13.388C68.4052 13.079 68.0401 12.2129 68.3491 11.4536Z" fill="#5C1E21"/>
<path fill-rule="evenodd" clip-rule="evenodd" d="M68.8224 0.684074C69.2021 0.838515 69.3847 1.27151 69.2302 1.6512L67.9255 4.85894C67.771 5.23863 67.338 5.42123 66.9583 5.26679C66.5787 5.11235 66.3961 4.67935 66.5505 4.29966L67.8553 1.09192C68.0097 0.712233 68.4427 0.529633 68.8224 0.684074Z" fill="#5C1E21"/>
<path fill-rule="evenodd" clip-rule="evenodd" d="M65.5988 2.0434C65.7533 1.66371 66.1863 1.48111 66.566 1.63555L69.7737 2.94032C70.1534 3.09476 70.336 3.52776 70.1816 3.90745C70.0271 4.28714 69.5941 4.46974 69.2144 4.3153L66.0067 3.01053C65.627 2.85609 65.4444 2.42309 65.5988 2.0434Z" fill="#5C1E21"/>
<path fill-rule="evenodd" clip-rule="evenodd" d="M16.0459 2.86929C16.0459 2.0495 16.7105 1.38492 17.5303 1.38492H59.4698C60.2896 1.38492 60.9542 2.0495 60.9542 2.86929V14.9061C60.9542 15.7259 60.2896 16.3905 59.4698 16.3905H17.5303C16.7105 16.3905 16.0459 15.7259 16.0459 14.9061V2.86929ZM19.0146 4.35367V13.4217H57.9854V4.35367H19.0146Z" fill="#5C1E21"/>
<path fill-rule="evenodd" clip-rule="evenodd" d="M16.0459 14.9076C16.0459 14.0878 16.7105 13.4232 17.5303 13.4232H59.4698C60.2896 13.4232 60.9542 14.0878 60.9542 14.9076V54.1307C60.9542 54.9505 60.2896 55.6151 59.4698 55.6151H17.5303C16.7105 55.6151 16.0459 54.9505 16.0459 54.1307V14.9076ZM19.0146 16.392V52.6463H57.9854V16.392H19.0146Z" fill="#5C1E21"/>
<path fill-rule="evenodd" clip-rule="evenodd" d="M22.3428 26.1799C22.3428 25.3601 23.0074 24.6956 23.8271 24.6956H32.3475C33.1673 24.6956 33.8318 25.3601 33.8318 26.1799C33.8318 26.9997 33.1673 27.6643 32.3475 27.6643H23.8271C23.0074 27.6643 22.3428 26.9997 22.3428 26.1799Z" fill="#5C1E21"/>
<path fill-rule="evenodd" clip-rule="evenodd" d="M43.4487 26.1799C43.4487 25.3601 44.1133 24.6956 44.9331 24.6956H54.1036C54.9234 24.6956 55.588 25.3601 55.588 26.1799C55.588 26.9997 54.9234 27.6643 54.1036 27.6643H44.9331C44.1133 27.6643 43.4487 26.9997 43.4487 26.1799Z" fill="#5C1E21"/>
<path fill-rule="evenodd" clip-rule="evenodd" d="M23.2051 45.0003C23.2051 44.1805 23.8697 43.5159 24.6895 43.5159H31.4849C32.3047 43.5159 32.9693 44.1805 32.9693 45.0003C32.9693 45.8201 32.3047 46.4847 31.4849 46.4847H24.6895C23.8697 46.4847 23.2051 45.8201 23.2051 45.0003Z" fill="#5C1E21"/>
<path fill-rule="evenodd" clip-rule="evenodd" d="M28.0869 20.4354C28.9067 20.4354 29.5713 21.0999 29.5713 21.9197V30.4401C29.5713 31.2598 28.9067 31.9244 28.0869 31.9244C27.2671 31.9244 26.6025 31.2598 26.6025 30.4401V21.9197C26.6025 21.0999 27.2671 20.4354 28.0869 20.4354Z" fill="#5C1E21"/>
<path fill-rule="evenodd" clip-rule="evenodd" d="M45.6341 40.5647C46.2138 39.9851 47.1537 39.9852 47.7333 40.5649L54.5036 47.3367C55.0832 47.9164 55.0831 48.8563 54.5033 49.4359C53.9236 50.0155 52.9837 50.0154 52.4041 49.4357L45.6339 42.6639C45.0542 42.0842 45.0543 41.1443 45.6341 40.5647Z" fill="#5C1E21"/>
<path fill-rule="evenodd" clip-rule="evenodd" d="M54.5033 40.5647C55.0831 41.1443 55.0832 42.0842 54.5036 42.6639L47.7333 49.4357C47.1537 50.0154 46.2138 50.0155 45.6341 49.4359C45.0543 48.8563 45.0542 47.9164 45.6339 47.3367L52.4041 40.5649C52.9837 39.9852 53.9236 39.9851 54.5033 40.5647Z" fill="#5C1E21"/>
<path d="M28.0869 42.8762C28.7837 42.8762 29.3486 42.3113 29.3486 41.6144C29.3486 40.9176 28.7837 40.3527 28.0869 40.3527C27.3901 40.3527 26.8252 40.9176 26.8252 41.6144C26.8252 42.3113 27.3901 42.8762 28.0869 42.8762Z" fill="#5C1E21"/>
<path d="M28.0869 49.7013C28.7837 49.7013 29.3486 49.1364 29.3486 48.4396C29.3486 47.7427 28.7837 47.1779 28.0869 47.1779C27.3901 47.1779 26.8252 47.7427 26.8252 48.4396C26.8252 49.1364 27.3901 49.7013 28.0869 49.7013Z" fill="#5C1E21"/>
<path fill-rule="evenodd" clip-rule="evenodd" d="M38.5 13.4232C39.3198 13.4232 39.9844 14.0878 39.9844 14.9076V54.1307C39.9844 54.9505 39.3198 55.6151 38.5 55.6151C37.6802 55.6151 37.0156 54.9505 37.0156 54.1307V14.9076C37.0156 14.0878 37.6802 13.4232 38.5 13.4232Z" fill="#5C1E21"/>
<path fill-rule="evenodd" clip-rule="evenodd" d="M16.0459 35.8091C16.0459 34.9893 16.7105 34.3247 17.5303 34.3247H59.4698C60.2896 34.3247 60.9542 34.9893 60.9542 35.8091C60.9542 36.6289 60.2896 37.2935 59.4698 37.2935H17.5303C16.7105 37.2935 16.0459 36.6289 16.0459 35.8091Z" fill="#5C1E21"/>
</svg>
