<svg width="23" height="24" viewBox="0 0 23 24" fill="none" xmlns="http://www.w3.org/2000/svg">
<g clip-path="url(#clip0_192_545)">
<path d="M11.5 0.5C5.14872 0.5 0 5.64872 0 12C0 18.3513 5.14872 23.5 11.5 23.5C17.8513 23.5 23 18.3513 23 12C23 5.64872 17.8513 0.5 11.5 0.5ZM17.4773 7.77447L15.4348 17.5254C15.41 17.6433 15.3561 17.7532 15.2778 17.8448C15.1996 17.9365 15.0996 18.007 14.987 18.0499C14.8744 18.0928 14.7528 18.1067 14.6334 18.0903C14.514 18.074 14.4007 18.0279 14.3038 17.9563L11.3328 15.7614L9.53287 17.4594C9.50931 17.4817 9.48156 17.499 9.45123 17.5104C9.42091 17.5218 9.38862 17.527 9.35625 17.5258C9.32389 17.5245 9.29209 17.5169 9.26271 17.5032C9.23334 17.4896 9.20698 17.4702 9.18518 17.4462L9.1465 17.4037L9.45924 14.3771L15.0962 9.22679C15.1241 9.20136 15.1414 9.16641 15.1448 9.12883C15.1482 9.09125 15.1373 9.05377 15.1144 9.02378C15.0915 8.9938 15.0582 8.97348 15.0211 8.96685C14.9839 8.96021 14.9457 8.96774 14.9138 8.98794L7.70478 13.5507L4.6 12.5079C4.51745 12.4802 4.44549 12.4276 4.39402 12.3574C4.34254 12.2871 4.31406 12.2027 4.31249 12.1156C4.31091 12.0285 4.33632 11.9431 4.38522 11.871C4.43413 11.799 4.50413 11.7438 4.58563 11.7131L16.7334 7.13694C16.8271 7.10167 16.9286 7.09223 17.0272 7.1096C17.1258 7.12696 17.2179 7.1705 17.2939 7.23565C17.3699 7.30081 17.4271 7.38519 17.4593 7.47997C17.4916 7.57476 17.4978 7.67647 17.4773 7.77447Z" fill="#5C1E21"/>
</g>
<defs>
<clipPath id="clip0_192_545">
<rect width="23" height="23" fill="white" transform="translate(0 0.5)"/>
</clipPath>
</defs>
</svg>
