<svg width="24" height="24" viewBox="0 0 24 24" fill="none" xmlns="http://www.w3.org/2000/svg">
<path d="M20.5775 2.59488C19.9982 2.06122 17.6534 0.359587 12.4256 0.336837C12.4256 0.336837 6.26262 -0.0326474 3.26094 2.72269C1.5913 4.39223 1.00285 6.84197 0.938969 9.87554C0.875086 12.9092 0.797543 18.5931 6.27628 20.1351H6.2808L6.27628 22.4889C6.27628 22.4889 6.23982 23.4424 6.8693 23.634C7.62661 23.8712 8.07363 23.1459 8.79894 22.3658C9.19585 21.937 9.74322 21.3075 10.1584 20.8284C13.9081 21.1432 16.7867 20.4224 17.1151 20.3176C17.8724 20.0712 22.1559 19.5238 22.8493 13.8398C23.57 7.97327 22.5026 4.26908 20.5775 2.59488Z" fill="#5C1E21"/>
<path d="M21.2116 13.4111C20.6231 18.1552 17.1516 18.4563 16.5129 18.6617C16.2392 18.7483 13.7074 19.3779 10.5279 19.1726C10.5279 19.1726 8.15571 22.0328 7.41669 22.7765C7.17492 23.0182 6.91035 22.9954 6.91492 22.5164C6.91492 22.2017 6.93315 18.607 6.93315 18.607C6.92858 18.607 6.92858 18.607 6.93315 18.607C2.28921 17.3205 2.56292 12.4804 2.61309 9.9486C2.66326 7.41685 3.14228 5.34122 4.55644 3.94535C7.09738 1.6416 12.3298 1.98377 12.3298 1.98377C16.7501 2.002 18.8668 3.33399 19.3595 3.78107C20.988 5.17699 21.8184 8.51627 21.2116 13.4111Z" fill="white"/>
<path d="M14.8708 9.72487C14.8891 10.1172 14.3006 10.1446 14.2824 9.75219C14.2322 8.7486 13.7623 8.26054 12.7952 8.2058C12.4029 8.18295 12.4394 7.5945 12.8271 7.61735C14.0999 7.68575 14.807 8.41563 14.8708 9.72487Z" fill="#5C1E21"/>
<path d="M15.7969 10.2406C15.8424 8.30637 14.6336 6.79187 12.339 6.62312C11.9512 6.59575 11.9923 6.00725 12.3801 6.03462C15.026 6.22627 16.4355 8.04642 16.3853 10.2543C16.3807 10.6466 15.7877 10.6284 15.7969 10.2406Z" fill="#5C1E21"/>
<path d="M17.9408 10.8519C17.9453 11.2443 17.3523 11.2488 17.3523 10.8565C17.3249 7.13867 14.8479 5.11321 11.8416 5.09041C11.4538 5.08584 11.4538 4.50195 11.8416 4.50195C15.2037 4.52475 17.9088 6.84668 17.9408 10.8519Z" fill="#5C1E21"/>
<path d="M17.4255 15.3271V15.3363C16.9328 16.203 16.0113 17.161 15.0625 16.8554L15.0533 16.8416C14.0908 16.5725 11.8236 15.4047 10.3912 14.2642C9.65218 13.6803 8.977 12.9915 8.45695 12.33C7.98712 11.7415 7.51272 11.0435 7.05198 10.2042C6.08033 8.44789 5.86593 7.66326 5.86593 7.66326C5.56028 6.71442 6.5137 5.79289 7.38495 5.30026H7.39415C7.8138 5.08124 8.21523 5.15427 8.48437 5.4781C8.48437 5.4781 9.05007 6.15318 9.29179 6.48631C9.5199 6.79648 9.82555 7.29368 9.98521 7.57196C10.2635 8.06916 10.0901 8.57555 9.81641 8.78533L9.26899 9.22332C8.99076 9.4468 9.02722 9.86194 9.02722 9.86194C9.02722 9.86194 9.83921 12.9321 12.8728 13.7076C12.8728 13.7076 13.288 13.7441 13.5115 13.4658L13.9494 12.9184C14.1592 12.6447 14.6657 12.4714 15.1629 12.7497C15.8335 13.1282 16.6865 13.7167 17.2522 14.2505C17.5715 14.5105 17.6444 14.9075 17.4255 15.3271Z" fill="#5C1E21"/>
</svg>
