<svg width="23" height="23" viewBox="0 0 23 23" fill="none" xmlns="http://www.w3.org/2000/svg">
<path d="M12.2188 0C6.25312 0 1.4375 4.81562 1.4375 10.7812C1.4375 13.225 2.22812 15.525 3.7375 17.3938L2.22812 21.9937C2.15625 22.2812 2.22813 22.5688 2.44375 22.7844C2.51563 22.9281 2.73125 23 2.875 23C2.94687 23 3.09063 23 3.1625 22.9281L8.12188 20.7C9.41563 21.275 10.7812 21.5625 12.2188 21.5625C18.1844 21.5625 23 16.7469 23 10.7812C23 4.81562 18.1844 0 12.2188 0ZM18.4719 14.7344C18.1844 15.5969 17.1062 16.3156 16.1719 16.4594C15.9563 16.5312 15.7406 16.5312 15.4531 16.5312C14.8781 16.5312 14.0156 16.3875 12.5062 15.7406C10.7812 15.0219 9.05625 13.5125 7.69062 11.5719V11.5C7.25937 10.8531 6.46875 9.63125 6.46875 8.3375C6.46875 6.75625 7.25938 5.96563 7.54688 5.60625C7.90625 5.24688 8.40938 5.03125 8.98438 5.03125C9.12813 5.03125 9.2 5.03125 9.34375 5.03125C9.84688 5.03125 10.2063 5.175 10.5656 5.89375L10.8531 6.46875C11.0688 7.04375 11.3562 7.69063 11.4281 7.7625C11.6438 8.19375 11.6438 8.55312 11.4281 8.9125C11.3562 9.12813 11.2125 9.27188 11.0687 9.41563C10.9969 9.55937 10.925 9.63125 10.8531 9.63125C10.7812 9.70312 10.7812 9.70312 10.7094 9.775C10.925 10.1344 11.3562 10.7812 11.9313 11.2844C12.7938 12.075 13.4406 12.2906 13.8 12.4344C13.9438 12.2906 14.0875 12.0031 14.3031 11.7875L14.375 11.6438C14.7344 11.1406 15.3094 10.9969 15.8844 11.2125C16.1719 11.3562 17.7531 12.075 17.7531 12.075L17.8969 12.1469C18.1125 12.2906 18.4 12.3625 18.5437 12.65C18.8312 13.2969 18.6156 14.2312 18.4719 14.7344Z" fill="#5C1E21"/>
</svg>
