<svg width="205" height="31" viewBox="0 0 205 31" fill="none" xmlns="http://www.w3.org/2000/svg">
<path fill-rule="evenodd" clip-rule="evenodd" d="M51.9775 16.214H50.8081V18.2946H66.9189V16.214H65.75L61.0933 5.7309C60.8685 5.2289 60.5975 4.85902 60.2803 4.62122C59.9634 4.38332 59.4943 4.26428 58.8735 4.26428C58.5169 4.26428 58.2197 4.304 57.9819 4.3833C57.744 4.4627 57.5395 4.56822 57.3677 4.70032C57.1959 4.83232 57.0574 4.98772 56.9517 5.16602C56.8459 5.34432 56.7467 5.5328 56.6543 5.7309L51.9775 16.214ZM58.5366 7.2171C58.5636 7.1511 58.6065 7.06182 58.6655 6.94952C58.7255 6.83732 58.7942 6.78119 58.8735 6.78119C58.9525 6.78119 59.0191 6.83732 59.0718 6.94952C59.1248 7.06182 59.1636 7.1511 59.1904 7.2171L63.0747 16.214H54.6523L58.5366 7.2171ZM77.7983 18.2946V9.27789C77.7983 8.88159 77.7328 8.57778 77.6006 8.36658C77.4686 8.15508 77.32 7.99673 77.1548 7.89093C76.9898 7.78523 76.8207 7.7226 76.6489 7.7027C76.4774 7.6829 76.3519 7.67291 76.2725 7.67291C76.0347 7.67291 75.7903 7.71567 75.5396 7.80157C75.2884 7.88747 75.0574 8.08261 74.8462 8.38641L70.1689 15.2627C70.1289 15.3288 70.09 15.3914 70.0503 15.4509C70.0103 15.5105 69.9574 15.5402 69.8916 15.5402C69.8126 15.5402 69.7662 15.517 69.7529 15.4708C69.7399 15.4246 69.7329 15.3551 69.7329 15.2627L69.832 7.79169H67.5132V16.9272C67.5132 17.0726 67.53 17.2311 67.563 17.4029C67.596 17.5746 67.6653 17.7331 67.771 17.8785C67.8767 18.0239 68.029 18.1492 68.2271 18.255C68.4253 18.3607 68.6964 18.4134 69.0396 18.4134C69.4362 18.4134 69.7397 18.3443 69.9512 18.2054C70.1626 18.0667 70.3606 17.8587 70.5454 17.5812L75.1626 10.8237C75.2416 10.7049 75.3019 10.6289 75.3413 10.5957C75.3813 10.5629 75.4139 10.5464 75.4399 10.5464C75.5189 10.5464 75.5591 10.5728 75.5591 10.6255C75.5591 10.6785 75.5591 10.7446 75.5591 10.8237L75.48 18.2946H77.7983ZM79.8794 7.79169V9.57532H85.0513C85.2364 9.57532 85.4313 9.6016 85.6362 9.6546C85.8409 9.7074 86.0223 9.83293 86.1807 10.0311C86.3128 10.1895 86.3955 10.3548 86.4287 10.5266C86.4617 10.6984 86.4785 10.8633 86.4785 11.0218V11.7551H81.9209C81.6434 11.7551 81.3363 11.7849 80.9995 11.8444C80.6625 11.9037 80.3287 12.0788 79.9985 12.3694C79.6019 12.7129 79.3544 13.1092 79.2554 13.5585C79.1564 14.0075 79.1069 14.4633 79.1069 14.9257C79.1069 15.1241 79.117 15.3486 79.127 15.5995C79.14 15.8506 79.1759 16.1083 79.2358 16.3725C79.2948 16.6367 79.3876 16.8909 79.5132 17.1353C79.6388 17.3799 79.8075 17.5945 80.0186 17.7793C80.3225 18.0435 80.6427 18.1954 80.9795 18.2351C81.3162 18.2748 81.6301 18.2946 81.9209 18.2946H86.9346C87.1855 18.2946 87.4433 18.2714 87.7075 18.2252C87.9717 18.179 88.1965 18.0633 88.3813 17.8785C88.5664 17.6934 88.6818 17.4689 88.728 17.2047C88.775 16.9405 88.7969 16.716 88.7969 16.5309V11.0813C88.7969 10.4869 88.7241 9.98153 88.5791 9.56543C88.4337 9.14923 88.2489 8.82893 88.0244 8.60413C87.7866 8.35333 87.4761 8.1551 87.0928 8.0097C86.7096 7.8646 86.2932 7.79169 85.8442 7.79169H79.8794ZM86.4785 13.5387V15.9563C86.4785 16.0354 86.4685 16.1114 86.4585 16.1843C86.4455 16.2568 86.3984 16.3263 86.3198 16.3923C86.2408 16.4584 86.1512 16.4946 86.0522 16.5012C85.9532 16.5082 85.8702 16.5112 85.8042 16.5112H82.5742C82.4288 16.5112 82.287 16.4783 82.1484 16.4123C82.0095 16.3462 81.9007 16.2734 81.8213 16.1943C81.6762 16.0489 81.5869 15.8572 81.5537 15.6194C81.5207 15.3816 81.5044 15.1834 81.5044 15.025C81.5044 14.6417 81.5375 14.371 81.6035 14.2126C81.6695 14.0538 81.7223 13.9484 81.7617 13.8954C81.8938 13.7236 82.0492 13.6213 82.2275 13.5884C82.4058 13.5552 82.5349 13.5388 82.6143 13.5388L86.4785 13.5387ZM89.3911 18.2946H91.769L94.999 10.1895C95.025 10.1368 95.0521 10.0739 95.0781 10.0013C95.1041 9.92878 95.144 9.89252 95.1968 9.89252C95.2498 9.89252 95.2889 9.92878 95.3159 10.0013C95.3419 10.0739 95.369 10.1368 95.395 10.1895L98.6255 18.2946H101.003L96.7427 8.54492C96.5973 8.24102 96.3826 8.01958 96.0986 7.88098C95.8145 7.74208 95.514 7.67291 95.1968 7.67291C94.8798 7.67291 94.5794 7.74208 94.2954 7.88098C94.0113 8.01958 93.7963 8.24102 93.6509 8.54492L89.3911 18.2946ZM106.909 7.67291C106.592 7.67291 106.248 7.67991 105.878 7.69281C105.509 7.70581 105.132 7.74887 104.749 7.82147C104.366 7.89397 103.996 8.00661 103.639 8.15851C103.283 8.31051 102.959 8.51851 102.668 8.78271C102.364 9.05992 102.123 9.38709 101.945 9.76349C101.767 10.1399 101.631 10.5232 101.539 10.9129C101.446 11.3027 101.387 11.6891 101.36 12.0723C101.334 12.4553 101.321 12.7923 101.321 13.0829C101.321 13.3471 101.334 13.6609 101.36 14.0243C101.387 14.3874 101.443 14.7641 101.529 15.1536C101.615 15.5433 101.747 15.9232 101.925 16.2931C102.104 16.663 102.351 16.9933 102.668 17.2841C102.959 17.5483 103.283 17.7563 103.639 17.9083C103.996 18.0602 104.366 18.1725 104.749 18.245C105.132 18.3179 105.509 18.3641 105.878 18.3839C106.248 18.4035 106.592 18.4134 106.909 18.4134C107.213 18.4134 107.55 18.4034 107.919 18.3839C108.289 18.3641 108.669 18.3179 109.059 18.245C109.449 18.1725 109.825 18.0602 110.188 17.9083C110.552 17.7563 110.872 17.5483 111.149 17.2841C111.533 16.9142 111.853 16.3889 112.111 15.7086C112.369 15.0283 112.497 14.1266 112.497 13.0035C112.497 12.7263 112.484 12.4026 112.457 12.0326C112.431 11.6627 112.371 11.2863 112.279 10.903C112.187 10.5198 112.051 10.1399 111.873 9.76349C111.694 9.38709 111.453 9.05992 111.149 8.78271C110.859 8.51851 110.535 8.31051 110.178 8.15851C109.822 8.00661 109.452 7.89397 109.069 7.82147C108.686 7.74887 108.309 7.70581 107.939 7.69281C107.569 7.67951 107.226 7.67291 106.909 7.67291H106.909ZM103.719 13.063C103.719 12.8912 103.719 12.6866 103.729 12.4488C103.739 12.2109 103.758 11.9632 103.797 11.7055C103.837 11.4478 103.903 11.1936 103.996 10.9427C104.089 10.6916 104.214 10.4736 104.373 10.2888C104.531 10.1037 104.719 9.9551 104.937 9.8429C105.155 9.7306 105.377 9.64471 105.601 9.58521C105.826 9.5257 106.053 9.48937 106.285 9.47607C106.516 9.46297 106.724 9.45648 106.909 9.45648C107.12 9.45648 107.338 9.46247 107.563 9.47607C107.787 9.48937 108.009 9.5257 108.227 9.58521C108.445 9.64471 108.656 9.7306 108.861 9.8429C109.066 9.9551 109.254 10.1037 109.425 10.2888C109.61 10.4869 109.749 10.7083 109.842 10.9526C109.934 11.197 110 11.4447 110.04 11.6956C110.079 11.9467 110.099 12.1911 110.099 12.4289C110.099 12.6534 110.099 12.8649 110.099 13.063C110.099 13.5254 110.069 13.9945 110.01 14.4701C109.95 14.9455 109.749 15.375 109.406 15.7582C109.062 16.1412 108.669 16.3824 108.227 16.4813C107.784 16.5805 107.345 16.6301 106.909 16.6301C106.486 16.6301 106.047 16.5805 105.591 16.4813C105.135 16.3824 104.735 16.1412 104.392 15.7582C104.062 15.375 103.867 14.939 103.807 14.4503C103.748 13.9613 103.718 13.499 103.718 13.063H103.719ZM116.124 18.2946V10.4075C116.124 10.2754 116.124 10.1598 116.134 10.0609C116.144 9.96161 116.19 9.86578 116.282 9.77338C116.335 9.72068 116.401 9.67453 116.48 9.63483C116.559 9.59513 116.652 9.57532 116.758 9.57532H122.584V7.79169H115.272C115.047 7.79169 114.823 7.82148 114.598 7.88098C114.373 7.94048 114.182 8.09558 114.023 8.34668C113.917 8.51848 113.855 8.70329 113.835 8.90149C113.815 9.09959 113.805 9.30459 113.805 9.51569V18.2946H116.124ZM127.598 18.2946H133.542C133.82 18.2946 134.121 18.2782 134.444 18.245C134.768 18.2122 135.105 18.1526 135.455 18.0667C135.805 17.9809 136.152 17.8587 136.496 17.7002C136.839 17.5415 137.162 17.3303 137.466 17.0661C138.166 16.4584 138.632 15.6788 138.864 14.7275C139.095 13.7765 139.21 12.6137 139.21 11.2398C139.21 10.7644 139.197 10.282 139.17 9.79327C139.144 9.30457 139.078 8.82549 138.972 8.35669C138.866 7.88749 138.711 7.43849 138.506 7.00909C138.302 6.57959 138.028 6.19327 137.684 5.84967C137.341 5.51947 136.978 5.25868 136.594 5.06708C136.211 4.87538 135.831 4.73339 135.455 4.64099C135.078 4.54829 134.721 4.48911 134.384 4.46271C134.048 4.43611 133.767 4.42297 133.542 4.42297H127.795V6.50372H132.71C133.37 6.50372 133.928 6.59609 134.384 6.78119C134.84 6.96599 135.207 7.19082 135.484 7.45502C135.868 7.83792 136.128 8.27083 136.267 8.75293C136.406 9.23513 136.488 9.72071 136.515 10.2094H128.073V12.2903H136.515C136.502 13.0695 136.409 13.717 136.237 14.2323C136.066 14.7474 135.716 15.1833 135.188 15.5402C134.87 15.7647 134.497 15.9331 134.067 16.0454C133.638 16.1576 133.1 16.214 132.452 16.214H127.597L127.598 18.2946ZM150.783 18.2946L146.305 13.6178C146.226 13.5387 146.142 13.423 146.057 13.2711C145.971 13.1191 145.928 12.9905 145.928 12.8847C145.928 12.7129 145.988 12.5511 146.106 12.3991C146.225 12.2472 146.331 12.125 146.424 12.0326L150.407 7.79169H147.652L144.303 11.5173C144.158 11.6891 143.999 11.8937 143.827 12.1316C143.656 12.3694 143.57 12.6205 143.57 12.8847C143.57 13.1489 143.639 13.3867 143.778 13.5982C143.917 13.8094 144.046 13.9812 144.165 14.1133L147.989 18.2946H150.783ZM143.114 18.2946V7.79169H140.795V18.2946H143.114ZM159.839 18.2946V16.5111H156.074C155.836 16.5111 155.589 16.5011 155.331 16.4813C155.074 16.4615 154.826 16.4122 154.588 16.3328C154.35 16.2534 154.132 16.1412 153.934 15.996C153.736 15.8506 153.571 15.6525 153.438 15.4013C153.372 15.2692 153.316 15.1074 153.27 14.916C153.224 14.7244 153.187 14.5294 153.161 14.3312C153.135 14.1331 153.118 13.9384 153.112 13.7467C153.102 13.5551 153.102 13.3802 153.102 13.2215C153.102 13.1424 153.102 13.0202 153.112 12.855C153.122 12.6897 153.125 12.5114 153.132 12.3198C153.142 12.1284 153.155 11.9368 153.182 11.7452C153.208 11.5536 153.242 11.3852 153.281 11.2398C153.413 10.7908 153.681 10.401 154.083 10.0708C154.487 9.7405 155.077 9.57532 155.857 9.57532H159.603V7.79169H155.104C154.629 7.79169 154.216 7.83143 153.866 7.91083C153.516 7.98993 153.212 8.08568 152.954 8.19788C152.696 8.31048 152.482 8.4326 152.31 8.5647C152.138 8.6968 151.999 8.81563 151.894 8.92133C151.603 9.22523 151.379 9.5588 151.22 9.922C151.061 10.2854 150.943 10.6553 150.863 11.0317C150.784 11.4084 150.738 11.7815 150.725 12.1514C150.712 12.5213 150.705 12.8649 150.705 13.1818C150.705 13.935 150.754 14.6317 150.853 15.2726C150.952 15.9133 151.22 16.4912 151.656 17.0066C151.894 17.2841 152.154 17.5086 152.438 17.6804C152.723 17.8522 153.003 17.9843 153.281 18.0767C153.558 18.1691 153.829 18.2286 154.093 18.255C154.357 18.2813 154.589 18.2946 154.787 18.2946H159.839ZM162.931 7.79169C162.706 7.79169 162.468 7.8116 162.217 7.8512C161.966 7.8909 161.728 8.04293 161.504 8.30713C161.319 8.53163 161.213 8.74641 161.187 8.95111C161.161 9.15571 161.147 9.35078 161.147 9.53558V18.2946H163.465V10.1895C163.465 10.0971 163.478 10.0047 163.505 9.91199C163.531 9.81959 163.572 9.74707 163.625 9.69397C163.704 9.61497 163.836 9.57532 164.021 9.57532H167.944C168.01 9.57532 168.083 9.58528 168.162 9.60498C168.241 9.62488 168.308 9.65457 168.36 9.69397C168.426 9.76037 168.466 9.84287 168.479 9.94177C168.492 10.041 168.5 10.1235 168.5 10.1895V18.2946H170.818V9.53558C170.818 9.31108 170.802 9.0965 170.768 8.8916C170.735 8.6869 170.639 8.49193 170.48 8.30713C170.282 8.06923 170.058 7.92379 169.807 7.87109C169.556 7.81809 169.298 7.79169 169.034 7.79169H162.931ZM181.915 18.2946V16.5111H176.782C176.571 16.5111 176.356 16.498 176.138 16.4714C175.92 16.445 175.712 16.3889 175.514 16.303C175.316 16.2171 175.144 16.0916 174.999 15.9266C174.854 15.7613 174.742 15.5402 174.662 15.2627C174.622 15.1043 174.589 14.8795 174.563 14.5889C174.537 14.2984 174.524 14.0407 174.524 13.8162H180.627C180.839 13.8162 181.04 13.7895 181.232 13.7368C181.424 13.6841 181.598 13.5784 181.757 13.4196C181.982 13.1951 182.12 12.9409 182.173 12.6568C182.226 12.3728 182.252 12.0987 182.252 11.8345C182.252 11.5043 182.232 11.1771 182.193 10.8534C182.154 10.5297 182.077 10.2193 181.965 9.922C181.853 9.6249 181.701 9.35081 181.51 9.09961C181.318 8.84881 181.07 8.62398 180.767 8.42578C180.278 8.12198 179.733 7.93371 179.131 7.86121C178.53 7.78861 177.919 7.75201 177.298 7.75201C177.047 7.75201 176.757 7.75901 176.426 7.77191C176.096 7.78521 175.753 7.82148 175.396 7.88098C175.039 7.94048 174.686 8.0361 174.335 8.1684C173.985 8.3005 173.665 8.49188 173.375 8.74298C173.084 8.99388 172.856 9.27142 172.691 9.57532C172.526 9.87912 172.4 10.2128 172.314 10.5759C172.228 10.9393 172.176 11.3356 172.156 11.765C172.136 12.1945 172.127 12.6534 172.127 13.1424C172.127 13.8426 172.166 14.5294 172.246 15.2032C172.325 15.877 172.536 16.4649 172.88 16.9669C173.091 17.2708 173.329 17.512 173.593 17.6903C173.857 17.8686 174.128 18.0041 174.406 18.0965C174.683 18.1889 174.967 18.245 175.258 18.2649C175.549 18.2847 175.826 18.2946 176.09 18.2946H181.915ZM174.523 12.0326C174.536 11.6891 174.559 11.3688 174.592 11.0714C174.625 10.7743 174.761 10.4934 174.999 10.2292C175.157 10.0574 175.332 9.922 175.524 9.823C175.716 9.7238 175.91 9.65459 176.108 9.61499C176.307 9.57529 176.498 9.55197 176.683 9.54547C176.868 9.53947 177.04 9.53552 177.198 9.53552C177.528 9.53552 177.869 9.55872 178.219 9.60492C178.569 9.65112 178.89 9.78661 179.18 10.0111C179.352 10.1432 179.507 10.3283 179.646 10.5659C179.785 10.8037 179.854 11.0877 179.854 11.4183C179.854 11.5634 179.824 11.7023 179.765 11.8344C179.706 11.9665 179.563 12.0325 179.339 12.0325L174.523 12.0326ZM185.878 18.2946H188.811C189.075 18.2946 189.369 18.2846 189.693 18.2649C190.017 18.245 190.347 18.1858 190.684 18.0866C191.021 17.9874 191.344 17.8354 191.655 17.6308C191.965 17.4261 192.246 17.1452 192.497 16.7886C192.682 16.5244 192.831 16.2336 192.943 15.9167C193.055 15.5995 193.141 15.2692 193.201 14.9257C193.261 14.5824 193.296 14.2323 193.31 13.8754C193.323 13.5188 193.33 13.1688 193.33 12.8252C193.33 12.5346 193.32 12.2209 193.31 11.8838C193.297 11.5471 193.254 11.2069 193.181 10.8633C193.108 10.5198 192.996 10.183 192.844 9.85278C192.692 9.52258 192.484 9.21872 192.22 8.94122C191.969 8.67702 191.698 8.46892 191.407 8.31702C191.117 8.16502 190.829 8.04937 190.545 7.96997C190.261 7.89087 189.997 7.84127 189.752 7.82147C189.508 7.80157 189.3 7.79169 189.128 7.79169H185.462C185.264 7.79169 185.046 7.8116 184.809 7.8512C184.571 7.8909 184.352 7.98328 184.154 8.12878C184.022 8.23448 183.89 8.38948 183.758 8.59448C183.626 8.79908 183.56 9.07331 183.56 9.41681V21.6636H185.878V18.2946ZM185.878 16.5111V10.0708C185.878 9.9387 185.932 9.81963 186.037 9.71393C186.077 9.68753 186.126 9.65778 186.186 9.62488C186.246 9.59168 186.301 9.57532 186.354 9.57532H188.633C189.148 9.57532 189.577 9.68749 189.921 9.91199C190.264 10.1368 190.509 10.4209 190.654 10.7644C190.72 10.9095 190.783 11.1443 190.843 11.4677C190.902 11.7914 190.932 12.3099 190.932 13.0233C190.932 13.8029 190.886 14.3774 190.793 14.7474C190.701 15.1173 190.601 15.3815 190.496 15.5402C190.363 15.7514 190.145 15.9663 189.842 16.1843C189.538 16.4022 189.095 16.5111 188.514 16.5111H185.878ZM200.106 18.2946V9.57532H204.05V7.79169H193.845V9.57532H197.788V18.2946H200.106Z" fill="#5C1E21"/>
<path fill-rule="evenodd" clip-rule="evenodd" d="M51.3081 29.3682H51.6724V27.6181H52.2671C52.2671 27.7303 52.2673 27.8468 52.2812 27.9682C52.2952 28.0895 52.32 28.2119 52.354 28.3358C52.389 28.4594 52.436 28.5773 52.4941 28.6893C52.5521 28.8013 52.6261 28.9016 52.7148 28.9903C52.8174 29.0881 52.9271 29.1652 53.0439 29.2211C53.1604 29.2772 53.2784 29.3191 53.3975 29.3472C53.5165 29.3753 53.6317 29.3926 53.7437 29.3997C53.8556 29.4067 53.9562 29.4101 54.0449 29.4101C54.1289 29.4101 54.2269 29.4071 54.3389 29.3997C54.4508 29.3927 54.5677 29.3753 54.689 29.3472C54.8104 29.3191 54.9303 29.2772 55.0493 29.2211C55.1681 29.1652 55.2769 29.0881 55.375 28.9903C55.473 28.8923 55.5511 28.7791 55.6094 28.6507C55.6674 28.5223 55.7119 28.3905 55.7422 28.2553C55.7722 28.1198 55.7932 27.9857 55.8052 27.8528C55.8172 27.7198 55.8223 27.5997 55.8223 27.4922C55.8223 27.3896 55.8221 27.274 55.8081 27.1458C55.7981 27.0174 55.779 26.8867 55.748 26.7538C55.718 26.6209 55.6722 26.4902 55.6118 26.3618C55.5508 26.2334 55.4716 26.1203 55.3735 26.0222C55.2845 25.9334 55.1881 25.8623 55.083 25.8087C54.9781 25.7551 54.8673 25.7143 54.7505 25.6863C54.634 25.6582 54.516 25.6395 54.397 25.6301C54.2779 25.6211 54.1603 25.6163 54.0435 25.6163C53.8054 25.6163 53.5702 25.6395 53.3369 25.6863C53.1037 25.733 52.8959 25.8439 52.7139 26.0199C52.6159 26.118 52.5201 26.266 52.4268 26.4632C52.3338 26.6605 52.2795 26.9335 52.2656 27.2822H51.6709V25.6582H51.3066L51.3081 29.3682ZM52.645 27.5271C52.645 27.448 52.645 27.3556 52.645 27.2484C52.645 27.141 52.6583 27.0302 52.6763 26.9137C52.6953 26.798 52.7242 26.6849 52.7632 26.5763C52.8032 26.4666 52.858 26.3723 52.9277 26.294C52.9977 26.2146 53.0784 26.1529 53.1694 26.1086C53.2604 26.0655 53.3558 26.0315 53.4561 26.0083C53.5565 25.985 53.657 25.9697 53.7573 25.9626C53.8577 25.9556 53.9518 25.9522 54.0405 25.9522C54.1295 25.9522 54.2238 25.9562 54.3242 25.9626C54.4245 25.9696 54.5247 25.985 54.625 26.0083C54.7254 26.0315 54.8211 26.0655 54.9121 26.1086C55.0031 26.1529 55.0838 26.2146 55.1538 26.294C55.2238 26.3723 55.2787 26.4666 55.3184 26.5763C55.3584 26.6849 55.3873 26.798 55.4053 26.9137C55.4243 27.0302 55.4345 27.141 55.4375 27.2484C55.4375 27.3556 55.4375 27.448 55.4375 27.5271C55.4375 27.6019 55.4375 27.6895 55.4375 27.7921C55.4375 27.8947 55.4243 27.9996 55.4053 28.1093C55.3873 28.2179 55.3574 28.3265 55.3184 28.4325C55.2784 28.5399 55.2215 28.6354 55.147 28.7185C55.077 28.7976 54.9974 28.8619 54.9087 28.911C54.8197 28.9586 54.7278 28.9949 54.6323 29.0181C54.5363 29.0416 54.4385 29.0567 54.3384 29.0637C54.2381 29.0707 54.1386 29.0742 54.0405 29.0742C53.9425 29.0742 53.8435 29.0712 53.7432 29.0637C53.6428 29.0567 53.545 29.0416 53.4492 29.0181C53.3532 28.9949 53.2617 28.9586 53.1729 28.911C53.0839 28.8619 53.0046 28.7976 52.9346 28.7185C52.8606 28.6354 52.8029 28.5399 52.7632 28.4325C52.7232 28.3265 52.6943 28.2179 52.6763 28.1093C52.6573 27.9996 52.647 27.8947 52.645 27.7921C52.645 27.6895 52.645 27.6019 52.645 27.5271ZM56.7471 29.3682H57.7969C57.9134 29.3682 58.0338 29.3622 58.1577 29.3506C58.2813 29.339 58.4004 29.3146 58.5146 29.2772C58.6288 29.2398 58.7372 29.1851 58.8398 29.1128C58.9424 29.0402 59.0334 28.9413 59.1128 28.8151C59.2435 28.6193 59.3242 28.4021 59.3545 28.1643C59.3845 27.9262 59.4004 27.6906 59.4004 27.4574C59.4004 27.3499 59.4002 27.2368 59.3892 27.1178C59.3792 26.9987 59.3673 26.8785 59.3433 26.7572C59.3203 26.6359 59.2814 26.518 59.228 26.4037C59.174 26.2895 59.103 26.1832 59.0146 26.0854C58.9676 26.0386 58.9119 25.9896 58.8467 25.9383C58.7817 25.887 58.7033 25.8402 58.6123 25.7982C58.5213 25.7563 58.4168 25.7226 58.3003 25.6968C58.1836 25.671 58.0533 25.6582 57.9087 25.6582H56.9707C56.9197 25.6582 56.8554 25.6642 56.7783 25.6758C56.7013 25.6874 56.6276 25.7189 56.5576 25.7702C56.5296 25.7937 56.4937 25.8334 56.4492 25.8892C56.4052 25.9454 56.3828 26.0222 56.3828 26.1203V30.5582H56.7471V29.3682ZM56.7471 29.0323V26.175C56.7471 26.1517 56.7473 26.1296 56.7583 26.1098C56.7683 26.0888 56.7802 26.0667 56.8032 26.0431C56.8172 26.0341 56.835 26.0233 56.856 26.0117C56.877 26.0001 56.897 25.9941 56.915 25.9941H57.9863C58.1589 25.9941 58.3282 26.0352 58.4937 26.1169C58.6593 26.1974 58.7885 26.336 58.8818 26.531C58.9468 26.6744 58.9871 26.8332 59.001 27.0047C59.015 27.1762 59.022 27.344 59.022 27.5061C59.022 27.7057 59.0103 27.903 58.9873 28.0988C58.9643 28.2936 58.9032 28.4651 58.8052 28.6145C58.7492 28.6972 58.6851 28.7661 58.6128 28.82C58.5408 28.8735 58.4656 28.9155 58.3887 28.9481C58.3117 28.981 58.2345 29.0031 58.1577 29.0147C58.0807 29.0263 58.0093 29.0323 57.9438 29.0323H56.7471ZM63.061 29.3682V26.0431C63.061 26.0154 63.0608 25.978 63.0508 25.9312C63.0508 25.8847 63.0342 25.8379 63.0132 25.7911C62.9922 25.7447 62.96 25.7038 62.918 25.6687C62.876 25.6338 62.8151 25.6163 62.7358 25.6163C62.5725 25.6163 62.4444 25.6908 62.3511 25.8402L60.4399 28.8852C60.4069 28.9458 60.3823 28.9762 60.3633 28.9762C60.3403 28.9762 60.3272 28.9657 60.3242 28.9447C60.3242 28.9237 60.3242 28.9039 60.3242 28.8852V25.6582H59.9604V29.0252C59.9604 29.1465 59.9894 29.2409 60.0474 29.3087C60.1054 29.3764 60.1884 29.4101 60.2959 29.4101C60.3889 29.4101 60.4642 29.3892 60.52 29.3472C60.576 29.3053 60.6341 29.2375 60.6948 29.1443L62.585 26.1412C62.608 26.1038 62.6257 26.0806 62.6367 26.0712C62.6487 26.0622 62.6566 26.0573 62.6616 26.0573C62.6846 26.0573 62.6968 26.0663 62.6968 26.0854C62.6968 26.0993 62.6968 26.118 62.6968 26.1412V29.3682H63.061ZM63.6421 29.0323H63.3408V29.3682H67.1348V29.0323H66.834L65.6372 25.9371C65.6132 25.8728 65.5708 25.8031 65.5107 25.7282C65.4497 25.6537 65.3591 25.6163 65.2378 25.6163C65.1165 25.6163 65.0255 25.6537 64.9648 25.7282C64.9038 25.8031 64.8626 25.8728 64.8394 25.9371L63.6421 29.0323ZM65.1543 26.0854C65.1643 26.0667 65.175 26.0443 65.189 26.0188C65.203 25.993 65.2193 25.9802 65.2383 25.9802C65.2573 25.9802 65.2731 25.993 65.2871 26.0188C65.3011 26.0443 65.3133 26.0667 65.3223 26.0854L66.4561 29.0323H64.02L65.1543 26.0854ZM70.5156 29.3682V26.0431C70.5156 26.0154 70.5159 25.978 70.5059 25.9312C70.5059 25.8847 70.4888 25.8379 70.4678 25.7911C70.4468 25.7447 70.4146 25.7038 70.3726 25.6687C70.3306 25.6338 70.2703 25.6163 70.1909 25.6163C70.0276 25.6163 69.8989 25.6908 69.8057 25.8402L67.895 28.8852C67.862 28.9458 67.8369 28.9762 67.8179 28.9762C67.7949 28.9762 67.7818 28.9657 67.7798 28.9447C67.7798 28.9237 67.7798 28.9039 67.7798 28.8852V25.6582H67.416V29.0252C67.416 29.1465 67.4449 29.2409 67.5029 29.3087C67.5609 29.3764 67.6441 29.4101 67.7515 29.4101C67.8445 29.4101 67.9198 29.3892 67.9756 29.3472C68.0316 29.3053 68.0903 29.2375 68.1509 29.1443L70.0405 26.1412C70.0635 26.1038 70.0818 26.0806 70.0928 26.0712C70.1048 26.0622 70.1127 26.0573 70.1177 26.0573C70.1407 26.0573 70.1523 26.0663 70.1523 26.0854C70.1523 26.0993 70.1523 26.118 70.1523 26.1412V29.3682H70.5156ZM74.0859 29.3682V25.6582H73.7217V27.2893H72.0347C71.9227 27.2893 71.8309 27.2728 71.7583 27.2402C71.6863 27.2076 71.6337 27.1702 71.6011 27.1294C71.5541 27.0733 71.528 27.0058 71.52 26.9264C71.51 26.8482 71.5098 26.7759 71.5098 26.7107V25.6582H71.146V26.6313C71.146 26.7666 71.156 26.9006 71.167 27.0339C71.181 27.1668 71.228 27.2799 71.3071 27.3732C71.4097 27.4945 71.5357 27.5668 71.6851 27.5903C71.8345 27.6135 71.9695 27.6252 72.0908 27.6252H73.7217V29.3682H74.0859ZM77.7466 29.3682V29.0323H75.9268C75.8054 29.0323 75.6982 29.0124 75.605 28.9728C75.512 28.9331 75.4311 28.884 75.3633 28.8234C75.2953 28.7627 75.2398 28.6938 75.1953 28.6181C75.1513 28.541 75.1191 28.4651 75.1011 28.3917C75.0731 28.2936 75.0544 28.1711 75.0454 28.022C75.0354 27.8738 75.0332 27.7465 75.0352 27.6393H77.2964C77.3474 27.6393 77.4117 27.6333 77.4888 27.6218C77.5658 27.6101 77.6323 27.5787 77.6885 27.5271C77.7535 27.4664 77.7953 27.3919 77.814 27.3031C77.833 27.2144 77.8423 27.1328 77.8423 27.0582C77.8423 26.7595 77.7839 26.5134 77.667 26.3198C77.5502 26.1262 77.4104 25.9802 77.2471 25.8821C77.0977 25.7937 76.9356 25.7364 76.7607 25.7106C76.5855 25.6851 76.4325 25.6724 76.3018 25.6724C76.1153 25.6724 75.9171 25.6922 75.707 25.7316C75.497 25.7713 75.3082 25.8612 75.1401 26.0012C75.0236 26.0993 74.9313 26.2101 74.8638 26.3337C74.7958 26.4573 74.746 26.5868 74.7134 26.7223C74.6804 26.8575 74.6613 26.9953 74.6543 27.1353C74.6443 27.2751 74.6431 27.4106 74.6431 27.5413C74.6431 27.8165 74.6571 28.0674 74.6851 28.2936C74.7131 28.5201 74.7995 28.7264 74.9443 28.9132C75.0934 29.1046 75.2558 29.2282 75.4307 29.2843C75.6056 29.3401 75.7704 29.3682 75.9243 29.3682H77.7466ZM75.0381 27.3031C75.0381 27.1283 75.0538 26.9718 75.0728 26.8354C75.0918 26.6999 75.1379 26.5718 75.2129 26.4516C75.2789 26.3453 75.3508 26.2626 75.4302 26.2019C75.5092 26.1424 75.5945 26.0981 75.6855 26.0701C75.7765 26.0431 75.8687 26.0259 75.9619 26.0188C76.0559 26.0118 76.1484 26.0083 76.2417 26.0083C76.3257 26.0083 76.4098 26.0103 76.4937 26.0153C76.5777 26.0203 76.6622 26.0326 76.7461 26.0535C76.8301 26.0734 76.9102 26.1048 76.9873 26.1471C77.0643 26.1879 77.1355 26.2486 77.2007 26.3265C77.2567 26.3954 77.3022 26.4691 77.3374 26.5448C77.3724 26.6208 77.3986 26.6942 77.4146 26.763C77.4316 26.8319 77.4413 26.8949 77.4463 26.9496C77.4463 27.0057 77.4565 27.0465 77.4565 27.0746C77.4565 27.0885 77.4565 27.1094 77.4565 27.1364C77.4565 27.1596 77.4564 27.184 77.4424 27.2098C77.4324 27.2356 77.4175 27.2566 77.3965 27.275C77.3755 27.2937 77.3442 27.303 77.3022 27.303L75.0381 27.3031ZM81.1699 29.3682V29.0323H79.8677C79.7837 29.0323 79.6894 29.0263 79.5845 29.0147C79.4794 29.0031 79.3755 28.9784 79.2729 28.9413C79.1703 28.9039 79.0755 28.8492 78.9893 28.7743C78.9033 28.6998 78.832 28.6028 78.7759 28.4815C78.7529 28.4257 78.7319 28.3613 78.7129 28.2868C78.6939 28.2119 78.6799 28.1363 78.6709 28.0569C78.6609 27.9775 78.6549 27.8993 78.6499 27.8236C78.6499 27.7465 78.6396 27.6753 78.6396 27.6113C78.6396 27.5551 78.6396 27.4888 78.6396 27.4117C78.6396 27.336 78.6498 27.2578 78.6538 27.1784C78.6638 27.1002 78.6687 27.022 78.6777 26.9451C78.6877 26.8692 78.6989 26.8028 78.7129 26.7467C78.7829 26.4865 78.9167 26.2963 79.1152 26.175C79.3133 26.0551 79.5365 25.9941 79.7837 25.9941H81.0786V25.6582H79.8257C79.5366 25.6582 79.2986 25.7002 79.1118 25.7843C78.9253 25.8683 78.778 25.9638 78.6709 26.0712C78.5779 26.1693 78.5026 26.279 78.4468 26.4003C78.3908 26.5216 78.349 26.6475 78.3208 26.7782C78.2928 26.9089 78.2756 27.0407 78.2686 27.1736C78.2586 27.3068 78.2578 27.4361 78.2578 27.5622C78.2578 27.6697 78.2576 27.7805 78.2676 27.8947C78.2676 28.009 78.2847 28.1246 78.3057 28.2411C78.3267 28.3579 78.3598 28.4722 78.4038 28.5841C78.4478 28.6961 78.5098 28.8013 78.5889 28.8993C78.6309 28.9506 78.684 29.0031 78.7466 29.0567C78.8096 29.1102 78.8854 29.1604 78.9741 29.2072C79.0621 29.254 79.1657 29.2922 79.2822 29.3226C79.399 29.3529 79.5318 29.3682 79.6812 29.3682H81.1699ZM84.5859 29.3682L82.7729 27.6603C82.7499 27.6368 82.7247 27.6053 82.6997 27.5656C82.6737 27.526 82.6616 27.49 82.6616 27.4574C82.6616 27.4106 82.6817 27.3649 82.7207 27.3207C82.7607 27.2765 82.7919 27.2425 82.8149 27.2192L84.4668 25.6582H83.9697L82.5562 26.9743C82.4952 27.0302 82.4319 27.1025 82.3667 27.1912C82.3007 27.2799 82.269 27.3686 82.269 27.4574C82.269 27.5132 82.2849 27.5787 82.3179 27.6532C82.3509 27.7278 82.4128 27.8094 82.5068 27.8981L84.0679 29.3682H84.5859ZM82.0938 29.3682V25.6582H81.73V29.3682H82.0938ZM87.9668 29.3682V26.0431C87.9668 26.0154 87.9665 25.978 87.9565 25.9312C87.9565 25.8847 87.9395 25.8379 87.9185 25.7911C87.8975 25.7447 87.8657 25.7038 87.8237 25.6687C87.7817 25.6338 87.721 25.6163 87.6416 25.6163C87.4784 25.6163 87.35 25.6908 87.2568 25.8402L85.3462 28.8852C85.3132 28.9458 85.288 28.9762 85.269 28.9762C85.246 28.9762 85.233 28.9657 85.231 28.9447C85.231 28.9237 85.231 28.9039 85.231 28.8852V25.6582H84.8672V29.0252C84.8672 29.1465 84.8961 29.2409 84.9541 29.3087C85.0121 29.3764 85.0952 29.4101 85.2026 29.4101C85.2956 29.4101 85.3709 29.3892 85.4268 29.3472C85.4828 29.3053 85.5409 29.2375 85.6016 29.1443L87.4917 26.1412C87.5147 26.1038 87.5325 26.0806 87.5435 26.0712C87.5555 26.0622 87.5634 26.0573 87.5684 26.0573C87.5914 26.0573 87.6035 26.0663 87.6035 26.0854C87.6035 26.0993 87.6035 26.118 87.6035 26.1412V29.3682H87.9668ZM91.6274 29.3682V29.0323H89.8076C89.6863 29.0323 89.5791 29.0124 89.4858 28.9728C89.3928 28.9331 89.3119 28.884 89.2441 28.8234C89.1761 28.7627 89.1207 28.6938 89.0762 28.6181C89.0322 28.541 89.0004 28.4651 88.9824 28.3917C88.9544 28.2936 88.9353 28.1711 88.9263 28.022C88.9163 27.8738 88.914 27.7465 88.916 27.6393H91.1772C91.2282 27.6393 91.2925 27.6333 91.3696 27.6218C91.4466 27.6101 91.5127 27.5787 91.5688 27.5271C91.6338 27.4664 91.6761 27.3919 91.6948 27.3031C91.7138 27.2144 91.7231 27.1328 91.7231 27.0582C91.7231 26.7595 91.6648 26.5134 91.5479 26.3198C91.4311 26.1262 91.2912 25.9802 91.1279 25.8821C90.9785 25.7937 90.8165 25.7364 90.6416 25.7106C90.4664 25.6851 90.3138 25.6724 90.1831 25.6724C89.9966 25.6724 89.798 25.6922 89.5879 25.7316C89.3779 25.7713 89.1891 25.8612 89.021 26.0012C88.9045 26.0993 88.8121 26.2101 88.7446 26.3337C88.6766 26.4573 88.6268 26.5868 88.5942 26.7223C88.5612 26.8575 88.5422 26.9953 88.5342 27.1353C88.5242 27.2751 88.5239 27.4106 88.5239 27.5413C88.5239 27.8165 88.5379 28.0674 88.5659 28.2936C88.5939 28.5201 88.6804 28.7264 88.8252 28.9132C88.9743 29.1046 89.1366 29.2282 89.3115 29.2843C89.4864 29.3401 89.6513 29.3682 89.8052 29.3682H91.6274ZM88.9189 27.3031C88.9189 27.1283 88.9351 26.9718 88.9541 26.8354C88.9731 26.6999 89.0197 26.5718 89.0938 26.4516C89.1587 26.3453 89.2317 26.2626 89.311 26.2019C89.39 26.1424 89.4754 26.0981 89.5664 26.0701C89.6574 26.0431 89.7496 26.0259 89.8428 26.0188C89.9368 26.0118 90.0297 26.0083 90.123 26.0083C90.207 26.0083 90.2911 26.0103 90.375 26.0153C90.459 26.0203 90.5431 26.0326 90.627 26.0535C90.711 26.0734 90.7911 26.1048 90.8682 26.1471C90.9452 26.1879 91.0163 26.2486 91.0815 26.3265C91.1375 26.3954 91.1831 26.4691 91.2183 26.5448C91.2533 26.6208 91.2794 26.6942 91.2954 26.763C91.3114 26.8319 91.3226 26.8949 91.3276 26.9496C91.3276 27.0057 91.3374 27.0465 91.3374 27.0746C91.3374 27.0885 91.3374 27.1094 91.3374 27.1364C91.3374 27.1596 91.3372 27.184 91.3232 27.2098C91.3132 27.2356 91.2983 27.2566 91.2773 27.275C91.2563 27.2937 91.2256 27.303 91.1836 27.303L88.9189 27.3031ZM97.0176 29.3682V26.0431C97.0176 26.0154 97.0178 25.978 97.0078 25.9312C97.0078 25.8847 96.9907 25.8379 96.9697 25.7911C96.9487 25.7447 96.917 25.7038 96.875 25.6687C96.833 25.6338 96.7722 25.6163 96.6929 25.6163C96.5296 25.6163 96.4014 25.6908 96.3081 25.8402L94.397 28.8852C94.364 28.9458 94.3393 28.9762 94.3203 28.9762C94.2973 28.9762 94.2842 28.9657 94.2812 28.9447C94.2812 28.9237 94.2812 28.9039 94.2812 28.8852V25.6582H93.917V29.0252C93.917 29.1465 93.9464 29.2409 94.0044 29.3087C94.0624 29.3764 94.1454 29.4101 94.2529 29.4101C94.3459 29.4101 94.4208 29.3892 94.4766 29.3472C94.5326 29.3053 94.5912 29.2375 94.6519 29.1443L96.5415 26.1412C96.5645 26.1038 96.5827 26.0806 96.5938 26.0712C96.6058 26.0622 96.6137 26.0573 96.6187 26.0573C96.6417 26.0573 96.6538 26.0663 96.6538 26.0854C96.6538 26.0993 96.6538 26.118 96.6538 26.1412V29.3682H97.0176ZM102.268 24.8044V24.4682H100.637C100.427 24.4682 100.221 24.5139 100.018 24.6049C99.8146 24.6958 99.6544 24.8393 99.5376 25.0351C99.4486 25.1845 99.3957 25.3373 99.377 25.4938C99.358 25.65 99.3486 25.7889 99.3486 25.9102V27.8562C99.3486 28.0056 99.359 28.1584 99.377 28.3148C99.396 28.471 99.4518 28.6286 99.5449 28.7871C99.6289 28.9365 99.7289 29.0521 99.8457 29.1338C99.9625 29.2154 100.083 29.2772 100.207 29.3191C100.33 29.3611 100.454 29.3869 100.577 29.3963C100.701 29.4053 100.812 29.4101 100.91 29.4101C101.013 29.4101 101.125 29.4041 101.246 29.3926C101.367 29.3809 101.489 29.3554 101.61 29.3157C101.731 29.2761 101.846 29.2177 101.956 29.1406C102.066 29.0637 102.163 28.9574 102.247 28.8222C102.354 28.6448 102.424 28.4362 102.457 28.1958C102.49 27.9554 102.506 27.7162 102.506 27.4783C102.506 27.2776 102.493 27.0665 102.468 26.8448C102.442 26.6231 102.374 26.4236 102.261 26.2461C102.186 26.1296 102.099 26.0327 101.999 25.9558C101.898 25.8787 101.792 25.8181 101.68 25.7739C101.568 25.7294 101.455 25.699 101.341 25.6829C101.227 25.6664 101.118 25.6582 101.015 25.6582H99.7134C99.7134 25.5474 99.7417 25.4377 99.7837 25.328C99.8257 25.2197 99.8859 25.1261 99.9653 25.0471C100.044 24.9688 100.146 24.9082 100.27 24.8673C100.394 24.8254 100.523 24.8044 100.658 24.8044H102.268ZM99.7129 25.9941H101.036C101.241 25.9941 101.407 26.021 101.533 26.0746C101.659 26.1273 101.757 26.1914 101.827 26.266C101.897 26.3408 101.952 26.4236 101.991 26.5168C102.031 26.6104 102.061 26.7059 102.079 26.8062C102.098 26.9054 102.107 27.0092 102.11 27.1166C102.11 27.2226 102.11 27.3278 102.11 27.4293C102.11 27.5364 102.111 27.6521 102.101 27.7746C102.101 27.8981 102.084 28.0195 102.065 28.1408C102.046 28.261 102.018 28.3755 101.981 28.4815C101.944 28.5889 101.895 28.6799 101.834 28.7534C101.769 28.8279 101.695 28.8874 101.614 28.9319C101.532 28.975 101.448 29.0076 101.362 29.0286C101.276 29.0496 101.19 29.0626 101.106 29.0671C101.022 29.0721 100.95 29.0741 100.889 29.0741C100.805 29.0741 100.717 29.0691 100.624 29.06C100.53 29.051 100.439 29.031 100.351 29.0007C100.262 28.9704 100.178 28.9296 100.099 28.8757C100.02 28.8221 99.9514 28.7533 99.8955 28.6705C99.8295 28.5772 99.7823 28.4638 99.752 28.332C99.722 28.1991 99.707 28.0661 99.707 27.9306L99.7129 25.9941ZM106.258 25.6724H105.866L104.41 28.9132L103.038 25.6582H102.646L104.214 29.3472L103.654 30.5653H104.046L106.258 25.6724ZM109.275 29.3682L107.903 27.4642L109.212 25.6582H108.785L107.696 27.1912L106.608 25.6582H106.181L107.497 27.4642L106.118 29.3682H106.559L107.696 27.7371L108.833 29.3682H109.275ZM109.912 29.3682V26.2603C109.912 26.237 109.912 26.203 109.912 26.1588C109.912 26.1143 109.927 26.0783 109.951 26.0502C109.979 26.0128 110.03 25.9941 110.104 25.9941H112.331V25.6582H109.964C109.899 25.6582 109.833 25.6687 109.765 25.6897C109.697 25.7106 109.642 25.7586 109.601 25.8334C109.568 25.8847 109.55 25.9428 109.548 26.0083C109.548 26.0735 109.548 26.1341 109.548 26.1903V29.3682H109.912ZM112.754 25.6582V25.9941H114.553C114.642 25.9941 114.719 26.0106 114.787 26.042C114.855 26.0746 114.907 26.1143 114.944 26.1599C114.99 26.2158 115.026 26.2872 115.049 26.3745C115.072 26.4621 115.084 26.5355 115.084 26.5962V27.1421H113.475C113.367 27.1421 113.251 27.1538 113.125 27.1773C112.999 27.2005 112.884 27.2541 112.781 27.3394C112.646 27.4514 112.561 27.5877 112.526 27.7502C112.491 27.9112 112.474 28.0662 112.474 28.2168C112.474 28.2726 112.474 28.3437 112.484 28.4302C112.484 28.5178 112.502 28.6062 112.526 28.6972C112.549 28.7885 112.582 28.8806 112.624 28.9716C112.666 29.0626 112.728 29.1383 112.807 29.2001C112.91 29.2795 113.021 29.3274 113.14 29.3438C113.26 29.36 113.373 29.3682 113.48 29.3682H114.912C114.977 29.3682 115.05 29.3632 115.129 29.3543C115.208 29.3453 115.277 29.3146 115.333 29.2633C115.394 29.2072 115.43 29.142 115.441 29.0671C115.453 28.9926 115.458 28.9297 115.458 28.8781V26.6591C115.458 26.5471 115.445 26.4224 115.419 26.2847C115.393 26.1472 115.33 26.0244 115.23 25.9173C115.154 25.8379 115.058 25.775 114.941 25.7282C114.824 25.6814 114.703 25.6582 114.577 25.6582H112.754ZM115.078 27.4783V28.8653C115.078 28.8886 115.077 28.9084 115.067 28.9271C115.067 28.9458 115.048 28.9668 115.025 28.9903C115.002 29.0136 114.975 29.0263 114.944 29.0286C114.914 29.0316 114.888 29.0326 114.864 29.0326H113.373C113.294 29.0326 113.222 29.0173 113.159 28.9869C113.096 28.9566 113.046 28.9181 113.009 28.8727C112.944 28.7933 112.903 28.6941 112.886 28.5762C112.87 28.4574 112.862 28.3429 112.862 28.2309C112.862 28.1014 112.872 27.9883 112.886 27.8928C112.902 27.7981 112.934 27.7201 112.98 27.6595C113.008 27.6221 113.056 27.5835 113.124 27.5416C113.192 27.4996 113.279 27.4786 113.386 27.4786L115.078 27.4783ZM115.729 29.3682H116.134L117.415 26.1203C117.425 26.097 117.434 26.0723 117.443 26.0468C117.453 26.021 117.466 26.0083 117.485 26.0083C117.504 26.0083 117.518 26.021 117.527 26.0468C117.537 26.0723 117.546 26.097 117.555 26.1203L118.836 29.3682H119.242L117.849 25.9102C117.793 25.775 117.728 25.6922 117.653 25.6619C117.579 25.6316 117.523 25.6163 117.485 25.6163C117.448 25.6163 117.392 25.6316 117.317 25.6619C117.242 25.6922 117.178 25.775 117.122 25.9102L115.729 29.3682ZM120.867 29.3682V25.9941H122.267V25.6582H119.103V25.9941H120.502V29.3682H120.867ZM125.507 29.3682V29.0323H123.688C123.566 29.0323 123.459 29.0124 123.366 28.9728C123.273 28.9331 123.192 28.884 123.124 28.8234C123.056 28.7627 123.001 28.6938 122.956 28.6181C122.912 28.541 122.88 28.4651 122.862 28.3917C122.834 28.2936 122.815 28.1711 122.806 28.022C122.796 27.8738 122.794 27.7465 122.796 27.6393H125.057C125.108 27.6393 125.172 27.6333 125.25 27.6218C125.327 27.6101 125.393 27.5787 125.449 27.5271C125.514 27.4664 125.556 27.3919 125.575 27.3031C125.594 27.2144 125.603 27.1328 125.603 27.0582C125.603 26.7595 125.545 26.5134 125.428 26.3198C125.311 26.1262 125.171 25.9802 125.008 25.8821C124.858 25.7937 124.696 25.7364 124.521 25.7106C124.346 25.6851 124.193 25.6724 124.062 25.6724C123.876 25.6724 123.678 25.6922 123.468 25.7316C123.258 25.7713 123.069 25.8612 122.901 26.0012C122.784 26.0993 122.692 26.2101 122.625 26.3337C122.557 26.4573 122.506 26.5868 122.474 26.7223C122.441 26.8575 122.421 26.9953 122.414 27.1353C122.404 27.2751 122.404 27.4106 122.404 27.5413C122.404 27.8165 122.418 28.0674 122.446 28.2936C122.474 28.5201 122.56 28.7264 122.705 28.9132C122.854 29.1046 123.017 29.2282 123.191 29.2843C123.366 29.3401 123.531 29.3682 123.685 29.3682H125.507ZM122.798 27.3031C122.798 27.1283 122.814 26.9718 122.833 26.8354C122.852 26.6999 122.899 26.5718 122.974 26.4516C123.039 26.3453 123.112 26.2626 123.191 26.2019C123.27 26.1424 123.355 26.0981 123.446 26.0701C123.537 26.0431 123.629 26.0259 123.723 26.0188C123.816 26.0118 123.909 26.0083 124.002 26.0083C124.086 26.0083 124.17 26.0103 124.254 26.0153C124.338 26.0203 124.422 26.0326 124.506 26.0535C124.59 26.0734 124.671 26.1048 124.748 26.1471C124.825 26.1879 124.896 26.2486 124.961 26.3265C125.017 26.3954 125.063 26.4691 125.098 26.5448C125.133 26.6208 125.159 26.6942 125.175 26.763C125.191 26.8319 125.202 26.8949 125.206 26.9496C125.206 27.0057 125.216 27.0465 125.216 27.0746C125.216 27.0885 125.216 27.1094 125.216 27.1364C125.216 27.1596 125.216 27.184 125.202 27.2098C125.192 27.2356 125.177 27.2566 125.156 27.275C125.135 27.2937 125.104 27.303 125.062 27.303L122.798 27.3031ZM126.529 29.3682H127.58C127.696 29.3682 127.816 29.3622 127.94 29.3506C128.064 29.339 128.183 29.3146 128.297 29.2772C128.411 29.2398 128.52 29.1851 128.623 29.1128C128.725 29.0402 128.816 28.9413 128.896 28.8151C129.026 28.6193 129.106 28.4021 129.137 28.1643C129.167 27.9262 129.183 27.6906 129.183 27.4574C129.183 27.3499 129.183 27.2368 129.172 27.1178C129.162 26.9987 129.15 26.8785 129.126 26.7572C129.103 26.6359 129.064 26.518 129.01 26.4037C128.956 26.2895 128.885 26.1832 128.797 26.0854C128.75 26.0386 128.694 25.9896 128.629 25.9383C128.564 25.887 128.486 25.8402 128.395 25.7982C128.304 25.7563 128.2 25.7226 128.083 25.6968C127.966 25.671 127.835 25.6582 127.691 25.6582H126.753C126.702 25.6582 126.638 25.6642 126.561 25.6758C126.484 25.6874 126.41 25.7189 126.34 25.7702C126.312 25.7937 126.276 25.8334 126.231 25.8892C126.187 25.9454 126.166 26.0222 126.166 26.1203V30.5582H126.529V29.3682ZM126.529 29.0323V26.175C126.529 26.1517 126.53 26.1296 126.541 26.1098C126.551 26.0888 126.562 26.0667 126.585 26.0431C126.599 26.0341 126.618 26.0233 126.639 26.0117C126.66 26.0001 126.679 25.9941 126.697 25.9941H127.769C127.941 25.9941 128.11 26.0352 128.276 26.1169C128.441 26.1974 128.571 26.336 128.665 26.531C128.731 26.6744 128.77 26.8332 128.784 27.0047C128.798 27.1762 128.805 27.344 128.805 27.5061C128.805 27.7057 128.793 27.903 128.77 28.0988C128.747 28.2936 128.685 28.4651 128.587 28.6145C128.531 28.6972 128.467 28.7661 128.395 28.82C128.323 28.8735 128.248 28.9155 128.171 28.9481C128.094 28.981 128.017 29.0031 127.94 29.0147C127.863 29.0263 127.792 29.0323 127.726 29.0323H126.529ZM132.507 29.3682V29.0323H131.206C131.122 29.0323 131.027 29.0263 130.922 29.0147C130.817 29.0031 130.713 28.9784 130.61 28.9413C130.508 28.9039 130.413 28.8492 130.327 28.7743C130.241 28.6998 130.169 28.6028 130.113 28.4815C130.09 28.4257 130.069 28.3613 130.05 28.2868C130.031 28.2119 130.017 28.1363 130.008 28.0569C129.998 27.9775 129.992 27.8993 129.987 27.8236C129.987 27.7465 129.978 27.6753 129.978 27.6113C129.978 27.5551 129.978 27.4888 129.978 27.4117C129.978 27.336 129.987 27.2578 129.991 27.1784C130.001 27.1002 130.006 27.022 130.015 26.9451C130.025 26.8692 130.036 26.8028 130.05 26.7467C130.12 26.4865 130.255 26.2963 130.453 26.175C130.651 26.0551 130.874 25.9941 131.122 25.9941H132.417V25.6582H131.163C130.874 25.6582 130.636 25.7002 130.449 25.7843C130.263 25.8683 130.115 25.9638 130.008 26.0712C129.915 26.1693 129.84 26.279 129.785 26.4003C129.729 26.5216 129.686 26.6475 129.658 26.7782C129.63 26.9089 129.613 27.0407 129.606 27.1736C129.596 27.3068 129.595 27.4361 129.595 27.5622C129.595 27.6697 129.595 27.7805 129.605 27.8947C129.605 28.009 129.623 28.1246 129.644 28.2411C129.665 28.3579 129.697 28.4722 129.741 28.5841C129.785 28.6961 129.848 28.8013 129.927 28.8993C129.969 28.9506 130.022 29.0031 130.084 29.0567C130.147 29.1102 130.223 29.1604 130.312 29.2072C130.401 29.254 130.504 29.2922 130.62 29.3226C130.737 29.3529 130.87 29.3682 131.019 29.3682H132.507Z" fill="#5C1E21"/>
<path fill-rule="evenodd" clip-rule="evenodd" d="M135.923 29.3682L134.11 27.6603C134.087 27.6368 134.063 27.6053 134.038 27.5656C134.012 27.526 134 27.49 134 27.4574C134 27.4106 134.02 27.3649 134.059 27.3207C134.099 27.2765 134.129 27.2425 134.152 27.2192L135.805 25.6582H135.308L133.894 26.9743C133.833 27.0302 133.77 27.1025 133.705 27.1912C133.639 27.2799 133.606 27.3686 133.606 27.4574C133.606 27.5132 133.623 27.5787 133.656 27.6532C133.689 27.7278 133.751 27.8094 133.845 27.8981L135.405 29.3682H135.923ZM133.432 29.3682V25.6582H133.068V29.3682H133.432ZM139.304 29.3682V26.0431C139.304 26.0154 139.304 25.978 139.294 25.9312C139.294 25.8847 139.277 25.8379 139.256 25.7911C139.235 25.7447 139.204 25.7038 139.162 25.6687C139.12 25.6338 139.059 25.6163 138.979 25.6163C138.816 25.6163 138.687 25.6908 138.594 25.8402L136.684 28.8852C136.651 28.9458 136.625 28.9762 136.606 28.9762C136.583 28.9762 136.571 28.9657 136.569 28.9447C136.569 28.9237 136.569 28.9039 136.569 28.8852V25.6582H136.205V29.0252C136.205 29.1465 136.234 29.2409 136.292 29.3087C136.35 29.3764 136.433 29.4101 136.54 29.4101C136.633 29.4101 136.708 29.3892 136.764 29.3472C136.82 29.3053 136.879 29.2375 136.939 29.1443L138.829 26.1412C138.852 26.1038 138.87 26.0806 138.881 26.0712C138.893 26.0622 138.901 26.0573 138.906 26.0573C138.929 26.0573 138.941 26.0663 138.941 26.0854C138.941 26.0993 138.941 26.118 138.941 26.1412V29.3682H139.304ZM142.965 29.3682V29.0323H141.146C141.024 29.0323 140.917 29.0124 140.823 28.9728C140.73 28.9331 140.65 28.884 140.582 28.8234C140.514 28.7627 140.459 28.6938 140.414 28.6181C140.37 28.541 140.338 28.4651 140.32 28.3917C140.292 28.2936 140.273 28.1711 140.264 28.022C140.254 27.8738 140.252 27.7465 140.254 27.6393H142.515C142.566 27.6393 142.63 27.6333 142.708 27.6218C142.785 27.6101 142.851 27.5787 142.907 27.5271C142.972 27.4664 143.014 27.3919 143.033 27.3031C143.052 27.2144 143.061 27.1328 143.061 27.0582C143.061 26.7595 143.003 26.5134 142.886 26.3198C142.769 26.1262 142.629 25.9802 142.466 25.8821C142.316 25.7937 142.154 25.7364 141.979 25.7106C141.804 25.6851 141.651 25.6724 141.521 25.6724C141.334 25.6724 141.136 25.6922 140.926 25.7316C140.716 25.7713 140.527 25.8612 140.359 26.0012C140.242 26.0993 140.15 26.2101 140.083 26.3337C140.015 26.4573 139.964 26.5868 139.932 26.7223C139.899 26.8575 139.88 26.9953 139.872 27.1353C139.862 27.2751 139.862 27.4106 139.862 27.5413C139.862 27.8165 139.876 28.0674 139.904 28.2936C139.932 28.5201 140.018 28.7264 140.163 28.9132C140.312 29.1046 140.475 29.2282 140.649 29.2843C140.824 29.3401 140.989 29.3682 141.143 29.3682H142.965ZM140.256 27.3031C140.256 27.1283 140.273 26.9718 140.292 26.8354C140.311 26.6999 140.358 26.5718 140.432 26.4516C140.497 26.3453 140.569 26.2626 140.648 26.2019C140.727 26.1424 140.813 26.0981 140.904 26.0701C140.995 26.0431 141.087 26.0259 141.181 26.0188C141.275 26.0118 141.367 26.0083 141.46 26.0083C141.544 26.0083 141.629 26.0103 141.712 26.0153C141.796 26.0203 141.88 26.0326 141.964 26.0535C142.048 26.0734 142.129 26.1048 142.206 26.1471C142.283 26.1879 142.354 26.2486 142.419 26.3265C142.475 26.3954 142.521 26.4691 142.556 26.5448C142.591 26.6208 142.617 26.6942 142.633 26.763C142.649 26.8319 142.66 26.8949 142.665 26.9496C142.665 27.0057 142.675 27.0465 142.675 27.0746C142.675 27.0885 142.675 27.1094 142.675 27.1364C142.675 27.1596 142.675 27.184 142.661 27.2098C142.651 27.2356 142.636 27.2566 142.615 27.275C142.594 27.2937 142.563 27.303 142.521 27.303L140.256 27.3031ZM148.446 25.6724H148.054L146.599 28.9132L145.227 25.6582H144.834L146.403 29.3472L145.843 30.5653H146.234L148.446 25.6724ZM151.491 29.3682V29.0323H150.189C150.105 29.0323 150.011 29.0263 149.906 29.0147C149.801 29.0031 149.697 28.9784 149.594 28.9413C149.492 28.9039 149.397 28.8492 149.311 28.7743C149.225 28.6998 149.153 28.6028 149.097 28.4815C149.074 28.4257 149.053 28.3613 149.034 28.2868C149.015 28.2119 149.001 28.1363 148.992 28.0569C148.982 27.9775 148.976 27.8993 148.971 27.8236C148.971 27.7465 148.961 27.6753 148.961 27.6113C148.961 27.5551 148.961 27.4888 148.961 27.4117C148.961 27.336 148.971 27.2578 148.975 27.1784C148.985 27.1002 148.991 27.022 149 26.9451C149.01 26.8692 149.02 26.8028 149.034 26.7467C149.104 26.4865 149.239 26.2963 149.437 26.175C149.635 26.0551 149.858 25.9941 150.105 25.9941H151.4V25.6582H150.147C149.858 25.6582 149.62 25.7002 149.433 25.7843C149.247 25.8683 149.099 25.9638 148.992 26.0712C148.899 26.1693 148.824 26.279 148.769 26.4003C148.713 26.5216 148.67 26.6475 148.642 26.7782C148.614 26.9089 148.597 27.0407 148.59 27.1736C148.58 27.3068 148.579 27.4361 148.579 27.5622C148.579 27.6697 148.579 27.7805 148.589 27.8947C148.589 28.009 148.606 28.1246 148.627 28.2411C148.648 28.3579 148.681 28.4722 148.725 28.5841C148.769 28.6961 148.832 28.8013 148.911 28.8993C148.953 28.9506 149.006 29.0031 149.068 29.0567C149.131 29.1102 149.207 29.1604 149.296 29.2072C149.384 29.254 149.487 29.2922 149.604 29.3226C149.72 29.3529 149.854 29.3682 150.003 29.3682H151.491ZM151.631 29.3682H152.038L153.318 26.1203C153.328 26.097 153.337 26.0723 153.346 26.0468C153.356 26.021 153.369 26.0083 153.388 26.0083C153.407 26.0083 153.421 26.021 153.43 26.0468C153.44 26.0723 153.449 26.097 153.458 26.1203L154.739 29.3682H155.146L153.752 25.9102C153.696 25.775 153.631 25.6922 153.557 25.6619C153.482 25.6316 153.426 25.6163 153.388 25.6163C153.351 25.6163 153.296 25.6316 153.221 25.6619C153.146 25.6922 153.081 25.775 153.024 25.9102L151.631 29.3682ZM158.618 25.6724H158.226L156.77 28.9132L155.397 25.6582H155.005L156.574 29.3472L156.014 30.5653H156.406L158.618 25.6724ZM159.262 29.3682V26.2603C159.262 26.237 159.262 26.203 159.262 26.1588C159.262 26.1143 159.276 26.0783 159.3 26.0502C159.328 26.0128 159.38 25.9941 159.455 25.9941H161.681V25.6582H159.314C159.249 25.6582 159.183 25.6687 159.115 25.6897C159.047 25.7106 158.993 25.7586 158.951 25.8334C158.918 25.8847 158.9 25.9428 158.898 26.0083C158.898 26.0735 158.898 26.1341 158.898 26.1903V29.3682H159.262ZM165.064 29.3682V26.0431C165.064 26.0154 165.064 25.978 165.054 25.9312C165.054 25.8847 165.037 25.8379 165.016 25.7911C164.995 25.7447 164.963 25.7038 164.921 25.6687C164.879 25.6338 164.819 25.6163 164.739 25.6163C164.576 25.6163 164.448 25.6908 164.354 25.8402L162.443 28.8852C162.41 28.9458 162.386 28.9762 162.367 28.9762C162.344 28.9762 162.331 28.9657 162.328 28.9447C162.328 28.9237 162.328 28.9039 162.328 28.8852V25.6582H161.963V29.0252C161.963 29.1465 161.993 29.2409 162.051 29.3087C162.109 29.3764 162.192 29.4101 162.299 29.4101C162.392 29.4101 162.467 29.3892 162.523 29.3472C162.579 29.3053 162.638 29.2375 162.698 29.1443L164.588 26.1412C164.611 26.1038 164.629 26.0806 164.64 26.0712C164.652 26.0622 164.66 26.0573 164.665 26.0573C164.688 26.0573 164.7 26.0663 164.7 26.0854C164.7 26.0993 164.7 26.118 164.7 26.1412V29.3682H165.064ZM167.276 29.0323H166.976V29.3682H170.769V29.0323H170.468L169.271 25.9371C169.247 25.8728 169.206 25.8031 169.146 25.7282C169.085 25.6537 168.994 25.6163 168.873 25.6163C168.751 25.6163 168.66 25.6537 168.6 25.7282C168.539 25.8031 168.497 25.8728 168.474 25.9371L167.276 29.0323ZM168.789 26.0854C168.799 26.0667 168.809 26.0443 168.823 26.0188C168.837 25.993 168.854 25.9802 168.873 25.9802C168.892 25.9802 168.907 25.993 168.921 26.0188C168.935 26.0443 168.948 26.0667 168.957 26.0854L170.09 29.0323H167.654L168.789 26.0854ZM170.629 29.3682H171.035L172.316 26.1203C172.326 26.097 172.335 26.0723 172.344 26.0468C172.354 26.021 172.367 26.0083 172.386 26.0083C172.405 26.0083 172.419 26.021 172.428 26.0468C172.438 26.0723 172.447 26.097 172.456 26.1203L173.737 29.3682H174.143L172.75 25.9102C172.694 25.775 172.629 25.6922 172.554 25.6619C172.479 25.6316 172.424 25.6163 172.386 25.6163C172.349 25.6163 172.293 25.6316 172.218 25.6619C172.143 25.6922 172.078 25.775 172.022 25.9102L170.629 29.3682ZM174.283 29.3682H174.773L176.18 28.0254C176.217 27.988 176.243 27.9483 176.257 27.9064C176.271 27.8644 176.278 27.8247 176.278 27.7873C176.278 27.6929 176.247 27.6345 176.184 27.6113C176.121 27.5877 176.059 27.5761 175.998 27.5761H175.312C175.228 27.5761 175.147 27.5634 175.07 27.5379C174.993 27.5121 174.927 27.4491 174.871 27.3477C174.838 27.287 174.815 27.211 174.801 27.1178C174.787 27.0256 174.78 26.9006 174.78 26.7433C174.78 26.6512 174.78 26.5542 174.794 26.4528C174.804 26.3501 174.834 26.2603 174.885 26.182C174.936 26.1027 174.992 26.0525 175.053 26.0293C175.114 26.006 175.176 25.9941 175.242 25.9941H176.733C176.775 25.9941 176.817 25.9951 176.859 25.9981C176.901 26.0001 176.936 26.0179 176.964 26.0505C176.987 26.0786 177 26.1135 177.002 26.1554C177.002 26.1977 177.002 26.2325 177.002 26.2606V29.3685H177.366V26.2254C177.366 26.1509 177.366 26.0715 177.352 25.9876C177.342 25.9034 177.306 25.8311 177.24 25.7705C177.184 25.7192 177.117 25.6877 177.041 25.6761C176.964 25.6645 176.887 25.6585 176.813 25.6585H175.245C175.114 25.6585 174.995 25.6817 174.888 25.7285C174.78 25.7753 174.694 25.8337 174.629 25.9034C174.522 26.0202 174.454 26.1568 174.426 26.313C174.398 26.4695 174.384 26.6175 174.384 26.7575C174.384 26.8836 174.394 27.0223 174.412 27.1739C174.431 27.3256 174.484 27.4645 174.573 27.5906C174.675 27.7352 174.789 27.825 174.916 27.8599C175.041 27.895 175.165 27.9126 175.287 27.9126H175.686C175.696 27.9126 175.707 27.9136 175.721 27.9156C175.735 27.9176 175.742 27.9306 175.742 27.9542C175.742 27.9681 175.732 27.9808 175.724 27.9927C175.712 28.0043 175.697 28.0194 175.679 28.0381L174.283 29.3682ZM182.621 24.8044V24.4682H180.989C180.78 24.4682 180.573 24.5139 180.37 24.6049C180.167 24.6958 180.007 24.8393 179.89 25.0351C179.802 25.1845 179.748 25.3373 179.729 25.4938C179.711 25.65 179.701 25.7889 179.701 25.9102V27.8562C179.701 28.0056 179.711 28.1584 179.729 28.3148C179.748 28.471 179.804 28.6286 179.897 28.7871C179.981 28.9365 180.081 29.0521 180.198 29.1338C180.315 29.2154 180.435 29.2772 180.559 29.3191C180.683 29.3611 180.806 29.3869 180.93 29.3963C181.054 29.4053 181.164 29.4101 181.262 29.4101C181.365 29.4101 181.477 29.4041 181.599 29.3926C181.72 29.3809 181.841 29.3554 181.962 29.3157C182.084 29.2761 182.199 29.2177 182.309 29.1406C182.419 29.0637 182.516 28.9574 182.6 28.8222C182.707 28.6448 182.777 28.4362 182.81 28.1958C182.843 27.9554 182.858 27.7162 182.858 27.4783C182.858 27.2776 182.845 27.0665 182.819 26.8448C182.793 26.6231 182.725 26.4236 182.613 26.2461C182.538 26.1296 182.451 26.0327 182.351 25.9558C182.25 25.8787 182.144 25.8181 182.032 25.7739C181.92 25.7294 181.807 25.699 181.692 25.6829C181.578 25.6664 181.47 25.6582 181.367 25.6582H180.065C180.065 25.5474 180.093 25.4377 180.135 25.328C180.177 25.2197 180.237 25.1261 180.317 25.0471C180.396 24.9688 180.498 24.9082 180.622 24.8673C180.745 24.8254 180.875 24.8044 181.01 24.8044H182.621ZM180.065 25.9941H181.388C181.593 25.9941 181.759 26.021 181.885 26.0746C182.011 26.1273 182.109 26.1914 182.179 26.266C182.249 26.3408 182.304 26.4236 182.344 26.5168C182.384 26.6104 182.413 26.7059 182.431 26.8062C182.45 26.9054 182.46 27.0092 182.463 27.1166C182.463 27.2226 182.463 27.3278 182.463 27.4293C182.463 27.5364 182.463 27.6521 182.453 27.7746C182.453 27.8981 182.437 28.0195 182.418 28.1408C182.399 28.261 182.371 28.3755 182.334 28.4815C182.297 28.5889 182.248 28.6799 182.187 28.7534C182.122 28.8279 182.048 28.8874 181.967 28.9319C181.885 28.975 181.801 29.0076 181.715 29.0286C181.628 29.0496 181.543 29.0626 181.459 29.0671C181.375 29.0721 181.303 29.0741 181.242 29.0741C181.158 29.0741 181.069 29.0691 180.976 29.06C180.882 29.051 180.792 29.031 180.703 29.0007C180.614 28.9704 180.531 28.9296 180.451 28.8757C180.372 28.8221 180.304 28.7533 180.248 28.6705C180.183 28.5772 180.135 28.4638 180.104 28.332C180.074 28.1991 180.06 28.0661 180.06 27.9306L180.065 25.9941ZM186.52 29.3682V26.0431C186.52 26.0154 186.519 25.978 186.509 25.9312C186.509 25.8847 186.492 25.8379 186.471 25.7911C186.45 25.7447 186.418 25.7038 186.376 25.6687C186.334 25.6338 186.274 25.6163 186.194 25.6163C186.031 25.6163 185.903 25.6908 185.81 25.8402L183.898 28.8852C183.865 28.9458 183.841 28.9762 183.822 28.9762C183.799 28.9762 183.786 28.9657 183.784 28.9447C183.784 28.9237 183.784 28.9039 183.784 28.8852V25.6582H183.419V29.0252C183.419 29.1465 183.448 29.2409 183.506 29.3087C183.564 29.3764 183.648 29.4101 183.755 29.4101C183.848 29.4101 183.923 29.3892 183.979 29.3472C184.035 29.3053 184.094 29.2375 184.154 29.1443L186.044 26.1412C186.067 26.1038 186.085 26.0806 186.096 26.0712C186.108 26.0622 186.116 26.0573 186.121 26.0573C186.144 26.0573 186.156 26.0663 186.156 26.0854C186.156 26.0993 186.156 26.118 186.156 26.1412V29.3682H186.52ZM187.149 29.3682H189.061C189.094 29.3682 189.135 29.3662 189.183 29.3612C189.232 29.3562 189.286 29.3473 189.344 29.3334C189.402 29.3192 189.461 29.2983 189.519 29.2702C189.577 29.2424 189.634 29.2027 189.69 29.1512C189.755 29.0905 189.807 29.0219 189.844 28.9448C189.881 28.8677 189.908 28.7909 189.925 28.7138C189.941 28.6367 189.953 28.5621 189.957 28.4898C189.957 28.4175 189.966 28.3558 189.966 28.3044C189.966 28.2064 189.956 28.1001 189.936 27.9858C189.915 27.8716 189.869 27.7676 189.799 27.6743C189.748 27.6091 189.695 27.5601 189.641 27.5272C189.588 27.4946 189.538 27.4736 189.491 27.4643V27.4433C189.57 27.42 189.636 27.3874 189.687 27.3452C189.738 27.3032 189.778 27.2636 189.806 27.2264C189.871 27.1329 189.911 27.0269 189.925 26.9078C189.939 26.7888 189.946 26.6873 189.946 26.6034C189.946 26.4914 189.933 26.3701 189.907 26.2394C189.881 26.1087 189.817 25.9919 189.714 25.8893C189.681 25.8567 189.613 25.81 189.508 25.7493C189.403 25.6886 189.253 25.6583 189.057 25.6583H187.223V25.9942H189.021C189.129 25.9942 189.213 26.0095 189.273 26.0398C189.334 26.069 189.381 26.1028 189.414 26.1402C189.479 26.2091 189.519 26.2896 189.533 26.3817C189.547 26.4738 189.554 26.5577 189.554 26.6314C189.554 26.6547 189.554 26.6873 189.554 26.7281C189.554 26.7701 189.544 26.8134 189.537 26.8599C189.527 26.9055 189.513 26.9535 189.495 27.0022C189.476 27.0501 189.45 27.0909 189.417 27.1224C189.38 27.1646 189.327 27.2006 189.26 27.2298C189.192 27.2602 189.112 27.2752 189.019 27.2752H187.262V27.6114H188.97C189.035 27.6114 189.105 27.6184 189.179 27.6324C189.254 27.6462 189.326 27.6859 189.396 27.7503C189.485 27.8294 189.538 27.9192 189.554 28.0184C189.57 28.1188 189.579 28.2146 189.579 28.3078C189.579 28.3311 189.579 28.3674 189.579 28.4164C189.579 28.464 189.569 28.5153 189.565 28.5692C189.555 28.6228 189.546 28.6764 189.53 28.7325C189.514 28.7886 189.491 28.8351 189.463 28.8725C189.412 28.9414 189.351 28.9856 189.281 29.0043C189.211 29.023 189.15 29.0324 189.099 29.0324H187.16L187.149 29.3682ZM193.548 29.3682V25.6582H193.184V27.2822H190.958V25.6582H190.594V29.3682H190.958V27.6181H193.184V29.3682H193.548ZM197.208 29.3682V29.0323H195.389C195.267 29.0323 195.16 29.0124 195.066 28.9728C194.973 28.9331 194.893 28.884 194.825 28.8234C194.757 28.7627 194.701 28.6938 194.657 28.6181C194.613 28.541 194.581 28.4651 194.563 28.3917C194.535 28.2936 194.516 28.1711 194.507 28.022C194.497 27.8738 194.495 27.7465 194.497 27.6393H196.758C196.809 27.6393 196.873 27.6333 196.95 27.6218C197.027 27.6101 197.094 27.5787 197.15 27.5271C197.215 27.4664 197.257 27.3919 197.276 27.3031C197.295 27.2144 197.304 27.1328 197.304 27.0582C197.304 26.7595 197.246 26.5134 197.129 26.3198C197.012 26.1262 196.872 25.9802 196.708 25.8821C196.559 25.7937 196.397 25.7364 196.222 25.7106C196.047 25.6851 195.894 25.6724 195.764 25.6724C195.577 25.6724 195.379 25.6922 195.168 25.7316C194.958 25.7713 194.77 25.8612 194.602 26.0012C194.485 26.0993 194.393 26.2101 194.325 26.3337C194.257 26.4573 194.207 26.5868 194.175 26.7223C194.142 26.8575 194.123 26.9953 194.115 27.1353C194.105 27.2751 194.105 27.4106 194.105 27.5413C194.105 27.8165 194.119 28.0674 194.147 28.2936C194.175 28.5201 194.261 28.7264 194.406 28.9132C194.555 29.1046 194.717 29.2282 194.892 29.2843C195.067 29.3401 195.232 29.3682 195.386 29.3682H197.208ZM194.5 27.3031C194.5 27.1283 194.516 26.9718 194.535 26.8354C194.554 26.6999 194.599 26.5718 194.674 26.4516C194.739 26.3453 194.812 26.2626 194.892 26.2019C194.971 26.1424 195.056 26.0981 195.147 26.0701C195.238 26.0431 195.33 26.0259 195.423 26.0188C195.517 26.0118 195.61 26.0083 195.704 26.0083C195.788 26.0083 195.872 26.0103 195.956 26.0153C196.04 26.0203 196.124 26.0326 196.208 26.0535C196.292 26.0734 196.372 26.1048 196.449 26.1471C196.526 26.1879 196.597 26.2486 196.663 26.3265C196.719 26.3954 196.764 26.4691 196.799 26.5448C196.834 26.6208 196.86 26.6942 196.876 26.763C196.892 26.8319 196.903 26.8949 196.908 26.9496C196.908 27.0057 196.918 27.0465 196.918 27.0746C196.918 27.0885 196.918 27.1094 196.918 27.1364C196.918 27.1596 196.918 27.184 196.904 27.2098C196.894 27.2356 196.879 27.2566 196.858 27.275C196.837 27.2937 196.806 27.303 196.764 27.303L194.5 27.3031ZM200.631 29.3682V29.0323H199.33C199.246 29.0323 199.151 29.0263 199.046 29.0147C198.941 29.0031 198.837 28.9784 198.734 28.9413C198.632 28.9039 198.537 28.8492 198.451 28.7743C198.365 28.6998 198.293 28.6028 198.237 28.4815C198.214 28.4257 198.193 28.3613 198.174 28.2868C198.155 28.2119 198.141 28.1363 198.132 28.0569C198.122 27.9775 198.116 27.8993 198.111 27.8236C198.111 27.7465 198.101 27.6753 198.101 27.6113C198.101 27.5551 198.101 27.4888 198.101 27.4117C198.101 27.336 198.111 27.2578 198.115 27.1784C198.125 27.1002 198.13 27.022 198.139 26.9451C198.149 26.8692 198.16 26.8028 198.174 26.7467C198.244 26.4865 198.378 26.2963 198.577 26.175C198.775 26.0551 198.998 25.9941 199.245 25.9941H200.54V25.6582H199.287C198.998 25.6582 198.76 25.7002 198.573 25.7843C198.387 25.8683 198.24 25.9638 198.132 26.0712C198.039 26.1693 197.964 26.279 197.908 26.4003C197.852 26.5216 197.81 26.6475 197.782 26.7782C197.754 26.9089 197.737 27.0407 197.73 27.1736C197.72 27.3068 197.719 27.4361 197.719 27.5622C197.719 27.6697 197.719 27.7805 197.729 27.8947C197.729 28.009 197.746 28.1246 197.767 28.2411C197.788 28.3579 197.821 28.4722 197.865 28.5841C197.909 28.6961 197.972 28.8013 198.051 28.8993C198.093 28.9506 198.145 29.0031 198.208 29.0567C198.271 29.1102 198.347 29.1604 198.436 29.2072C198.524 29.254 198.627 29.2922 198.744 29.3226C198.86 29.3529 198.993 29.3682 199.143 29.3682H200.631ZM201.332 25.6582V25.9941H203.13C203.219 25.9941 203.297 26.0106 203.365 26.042C203.433 26.0746 203.485 26.1143 203.522 26.1599C203.568 26.2158 203.605 26.2872 203.627 26.3745C203.651 26.4621 203.663 26.5355 203.663 26.5962V27.1421H202.052C201.945 27.1421 201.828 27.1538 201.702 27.1773C201.576 27.2005 201.462 27.2541 201.359 27.3394C201.224 27.4514 201.139 27.5877 201.104 27.7502C201.069 27.9112 201.052 28.0662 201.052 28.2168C201.052 28.2726 201.052 28.3437 201.062 28.4302C201.062 28.5178 201.08 28.6062 201.104 28.6972C201.127 28.7885 201.16 28.8806 201.202 28.9716C201.244 29.0626 201.306 29.1383 201.385 29.2001C201.488 29.2795 201.599 29.3274 201.718 29.3438C201.838 29.36 201.951 29.3682 202.058 29.3682H203.49C203.556 29.3682 203.627 29.3632 203.707 29.3543C203.786 29.3453 203.855 29.3146 203.911 29.2633C203.972 29.2072 204.008 29.142 204.02 29.0671C204.032 28.9926 204.037 28.9297 204.037 28.8781V26.6591C204.037 26.5471 204.024 26.4224 203.998 26.2847C203.972 26.1472 203.909 26.0244 203.809 25.9173C203.733 25.8379 203.636 25.775 203.519 25.7282C203.403 25.6814 203.281 25.6582 203.155 25.6582H201.332ZM203.655 27.4783V28.8653C203.655 28.8886 203.656 28.9084 203.646 28.9271C203.646 28.9458 203.627 28.9668 203.604 28.9903C203.581 29.0136 203.553 29.0263 203.522 29.0286C203.492 29.0316 203.465 29.0326 203.441 29.0326H201.95C201.871 29.0326 201.8 29.0173 201.737 28.9869C201.674 28.9566 201.624 28.9181 201.586 28.8727C201.521 28.7933 201.48 28.6941 201.464 28.5762C201.448 28.4574 201.44 28.3429 201.44 28.2309C201.44 28.1014 201.45 27.9883 201.464 27.8928C201.48 27.7981 201.512 27.7201 201.558 27.6595C201.586 27.6221 201.634 27.5835 201.702 27.5416C201.769 27.4996 201.856 27.4786 201.964 27.4786L203.655 27.4783Z" fill="#5C1E21"/>
<path fill-rule="evenodd" clip-rule="evenodd" d="M13.4292 20.8385H31.2871L21.5361 4.3311L20.334 6.36699L18.6909 3.58507L20.3184 0.829513C20.8661 -0.0973866 22.207 -0.0973866 22.7544 0.829513L34.9854 21.5361L34.9858 21.5371C35.1253 21.7732 35.1877 22.0246 35.1851 22.269C35.1751 23.0026 34.5891 23.673 33.7671 23.673H11.7544L13.4292 20.8385Z" fill="#5C1E21"/>
<path fill-rule="evenodd" clip-rule="evenodd" d="M4.44775 20.8439H6.85352L5.18555 23.6672H1.97119C1.15089 23.6672 0.563752 22.998 0.556152 22.2661C0.556152 22.0223 0.614995 21.7714 0.754395 21.5359L12.9854 0.829285V0.828979C13.2592 0.365479 13.7314 0.133911 14.2036 0.133911C14.6756 0.133911 15.1476 0.365785 15.4214 0.829285L26.4028 19.4212H23.1167L14.2031 4.33087L4.44775 20.8439Z" fill="#5C1E21"/>
<path fill-rule="evenodd" clip-rule="evenodd" d="M26.4014 19.4212H23.1148H26.4014ZM8.11823 27.0472H27.6192L26.4634 25.0905H29.7501L31.3179 27.7448L31.3184 27.7458C31.876 28.6895 31.1959 29.8814 30.0997 29.8814H5.63825C4.54235 29.8814 3.86171 28.6895 4.41901 27.7458L4.41998 27.7448L15.4044 9.14862L17.0474 11.9305L8.11823 27.0472Z" fill="#5C1E21"/>
</svg>
