<svg width="36" height="30" viewBox="0 0 36 30" fill="none" xmlns="http://www.w3.org/2000/svg">
<path fill-rule="evenodd" clip-rule="evenodd" d="M13.4292 20.8385H31.2871L21.5361 4.3311L20.334 6.36699L18.6909 3.58507L20.3184 0.829513C20.8661 -0.0973866 22.207 -0.0973866 22.7544 0.829513L34.9854 21.5361L34.9858 21.5371C35.1253 21.7732 35.1877 22.0246 35.1851 22.269C35.1751 23.0026 34.5891 23.673 33.7671 23.673H11.7544L13.4292 20.8385Z" fill="#5C1E21"/>
<path fill-rule="evenodd" clip-rule="evenodd" d="M4.44775 20.8439H6.85352L5.18555 23.6672H1.97119C1.15089 23.6672 0.563752 22.998 0.556152 22.2661C0.556152 22.0223 0.614995 21.7714 0.754395 21.5359L12.9854 0.829285V0.828979C13.2592 0.365479 13.7314 0.133911 14.2036 0.133911C14.6756 0.133911 15.1476 0.365785 15.4214 0.829285L26.4028 19.4212H23.1167L14.2031 4.33087L4.44775 20.8439Z" fill="#5C1E21"/>
<path fill-rule="evenodd" clip-rule="evenodd" d="M26.4014 19.4212H23.1148H26.4014ZM8.11823 27.0472H27.6192L26.4634 25.0905H29.7501L31.3179 27.7448L31.3184 27.7458C31.876 28.6895 31.1959 29.8814 30.0997 29.8814H5.63825C4.54235 29.8814 3.86171 28.6895 4.41901 27.7458L4.41998 27.7448L15.4044 9.14862L17.0474 11.9305L8.11823 27.0472Z" fill="#5C1E21"/>
</svg>
