<svg width="59" height="69" viewBox="0 0 59 69" fill="none" xmlns="http://www.w3.org/2000/svg">
<path fill-rule="evenodd" clip-rule="evenodd" d="M31.9444 0.592936L53.6664 9.90238C56.6361 11.1751 58.4229 14.2414 58.0661 17.4526L55.6779 38.9472C54.9457 45.5362 51.6925 51.5863 46.5996 55.8304L33.7503 66.5381C31.0308 68.8044 27.0805 68.8044 24.3609 66.5381L11.5117 55.8304C6.41872 51.5863 3.1655 45.5362 2.43339 38.9472L0.0451098 17.4526C-0.311687 14.2414 1.47516 11.1751 4.44485 9.90238L26.1669 0.592937C28.0116 -0.197645 30.0997 -0.197646 31.9444 0.592936ZM52.222 13.2726L30.5 3.96314C29.5776 3.56784 28.5336 3.56784 27.6113 3.96314L5.88922 13.2726C4.40438 13.9089 3.51095 15.4421 3.68935 17.0477L6.07763 38.5422C6.70516 44.1899 9.49363 49.3758 13.859 53.0136L26.7083 63.7213C28.0681 64.8545 30.0432 64.8545 31.403 63.7213L44.2522 53.0136C48.6176 49.3758 51.4061 44.19 52.0336 38.5422L54.4219 17.0477C54.6003 15.4421 53.7069 13.9089 52.222 13.2726Z" fill="#5C1E21"/>
<path d="M24.5768 44.3441C24.3568 44.3441 24.1808 44.2781 24.0488 44.1461C23.9168 44.0141 23.8508 43.8381 23.8508 43.6181V38.8661H21.2768C21.0568 38.8661 20.8808 38.8001 20.7488 38.6681C20.6168 38.5361 20.5508 38.3601 20.5508 38.1401V37.6121C20.5508 37.3921 20.6168 37.2161 20.7488 37.0841C20.8808 36.9521 21.0568 36.8861 21.2768 36.8861H23.8508V34.9061H21.2768C21.0568 34.9061 20.8808 34.8401 20.7488 34.7081C20.6168 34.5761 20.5508 34.4001 20.5508 34.1801V33.6521C20.5508 33.4321 20.6168 33.2561 20.7488 33.1241C20.8808 32.9921 21.0568 32.9261 21.2768 32.9261H23.8508V22.0031C23.8508 21.7611 23.9168 21.5741 24.0488 21.4421C24.1808 21.3101 24.3568 21.2441 24.5768 21.2441H32.5958C34.1358 21.2441 35.4668 21.5081 36.5888 22.0361C37.7328 22.5421 38.6128 23.3011 39.2288 24.3131C39.8668 25.3251 40.1858 26.5791 40.1858 28.0751C40.1858 29.5711 39.8668 30.8251 39.2288 31.8371C38.6128 32.8491 37.7328 33.6191 36.5888 34.1471C35.4668 34.6531 34.1358 34.9061 32.5958 34.9061H25.9298V36.8861H33.1568C33.3768 36.8861 33.5528 36.9521 33.6848 37.0841C33.8168 37.2161 33.8828 37.3921 33.8828 37.6121V38.1401C33.8828 38.3601 33.8168 38.5361 33.6848 38.6681C33.5528 38.8001 33.3768 38.8661 33.1568 38.8661H25.9298V43.6181C25.9298 43.8381 25.8638 44.0141 25.7318 44.1461C25.5998 44.2781 25.4128 44.3441 25.1708 44.3441H24.5768ZM25.9298 32.9261H32.4308C34.3448 32.9261 35.7638 32.5081 36.6878 31.6721C37.6338 30.8361 38.1068 29.6371 38.1068 28.0751C38.1068 26.5131 37.6338 25.3141 36.6878 24.4781C35.7638 23.6421 34.3448 23.2241 32.4308 23.2241H25.9298V32.9261Z" fill="#5C1E21"/>
</svg>
