<svg width="287" height="210" viewBox="0 0 287 210" fill="none" xmlns="http://www.w3.org/2000/svg">
<path fill-rule="evenodd" clip-rule="evenodd" d="M17.1454 136.016C20.2088 136.016 22.6923 138.499 22.6923 141.563V164.754C22.6923 167.817 20.2088 170.301 17.1454 170.301C14.0819 170.301 11.5985 167.817 11.5985 164.754V141.563C11.5985 138.499 14.0819 136.016 17.1454 136.016Z" fill="#F9F9F9"/>
<path fill-rule="evenodd" clip-rule="evenodd" d="M0 153.156C0 150.092 2.48342 147.609 5.54688 147.609H28.7439C31.8074 147.609 34.2908 150.092 34.2908 153.156C34.2908 156.219 31.8074 158.702 28.7439 158.702H5.54688C2.48342 158.702 0 156.219 0 153.156Z" fill="#F9F9F9"/>
<path fill-rule="evenodd" clip-rule="evenodd" d="M32.0998 190.68C33.6315 190.68 34.8732 191.922 34.8732 193.454V206.4C34.8732 207.932 33.6315 209.173 32.0998 209.173C30.568 209.173 29.3263 207.932 29.3263 206.4V193.454C29.3263 191.922 30.568 190.68 32.0998 190.68Z" fill="#F9F9F9"/>
<path fill-rule="evenodd" clip-rule="evenodd" d="M22.8531 199.927C22.8531 198.395 24.0948 197.153 25.6266 197.153H38.573C40.1047 197.153 41.3464 198.395 41.3464 199.927C41.3464 201.458 40.1047 202.7 38.573 202.7H25.6266C24.0948 202.7 22.8531 201.458 22.8531 199.927Z" fill="#F9F9F9"/>
<path fill-rule="evenodd" clip-rule="evenodd" d="M276.345 31.0341C279.182 32.1888 280.547 35.4251 279.392 38.2626L270.65 59.7456C269.495 62.5831 266.259 63.9474 263.422 62.7927C260.584 61.6381 259.22 58.4018 260.374 55.5643L269.116 34.0812C270.271 31.2437 273.507 29.8795 276.345 31.0341Z" fill="#F9F9F9"/>
<path fill-rule="evenodd" clip-rule="evenodd" d="M254.001 40.449C255.156 37.6115 258.392 36.2473 261.23 37.4019L282.713 46.1438C285.55 47.2984 286.914 50.5347 285.76 53.3723C284.605 56.2098 281.369 57.574 278.531 56.4194L257.048 47.6775C254.211 46.5229 252.846 43.2866 254.001 40.449Z" fill="#F9F9F9"/>
<path fill-rule="evenodd" clip-rule="evenodd" d="M255.769 0.205125C257.187 0.782247 257.87 2.4003 257.293 3.81914L252.417 15.8059C251.84 17.2248 250.222 17.9071 248.803 17.33C247.384 16.7529 246.702 15.1348 247.279 13.716L252.155 1.7292C252.732 0.310354 254.35 -0.371996 255.769 0.205125Z" fill="#F9F9F9"/>
<path fill-rule="evenodd" clip-rule="evenodd" d="M243.723 5.28474C244.3 3.8659 245.918 3.18355 247.337 3.76067L259.324 8.63638C260.743 9.2135 261.425 10.8316 260.848 12.2504C260.271 13.6692 258.653 14.3516 257.234 13.7745L245.247 8.89876C243.829 8.32164 243.146 6.70358 243.723 5.28474Z" fill="#F9F9F9"/>
<path fill-rule="evenodd" clip-rule="evenodd" d="M58.5528 8.37096C58.5528 5.30751 61.0362 2.82409 64.0997 2.82409H220.821C223.885 2.82409 226.368 5.30751 226.368 8.37096V53.3506C226.368 56.414 223.885 58.8974 220.821 58.8974H64.0997C61.0362 58.8974 58.5528 56.414 58.5528 53.3506V8.37096ZM69.6466 13.9178V47.8037H215.274V13.9178H69.6466Z" fill="#F9F9F9"/>
<path fill-rule="evenodd" clip-rule="evenodd" d="M58.5528 53.3561C58.5528 50.2927 61.0362 47.8092 64.0997 47.8092H220.821C223.885 47.8092 226.368 50.2927 226.368 53.3561V199.927C226.368 202.99 223.885 205.474 220.821 205.474H64.0997C61.0362 205.474 58.5528 202.99 58.5528 199.927V53.3561ZM69.6466 58.903V194.38H215.274V58.903H69.6466Z" fill="#F9F9F9"/>
<path fill-rule="evenodd" clip-rule="evenodd" d="M82.0827 95.4791C82.0827 92.4156 84.5661 89.9322 87.6295 89.9322H119.469C122.532 89.9322 125.015 92.4156 125.015 95.4791C125.015 98.5426 122.532 101.026 119.469 101.026H87.6295C84.5661 101.026 82.0827 98.5426 82.0827 95.4791Z" fill="#F9F9F9"/>
<path fill-rule="evenodd" clip-rule="evenodd" d="M160.954 95.4791C160.954 92.4156 163.437 89.9322 166.501 89.9322H200.769C203.833 89.9322 206.316 92.4156 206.316 95.4791C206.316 98.5426 203.833 101.026 200.769 101.026H166.501C163.437 101.026 160.954 98.5426 160.954 95.4791Z" fill="#F9F9F9"/>
<path fill-rule="evenodd" clip-rule="evenodd" d="M85.3054 165.808C85.3054 162.744 87.7888 160.261 90.8523 160.261H116.246C119.309 160.261 121.793 162.744 121.793 165.808C121.793 168.871 119.309 171.355 116.246 171.355H90.8523C87.7888 171.355 85.3054 168.871 85.3054 165.808Z" fill="#F9F9F9"/>
<path fill-rule="evenodd" clip-rule="evenodd" d="M103.549 74.0127C106.613 74.0127 109.096 76.4961 109.096 79.5596V111.399C109.096 114.462 106.613 116.945 103.549 116.945C100.486 116.945 98.0022 114.462 98.0022 111.399V79.5596C98.0022 76.4961 100.486 74.0127 103.549 74.0127Z" fill="#F9F9F9"/>
<path fill-rule="evenodd" clip-rule="evenodd" d="M169.118 149.233C171.285 147.067 174.797 147.067 176.963 149.234L202.262 174.539C204.428 176.705 204.428 180.217 202.261 182.383C200.095 184.549 196.583 184.549 194.417 182.382L169.118 157.077C166.952 154.911 166.952 151.399 169.118 149.233Z" fill="#F9F9F9"/>
<path fill-rule="evenodd" clip-rule="evenodd" d="M202.261 149.233C204.428 151.399 204.428 154.911 202.262 157.077L176.963 182.382C174.797 184.549 171.285 184.549 169.118 182.383C166.952 180.217 166.952 176.705 169.118 174.539L194.417 149.234C196.583 147.067 200.095 147.067 202.261 149.233Z" fill="#F9F9F9"/>
<path d="M103.549 157.87C106.153 157.87 108.264 155.759 108.264 153.155C108.264 150.552 106.153 148.441 103.549 148.441C100.945 148.441 98.8342 150.552 98.8342 153.155C98.8342 155.759 100.945 157.87 103.549 157.87Z" fill="#F9F9F9"/>
<path d="M103.549 183.375C106.153 183.375 108.264 181.264 108.264 178.66C108.264 176.056 106.153 173.945 103.549 173.945C100.945 173.945 98.8342 176.056 98.8342 178.66C98.8342 181.264 100.945 183.375 103.549 183.375Z" fill="#F9F9F9"/>
<path fill-rule="evenodd" clip-rule="evenodd" d="M142.46 47.8092C145.524 47.8092 148.007 50.2927 148.007 53.3561V199.927C148.007 202.99 145.524 205.474 142.46 205.474C139.397 205.474 136.914 202.99 136.914 199.927V53.3561C136.914 50.2927 139.397 47.8092 142.46 47.8092Z" fill="#F9F9F9"/>
<path fill-rule="evenodd" clip-rule="evenodd" d="M58.5528 131.462C58.5528 128.398 61.0362 125.915 64.0997 125.915H220.821C223.885 125.915 226.368 128.398 226.368 131.462C226.368 134.525 223.885 137.009 220.821 137.009H64.0997C61.0362 137.009 58.5528 134.525 58.5528 131.462Z" fill="#F9F9F9"/>
</svg>
