<svg width="53" height="53" viewBox="0 0 53 53" fill="none" xmlns="http://www.w3.org/2000/svg">
<path fill-rule="evenodd" clip-rule="evenodd" d="M26.5002 23.2083C31.954 23.2083 36.3752 18.7871 36.3752 13.3333C36.3752 7.87951 31.954 3.45832 26.5002 3.45832C21.0464 3.45832 16.6252 7.87951 16.6252 13.3333C16.6252 18.7871 21.0464 23.2083 26.5002 23.2083ZM26.5002 26.5C33.7719 26.5 39.6668 20.6051 39.6668 13.3333C39.6668 6.06157 33.7719 0.166656 26.5002 0.166656C19.2284 0.166656 13.3335 6.06157 13.3335 13.3333C13.3335 20.6051 19.2284 26.5 26.5002 26.5Z" fill="#5C1E21"/>
<path fill-rule="evenodd" clip-rule="evenodd" d="M1.37377 42.3538C3.76142 33.6028 12.7012 29.7917 21.0521 29.7917H31.9476C40.2985 29.7917 49.2383 33.6028 51.6259 42.3538C52.0784 44.0122 52.4409 45.8109 52.6466 47.7251C52.9579 50.6225 50.5707 52.8334 47.8957 52.8334H5.10401C2.42901 52.8334 0.0417745 50.6225 0.353103 47.7251C0.558785 45.8109 0.921271 44.0122 1.37377 42.3538ZM21.0521 33.0834C13.4038 33.0834 6.37306 36.5361 4.54936 43.2202C4.13831 44.7268 3.81115 46.353 3.62593 48.0768C3.54882 48.7944 4.14313 49.5417 5.10401 49.5417H47.8957C48.8566 49.5417 49.4509 48.7944 49.3738 48.0768C49.1885 46.353 48.8614 44.7268 48.4503 43.2202C46.6266 36.5361 39.5959 33.0834 31.9476 33.0834H21.0521Z" fill="#5C1E21"/>
</svg>
