<svg width="58" height="58" viewBox="0 0 58 58" fill="none" xmlns="http://www.w3.org/2000/svg">
<circle cx="29" cy="29" r="27.5" fill="white" stroke="#5C1E21" stroke-width="3"/>
<path d="M24.1519 42.6C23.9319 42.6 23.7559 42.534 23.6239 42.402C23.4919 42.27 23.4259 42.094 23.4259 41.874V37.122H20.8519C20.6319 37.122 20.4559 37.056 20.3239 36.924C20.1919 36.792 20.1259 36.616 20.1259 36.396V35.868C20.1259 35.648 20.1919 35.472 20.3239 35.34C20.4559 35.208 20.6319 35.142 20.8519 35.142H23.4259V33.162H20.8519C20.6319 33.162 20.4559 33.096 20.3239 32.964C20.1919 32.832 20.1259 32.656 20.1259 32.436V31.908C20.1259 31.688 20.1919 31.512 20.3239 31.38C20.4559 31.248 20.6319 31.182 20.8519 31.182H23.4259V20.259C23.4259 20.017 23.4919 19.83 23.6239 19.698C23.7559 19.566 23.9319 19.5 24.1519 19.5H32.1709C33.7109 19.5 35.0419 19.764 36.1639 20.292C37.3079 20.798 38.1879 21.557 38.8039 22.569C39.4419 23.581 39.7609 24.835 39.7609 26.331C39.7609 27.827 39.4419 29.081 38.8039 30.093C38.1879 31.105 37.3079 31.875 36.1639 32.403C35.0419 32.909 33.7109 33.162 32.1709 33.162H25.5049V35.142H32.7319C32.9519 35.142 33.1279 35.208 33.2599 35.34C33.3919 35.472 33.4579 35.648 33.4579 35.868V36.396C33.4579 36.616 33.3919 36.792 33.2599 36.924C33.1279 37.056 32.9519 37.122 32.7319 37.122H25.5049V41.874C25.5049 42.094 25.4389 42.27 25.3069 42.402C25.1749 42.534 24.9879 42.6 24.7459 42.6H24.1519ZM25.5049 31.182H32.0059C33.9199 31.182 35.3389 30.764 36.2629 29.928C37.2089 29.092 37.6819 27.893 37.6819 26.331C37.6819 24.769 37.2089 23.57 36.2629 22.734C35.3389 21.898 33.9199 21.48 32.0059 21.48H25.5049V31.182Z" fill="#5C1E21"/>
</svg>
